<?xml version="1.0" standalone="no"?>
<!DOCTYPE svg PUBLIC "-//W3C//DTD SVG 1.1//EN" "http://www.w3.org/Graphics/SVG/1.1/DTD/svg11.dtd" >
<svg>
<metadata>
Created by FontForge 20090914 at Wed Dec 29 11:49:28 2021
 By www-data
Copyright (c) 2008 by Silas Dilworth. All rights reserved.  ||  PDF-eXtract by uazero.
</metadata>
<defs>
<font id="HeroicCondensed" horiz-adv-x="328" >
  <font-face 
    font-family="Heroic Condensed"
    font-weight="400"
    font-stretch="normal"
    units-per-em="1000"
    panose-1="2 0 5 6 4 0 0 2 0 4"
    ascent="800"
    descent="-200"
    x-height="500"
    cap-height="700"
    bbox="-36 -209.999 525 885"
    underline-thickness="50"
    underline-position="-50"
    unicode-range="U+0020-U+2265"
  />
<missing-glyph horiz-adv-x="200" 
 />
    <glyph glyph-name=".notdef" horiz-adv-x="200" 
 />
    <glyph glyph-name="space" unicode=" " horiz-adv-x="175" 
 />
    <glyph glyph-name="space" unicode="&#xa0;" horiz-adv-x="175" 
 />
    <glyph glyph-name="exclam" unicode="!" horiz-adv-x="179" 
d="M125 77v-77h-72v77h72zM127 700l-16 -470h-44l-17 470h77z" />
    <glyph glyph-name="quotedbl" unicode="&#x22;" horiz-adv-x="265" 
d="M111 710l-16 -203h-39l-17 203h72zM225 710l-17 -203h-39l-16 203h72z" />
    <glyph glyph-name="numbersign" unicode="#" horiz-adv-x="350" 
d="M310 517h-56l-10 -184h56v-36h-58l-8 -147h-39l8 147h-70l-8 -147h-39l8 147h-54v36h56l10 184h-56v36h58l8 147h39l-8 -147h70l8 147h39l-8 -147h54v-36zM135 333h70l10 184h-70z" />
    <glyph glyph-name="dollar" unicode="$" horiz-adv-x="335" 
d="M59 504c0 32 6.33496 58.332 19.002 78.999s35.667 32.667 69 36v81h41v-81c33.333 -3.33301 56 -15.333 68 -36s18 -47 18 -79v-51h-58v52c0 22.667 -4.16699 38.834 -12.5 48.501s-20.5 14.5 -36.5 14.5c-17.333 0 -29.833 -5 -37.5 -15s-11.5 -26 -11.5 -48v-20
c0 -20.667 3.83301 -37.167 11.5 -49.5s17.334 -22.666 29.001 -30.999s24.167 -16 37.5 -23s25.833 -15.5 37.5 -25.5s21.334 -22.667 29.001 -38s11.5 -35.333 11.5 -60v-42c0 -32 -6 -58.333 -18 -79s-34.667 -32.667 -68 -36v-101h-41v101
c-34.667 3.33301 -58 15.166 -70 35.499s-18 46.833 -18 79.5v62h59v-53c0 -26.667 3 -45.5 9 -56.5s19.333 -16.5 40 -16.5c17.333 0 29.833 5 37.5 15s11.5 26 11.5 48v41c0 20 -3.83301 36 -11.5 48s-17.334 22.167 -29.001 30.5s-24.334 16 -38.001 23
s-26.334 15.667 -38.001 26s-21.334 23.333 -29.001 39s-11.5 36.5 -11.5 62.5v19z" />
    <glyph glyph-name="percent" unicode="%" horiz-adv-x="451" 
d="M101 0h-44l293 700h44zM130 435c-31.333 0 -52.5 8.5 -63.5 25.5s-16.5 43.167 -16.5 78.5v67c0 35.333 5.5 61.5 16.5 78.5s32.167 25.5 63.5 25.5s52.5 -8.5 63.5 -25.5s16.5 -43.167 16.5 -78.5v-67c0 -35.333 -5.5 -61.5 -16.5 -78.5s-32.167 -25.5 -63.5 -25.5z
M321 -10c-31.333 0 -52.5 8.5 -63.5 25.5s-16.5 43.167 -16.5 78.5v67c0 35.333 5.5 61.5 16.5 78.5s32.167 25.5 63.5 25.5s52.5 -8.5 63.5 -25.5s16.5 -43.167 16.5 -78.5v-67c0 -35.333 -5.5 -61.5 -16.5 -78.5s-32.167 -25.5 -63.5 -25.5zM130 671
c-14.667 0 -24.5 -4.5 -29.5 -13.5s-7.5 -25.833 -7.5 -50.5v-69c0 -24.667 2.5 -41.5 7.5 -50.5s14.833 -13.5 29.5 -13.5s24.5 4.5 29.5 13.5s7.5 25.833 7.5 50.5v69c0 24.667 -2.5 41.5 -7.5 50.5s-14.833 13.5 -29.5 13.5zM321 226c-14.667 0 -24.5 -4.5 -29.5 -13.5
s-7.5 -25.833 -7.5 -50.5v-69c0 -24.667 2.5 -41.5 7.5 -50.5s14.833 -13.5 29.5 -13.5s24.5 4.5 29.5 13.5s7.5 25.833 7.5 50.5v69c0 24.667 -2.5 41.5 -7.5 50.5s-14.833 13.5 -29.5 13.5z" />
    <glyph glyph-name="ampersand" unicode="&#x26;" horiz-adv-x="392" 
d="M352 325h-57v-214c0 -16.667 5 -29.667 15 -39s23.667 -14 41 -14v-58c-42.667 -0 -71.334 13.333 -86.001 40c-7.33301 -16 -18.166 -28.333 -32.499 -37s-33.833 -13 -58.5 -13c-44 0 -74.167 10.5 -90.5 31.5s-24.5 50.167 -24.5 87.5v143
c0 25.333 4 46.666 12 63.999s22.667 30 44 38c-21.333 8 -36 20.5 -44 37.5s-12 38.167 -12 63.5v132c0 18 1.83301 34.5 5.5 49.5s10 28 19 39s21 19.5 36 25.5s34.167 9 57.5 9c44 0 74.5 -11.5 91.5 -34.5s25.5 -52.5 25.5 -88.5v-77h-62v77
c0 18 -4.16699 33.5 -12.5 46.5s-22.5 19.5 -42.5 19.5c-21.333 0 -35.833 -6.16699 -43.5 -18.5s-11.5 -28.166 -11.5 -47.499v-143c0 -18 4.33301 -32.833 13 -44.5s23.667 -17.5 45 -17.5h172v-57zM177 46c12 0 21.668 2.16602 29.001 6.49902s13 10.166 17 17.499
s6.5 15.833 7.5 25.5s1.5 20.167 1.5 31.5v198h-52c-14 0 -24.833 -2 -32.5 -6s-13.334 -9.66699 -17.001 -17s-6 -16 -7 -26s-1.5 -20.667 -1.5 -32v-119c0 -10.667 0.5 -20.667 1.5 -30s3.5 -17.666 7.5 -24.999s9.66699 -13.166 17 -17.499s17 -6.5 29 -6.5z" />
    <glyph glyph-name="quotesingle" unicode="'" horiz-adv-x="142" 
d="M106 710l-16 -203h-39l-17 203h72z" />
    <glyph glyph-name="parenleft" unicode="(" horiz-adv-x="240" 
d="M144 -30c-30 61.333 -53.3311 123.5 -69.998 186.5s-25 127.167 -25 192.5c0 66.667 8.5 131.667 25.5 195s40.167 125.333 69.5 186h46c-26.667 -63.333 -47.834 -126.5 -63.501 -189.5s-23.5 -126.833 -23.5 -191.5c0 -62.667 7.66699 -125.5 23 -188.5
s36.666 -126.5 63.999 -190.5h-46z" />
    <glyph glyph-name="parenright" unicode=")" horiz-adv-x="240" 
d="M49 -30c27.333 64 48.668 127.5 64.001 190.5s23 125.833 23 188.5c0 64.667 -7.83301 128.5 -23.5 191.5s-36.834 126.167 -63.501 189.5h46c29.333 -60.667 52.5 -122.667 69.5 -186s25.5 -128.333 25.5 -195c0 -65.333 -8.33301 -129.5 -25 -192.5
s-40 -125.167 -70 -186.5h-46z" />
    <glyph glyph-name="asterisk" unicode="*" horiz-adv-x="344" 
d="M139 710h64l-22 -127l113 60l19 -60l-127 -18l93 -89l-52 -38l-28 58l-28 58l-28 -58l-28 -58l-52 38l93 89l-127 18l19 60l114 -60z" />
    <glyph glyph-name="plus" unicode="+" horiz-adv-x="382" 
d="M49 303h118v122h47v-122h118v-46h-118v-122h-47v122h-118v46z" />
    <glyph glyph-name="comma" unicode="," horiz-adv-x="145" 
d="M109 77l-32 -165h-38v165h70z" />
    <glyph glyph-name="hyphen" unicode="-" horiz-adv-x="250" 
d="M39 303h170v-46h-170v46z" />
    <glyph glyph-name="period" unicode="." horiz-adv-x="147" 
d="M106 77v-77h-67v77h67z" />
    <glyph glyph-name="slash" unicode="/" horiz-adv-x="268" 
d="M189 730h48l-160 -760h-48z" />
    <glyph glyph-name="zero" unicode="0" horiz-adv-x="341" 
d="M170 46c21.333 0 35.833 6.16699 43.5 18.5s11.5 28.166 11.5 47.499v475c0 19.333 -3.83301 35.166 -11.5 47.499s-22.167 18.5 -43.5 18.5s-35.833 -6.16699 -43.5 -18.5s-11.5 -28.166 -11.5 -47.499v-475c0 -19.333 3.83301 -35.166 11.5 -47.499
s22.167 -18.5 43.5 -18.5zM170 710c22.667 0 41.667 -3 57 -9s27.5 -14.5 36.5 -25.5s15.333 -24 19 -39s5.5 -31.5 5.5 -49.5v-475c0 -18 -1.83301 -34.5 -5.5 -49.5s-10 -27.833 -19 -38.5s-21.167 -19 -36.5 -25s-34.333 -9 -57 -9c-23.333 0 -42.5 3 -57.5 9
s-27 14.333 -36 25s-15.333 23.5 -19 38.5s-5.5 31.5 -5.5 49.5v475c0 18 1.83301 34.5 5.5 49.5s10 28 19 39s21 19.5 36 25.5s34.167 9 57.5 9z" />
    <glyph glyph-name="one" unicode="1" horiz-adv-x="262" 
d="M163 60h61v-60h-185v60h61v530h-63v43c28 0 47.5 6.33301 58.5 19s16.5 28.667 16.5 48h51v-640z" />
    <glyph glyph-name="two" unicode="2" horiz-adv-x="320" 
d="M110 60l171.998 0.000976562v-60h-235v100c0 39.333 4.16699 73 12.5 101s18.833 52.5 31.5 73.5s26.167 39.833 40.5 56.5s27.833 33.667 40.5 51s23.167 36.333 31.5 57s12.5 45.667 12.5 75v76c0 17.333 -3.83301 32.166 -11.5 44.499s-21.5 18.5 -41.5 18.5
c-20.667 0 -34.667 -6 -42 -18s-11 -27 -11 -45v-80h-63v80c0 17.333 1.83301 33.333 5.5 48s9.83398 27.334 18.501 38.001s20.5 19 35.5 25s33.833 9 56.5 9s41.5 -3 56.5 -9s26.833 -14.333 35.5 -25s14.834 -23.334 18.501 -38.001s5.5 -30.667 5.5 -48v-75
c0 -34.667 -4.16699 -64 -12.5 -88s-18.833 -45.5 -31.5 -64.5s-26.167 -36.667 -40.5 -53s-27.833 -34 -40.5 -53s-23.167 -40.667 -31.5 -65s-12.5 -53.833 -12.5 -88.5v-43z" />
    <glyph glyph-name="three" unicode="3" horiz-adv-x="337" 
d="M128 382l33.999 0.000976562c20 0 33.5 5.5 40.5 16.5s10.5 25.167 10.5 42.5v150c0 14.667 -4 28.667 -12 42s-21.333 20 -40 20c-19.333 0 -32.666 -5.83301 -39.999 -17.5s-11 -26.5 -11 -44.5v-81h-61v81c0 17.333 1.66699 33.333 5 48s9.33301 27.167 18 37.5
s20.167 18.5 34.5 24.5s32.5 9 54.5 9s40.333 -3 55 -9s26.334 -14.167 35.001 -24.5s14.834 -22.833 18.501 -37.5s5.5 -30.667 5.5 -48v-144c0 -23.333 -4 -42.833 -12 -58.5s-21.667 -27.167 -41 -34.5c20 -7.33301 34.5 -18.833 43.5 -34.5s13.5 -35.167 13.5 -58.5
v-149c0 -18 -1.83301 -34.5 -5.5 -49.5s-9.83398 -27.833 -18.501 -38.5s-20.667 -19 -36 -25s-34.333 -9 -57 -9c-23.333 0 -42.333 3 -57 9s-26.334 14.5 -35.001 25.5s-14.667 23.833 -18 38.5s-5 31 -5 49v88h62v-88c0 -16 4 -31 12 -45s21.667 -21 41 -21
c21.333 0 35.666 6.16699 42.999 18.5s11 28.166 11 47.499v151c0 15.333 -4.16699 29.333 -12.5 42s-22.166 19 -41.499 19h-34v58z" />
    <glyph glyph-name="four" unicode="4" horiz-adv-x="325" 
d="M189 154h-162v65l141 481h84v-488h45v-58h-45v-154h-63v154zM189 212l-0.000976562 133c0 46.667 0.333008 91.167 1 133.5s0.333984 88.5 -0.999023 138.5l-110 -405h110z" />
    <glyph glyph-name="five" unicode="5" horiz-adv-x="341" 
d="M173 369c-26.667 0 -47.667 -11.667 -63 -35h-51l18 366h201v-61h-145l-11 -241c9.33301 7.33301 19.333 13.333 30 18s22.667 7 36 7c36.667 0 62.5 -9.33301 77.5 -28s22.5 -47.667 22.5 -87v-196c0 -18 -1.83301 -34.5 -5.5 -49.5s-10 -27.833 -19 -38.5
s-21.167 -19 -36.5 -25s-34.333 -9 -57 -9c-23.333 0 -42.5 3 -57.5 9s-27 14.333 -36 25s-15.333 23.5 -19 38.5s-5.5 31.5 -5.5 49.5v88h63v-88c0 -19.333 3.83301 -35.166 11.5 -47.499s22.167 -18.5 43.5 -18.5s35.833 6.16699 43.5 18.5s11.5 28.166 11.5 47.499v196
c0 18.667 -3.66699 33.5 -11 44.5s-21 16.5 -41 16.5z" />
    <glyph glyph-name="six" unicode="6" horiz-adv-x="346" 
d="M175 653c-20 0 -34.166 -5.66699 -42.499 -17s-12.5 -27.666 -12.5 -48.999v-209c9.33301 9.33301 20.166 16.833 32.499 22.5s25.5 8.5 39.5 8.5c37.333 0 63.5 -10 78.5 -30s22.5 -49 22.5 -87v-180c0 -37.333 -8.5 -67 -25.5 -89s-47.833 -33 -92.5 -33
s-75.5 11 -92.5 33s-25.5 51.667 -25.5 89v475c0 18.667 2 35.5 6 50.5s10.5 27.833 19.5 38.5s21.167 19 36.5 25s34 9 56 9s40.667 -3 56 -9s27.5 -14.333 36.5 -25s15.5 -23.5 19.5 -38.5s6 -31.833 6 -50.5v-77h-63v77c0 21.333 -4.16699 37.666 -12.5 48.999
s-22.5 17 -42.5 17zM176.001 354c-13.333 0 -24.6689 -3.16699 -34.002 -9.5s-16.666 -13.833 -21.999 -22.5v-210c0 -20 3.83301 -36 11.5 -48s22.167 -18 43.5 -18s35.833 6 43.5 18s11.5 28 11.5 48v180c0 19.333 -4.16699 34.5 -12.5 45.5s-22.166 16.5 -41.499 16.5z
" />
    <glyph glyph-name="seven" unicode="7" horiz-adv-x="274" 
d="M92 0c0 60.667 1.49805 118 4.49805 172s8.33301 106.833 16 158.5s17.834 102.667 30.501 153s28.667 102.166 48 155.499h-169v61h229v-50c-12.667 -40 -23.667 -76.5 -33 -109.5s-17.333 -65 -24 -96s-12.167 -62 -16.5 -93s-7.66602 -63.833 -9.99902 -98.5
s-4 -72.667 -5 -114s-1.5 -87.666 -1.5 -138.999h-69z" />
    <glyph glyph-name="eight" unicode="8" horiz-adv-x="341" 
d="M170 710c22 0 40.3301 -3 54.9971 -9s26.334 -14.167 35.001 -24.5s14.834 -22.833 18.501 -37.5s5.5 -30.667 5.5 -48v-144c0 -23.333 -4.16699 -42.833 -12.5 -58.5s-22.166 -27.167 -41.499 -34.5c22 -8 37.167 -20.667 45.5 -38s12.5 -39 12.5 -65v-139
c0 -18 -1.83301 -34.5 -5.5 -49.5s-10 -27.833 -19 -38.5s-21.167 -19 -36.5 -25s-34.333 -9 -57 -9c-23.333 0 -42.5 3 -57.5 9s-27 14.333 -36 25s-15.333 23.5 -19 38.5s-5.5 31.5 -5.5 49.5v139c0 26 4.16699 47.667 12.5 65s23.5 30 45.5 38
c-19.333 7.33301 -33 18.833 -41 34.5s-12 35.167 -12 58.5v144c0 17.333 1.83301 33.333 5.5 48s9.66699 27.167 18 37.5s19.833 18.5 34.5 24.5s33 9 55 9zM169.997 46c22.667 0 37.501 7.00098 44.501 21.001s10.5 31.333 10.5 52v137c0 10 -0.666992 19.167 -2 27.5
s-3.83301 15.833 -7.5 22.5s-9.16699 11.834 -16.5 15.501s-17 5.5 -29 5.5s-21.5 -1.83301 -28.5 -5.5s-12.5 -8.83398 -16.5 -15.501s-6.66699 -14.167 -8 -22.5s-2 -17.5 -2 -27.5v-137c0 -10 0.666992 -19.5 2 -28.5s4 -16.833 8 -23.5s9.66699 -11.834 17 -15.501
s16.666 -5.5 27.999 -5.5zM169.998 653.001c-21.333 0 -35.166 -6.5 -41.499 -19.5s-9.5 -29.167 -9.5 -48.5v-139c0 -18.667 3.16699 -34.334 9.5 -47.001s20.166 -19 41.499 -19c22 0 36.167 6.33301 42.5 19s9.5 28.334 9.5 47.001v139c0 19.333 -3.33301 35.5 -10 48.5
s-20.667 19.5 -42 19.5z" />
    <glyph glyph-name="nine" unicode="9" horiz-adv-x="341" 
d="M170 47c20 0 34.166 5.66699 42.499 17s12.5 27.666 12.5 48.999v219c-9.33301 -9.33301 -20.166 -16.833 -32.499 -22.5s-25.5 -8.5 -39.5 -8.5c-37.333 0 -63.5 10 -78.5 30s-22.5 49 -22.5 87v170c0 37.333 8.5 67 25.5 89s47.833 33 92.5 33s75.5 -11 92.5 -33
s25.5 -51.667 25.5 -89v-475c0 -18.667 -2 -35.5 -6 -50.5s-10.5 -27.833 -19.5 -38.5s-21.167 -19 -36.5 -25s-34 -9 -56 -9s-40.667 3 -56 9s-27.5 14.333 -36.5 25s-15.5 23.5 -19.5 38.5s-6 31.833 -6 50.5v87h63v-87c0 -21.333 4.16699 -37.666 12.5 -48.999
s22.5 -17 42.5 -17zM168.999 356c13.333 0 24.6689 3.16699 34.002 9.5s16.666 13.833 21.999 22.5v200c0 20 -3.83301 36 -11.5 48s-22.167 18 -43.5 18s-35.833 -6 -43.5 -18s-11.5 -28 -11.5 -48v-170c0 -19.333 4.16699 -34.5 12.5 -45.5s22.166 -16.5 41.499 -16.5z
" />
    <glyph glyph-name="colon" unicode=":" horiz-adv-x="167" 
d="M116 392v-77h-67v77h67zM116 77v-77h-67v77h67z" />
    <glyph glyph-name="semicolon" unicode=";" horiz-adv-x="165" 
d="M116 392v-77h-67v77h67zM119 77l-32 -165h-38v165h70z" />
    <glyph glyph-name="less" unicode="&#x3c;" horiz-adv-x="291" 
d="M39 350l160 380h51l-160 -380l160 -380h-51z" />
    <glyph glyph-name="equal" unicode="=" horiz-adv-x="360" 
d="M49 181v46h260v-46h-260zM49 333v46h260v-46h-260z" />
    <glyph glyph-name="greater" unicode="&#x3e;" horiz-adv-x="291" 
d="M90 -30h-51l160 380l-160 380h51l160 -380z" />
    <glyph glyph-name="at" unicode="@" horiz-adv-x="523" 
d="M261 -110c-41.333 0 -75.666 6.16699 -102.999 18.5s-49 29.166 -65 50.499s-27.333 46.166 -34 74.499s-10 58.5 -10 90.5v251c0 32.667 3.33301 63.167 10 91.5s18.167 53.166 34.5 74.499s38.166 38.166 65.499 50.499s61.333 18.5 102 18.5
s74.5 -6.16699 101.5 -18.5s48.667 -29.166 65 -50.499s27.833 -46.166 34.5 -74.499s10 -58.833 10 -91.5v-251c0 -32 -3.33301 -62.167 -10 -90.5s-18 -53.166 -34 -74.499s-37.5 -38.166 -64.5 -50.499s-61.167 -18.5 -102.5 -18.5zM261 -69
c34 0 61.832 5.16699 83.499 15.5s38.667 24.333 51 42s21 38.167 26 61.5s7.5 48 7.5 74v251c0 26 -2.5 50.667 -7.5 74s-13.833 44 -26.5 62s-29.834 32.167 -51.501 42.5s-49.167 15.5 -82.5 15.5c-34 0 -61.833 -5.16699 -83.5 -15.5s-38.667 -24.5 -51 -42.5
s-21 -38.667 -26 -62s-7.5 -48 -7.5 -74v-251c0 -26 2.33301 -50.667 7 -74s13.334 -43.833 26.001 -61.5s29.834 -31.667 51.501 -42s49.5 -15.5 83.5 -15.5zM167.999 191c0 16 2.16406 29.9971 6.49707 41.9971s11.5 22.833 21.5 32.5s23.667 18.334 41 26.001
s39 15.167 65 22.5v57c0 15.333 -3.5 27.5 -10.5 36.5s-17.167 13.5 -30.5 13.5c-16 0 -27 -4.5 -33 -13.5s-9 -21.167 -9 -36.5v-22h-47v23c0 27.333 6.33301 49.166 19 65.499s36 24.5 70 24.5c17.333 0 31.666 -2.16699 42.999 -6.5s20.333 -10.5 27 -18.5
s11.334 -17.667 14.001 -29s4 -23.666 4 -36.999v-324h-34c-1.33301 4.66699 -3.16602 8.83398 -5.49902 12.501s-4.16602 7.83398 -5.49902 12.501c-10.667 -22.667 -30 -34 -58 -34c-29.333 0 -49.666 7.83301 -60.999 23.5s-17 38.167 -17 67.5v62zM301.996 277.997
c-18.667 -6 -33.667 -11.999 -45 -17.999s-20.166 -12.833 -26.499 -20.5s-10.5 -16.334 -12.5 -26.001s-3 -20.834 -3 -33.501v-51c0 -15.333 3.5 -27.666 10.5 -36.999s18.5 -14 34.5 -14c15.333 0 26.166 5.16699 32.499 15.5s9.5 22.5 9.5 36.5v148z" />
    <glyph glyph-name="A" unicode="A" horiz-adv-x="324" 
d="M296 0h-64l-19 160h-103l-19 -160h-64l96 700h78zM116 218h90l-44 386z" />
    <glyph glyph-name="B" unicode="B" horiz-adv-x="353" 
d="M62 700l113.999 -0.00195312c24 0 43.667 -2.33301 59 -7s27.5 -11.5 36.5 -20.5s15.167 -20.333 18.5 -34s5 -29.5 5 -47.5v-147c0 -23.333 -4.16699 -42.333 -12.5 -57s-22.166 -25.667 -41.499 -33c21.333 -7.33301 36.5 -18.666 45.5 -33.999
s13.5 -34.666 13.5 -57.999v-146c0 -18 -1.66699 -34.167 -5 -48.5s-9.33301 -26.5 -18 -36.5s-20.667 -17.667 -36 -23s-35 -8 -59 -8h-120v700zM177.999 59.998c23.333 0 39 4.83301 47 14.5s12 24.167 12 43.5v146c0 18 -4.16699 32.5 -12.5 43.5
s-23.833 16.5 -46.5 16.5h-53v-264h53zM124.999 638.998v-256.999h49c22.667 0 38.167 5.5 46.5 16.5s12.5 25.5 12.5 43.5v140c0 19.333 -4.16699 33.666 -12.5 42.999s-23.5 14 -45.5 14h-50z" />
    <glyph glyph-name="C" unicode="C" horiz-adv-x="329" 
d="M226 200l61 -0.00195312v-88c0 -36 -8.5 -65.333 -25.5 -88s-47.5 -34 -91.5 -34c-23.333 0 -42.5 3 -57.5 9s-27 14.333 -36 25s-15.333 23.5 -19 38.5s-5.5 31.5 -5.5 49.5v475c0 18 1.83301 34.5 5.5 49.5s10 28 19 39s21 19.5 36 25.5s34.167 9 57.5 9
c44 0 74.5 -11.5 91.5 -34.5s25.5 -52.5 25.5 -88.5v-77h-61v77c0 18 -4.33301 33.5 -13 46.5s-23 19.5 -43 19.5c-21.333 0 -35.833 -6.16699 -43.5 -18.5s-11.5 -28.166 -11.5 -47.499v-475c0 -18 4 -33.5 12 -46.5s22.333 -19.5 43 -19.5c21.333 0 36 6.33301 44 19
s12 28.334 12 47.001v88z" />
    <glyph glyph-name="D" unicode="D" horiz-adv-x="358" 
d="M177 60c23.333 0 39.166 5.33398 47.499 16.001s12.5 25.667 12.5 45v458c0 19.333 -4.16699 34.166 -12.5 44.499s-24.166 15.5 -47.499 15.5h-52v-579h52zM62 700.001h116c24 0 43.833 -3 59.5 -9s28.167 -14.167 37.5 -24.5s15.833 -23 19.5 -38s5.5 -31.5 5.5 -49.5
v-458c0 -18 -1.83301 -34.5 -5.5 -49.5s-10 -27.667 -19 -38s-21.167 -18.5 -36.5 -24.5s-35 -9 -59 -9h-118v700z" />
    <glyph glyph-name="E" unicode="E" horiz-adv-x="301" 
d="M125 60h136v-60h-199v700h199v-61h-136v-257h117v-58h-117v-264z" />
    <glyph glyph-name="F" unicode="F" horiz-adv-x="288" 
d="M62 0v700h193v-61h-130v-257h112v-58h-112v-324h-63z" />
    <glyph glyph-name="G" unicode="G" horiz-adv-x="346" 
d="M175 382l118 0.000976562v-270c0 -18 -1.83301 -34.5 -5.5 -49.5s-10 -27.833 -19 -38.5s-21.167 -19 -36.5 -25s-34.333 -9 -57 -9c-23.333 0 -42.5 3 -57.5 9s-27 14.333 -36 25s-15.333 23.5 -19 38.5s-5.5 31.5 -5.5 49.5v476c0 18 1.83301 34.5 5.5 49.5
s10 27.833 19 38.5s21 19 36 25s34.167 9 57.5 9c22.667 0 41.5 -3 56.5 -9s27 -14.333 36 -25s15.333 -23.5 19 -38.5s5.5 -31.5 5.5 -49.5v-78h-62v78c0 17.333 -4 32.5 -12 45.5s-22.333 19.5 -43 19.5c-21.333 0 -35.833 -6 -43.5 -18s-11.5 -27.667 -11.5 -47v-476
c0 -18 4 -33.5 12 -46.5s22.333 -19.5 43 -19.5c21.333 0 35.833 6.16699 43.5 18.5s11.5 28.166 11.5 47.499v212h-55v58z" />
    <glyph glyph-name="H" unicode="H" horiz-adv-x="364" 
d="M125 0h-63v700h63v-318h113v318h63v-700h-63v324h-113v-324z" />
    <glyph glyph-name="I" unicode="I" horiz-adv-x="188" 
d="M62 700h63v-700h-63v700z" />
    <glyph glyph-name="J" unicode="J" horiz-adv-x="322" 
d="M95 111c0 -18 3.49902 -33.332 10.499 -45.999s20.5 -19 40.5 -19c20.667 0 34.167 6 40.5 18s9.5 27.667 9.5 47v589h63v-589c0 -18 -1.66699 -34.5 -5 -49.5s-9.33301 -27.833 -18 -38.5s-20.167 -18.834 -34.5 -24.501s-32.833 -8.5 -55.5 -8.5
c-43.333 0 -73.166 11.167 -89.499 33.5s-24.5 51.5 -24.5 87.5v89h63v-89z" />
    <glyph glyph-name="K" unicode="K" horiz-adv-x="335" 
d="M125 380l116 320h70l-135 -347l141 -353h-69l-123 326v-326h-63v700h63v-320z" />
    <glyph glyph-name="L" unicode="L" horiz-adv-x="258" 
d="M62 700h63v-640h110v-60h-173v700z" />
    <glyph glyph-name="M" unicode="M" horiz-adv-x="480" 
d="M142 700l96.998 -595.002l98 595h80v-700h-60v239c0 18 0.333008 41.833 1 71.5s1.5 61.334 2.5 95.001s1.83301 66.667 2.5 99s1.33398 60.166 2.00098 83.499l-95 -588h-61l-95 588c0.666992 -23.333 1.33398 -51.166 2.00098 -83.499s1.5 -65.166 2.5 -98.499
s1.83301 -65 2.5 -95s1 -54 1 -72v-239h-60v700h80z" />
    <glyph glyph-name="N" unicode="N" horiz-adv-x="386" 
d="M117 546l4 -157.999c1.33301 -51.333 2 -105.333 2 -162v-226h-61v700h62l147 -547l-4 160c-1.33301 51.333 -2 104.666 -2 159.999v227h61v-700h-62l-147 546v0z" />
    <glyph glyph-name="O" unicode="O" horiz-adv-x="341" 
d="M170 46c21.333 0 35.833 6.16699 43.5 18.5s11.5 28.166 11.5 47.499v475c0 19.333 -3.83301 35.166 -11.5 47.499s-22.167 18.5 -43.5 18.5s-35.833 -6.16699 -43.5 -18.5s-11.5 -28.166 -11.5 -47.499v-475c0 -19.333 3.83301 -35.166 11.5 -47.499
s22.167 -18.5 43.5 -18.5zM170 710c22.667 0 41.667 -3 57 -9s27.5 -14.5 36.5 -25.5s15.333 -24 19 -39s5.5 -31.5 5.5 -49.5v-475c0 -18 -1.83301 -34.5 -5.5 -49.5s-10 -27.833 -19 -38.5s-21.167 -19 -36.5 -25s-34.333 -9 -57 -9c-23.333 0 -42.5 3 -57.5 9
s-27 14.333 -36 25s-15.333 23.5 -19 38.5s-5.5 31.5 -5.5 49.5v475c0 18 1.83301 34.5 5.5 49.5s10 28 19 39s21 19.5 36 25.5s34.167 9 57.5 9z" />
    <glyph glyph-name="P" unicode="P" horiz-adv-x="334" 
d="M62 700h114c24 0 43.667 -3 59 -9s27.5 -14.167 36.5 -24.5s15.333 -23 19 -38s5.5 -31.5 5.5 -49.5v-158c0 -34.667 -9.16699 -63.167 -27.5 -85.5s-49.833 -33.5 -94.5 -33.5h-49v-302h-63v700zM173 360c23.333 0 39.167 5.33398 47.5 16.001s12.5 25.667 12.5 45v158
c0 19.333 -4.5 34.166 -13.5 44.499s-24.5 15.5 -46.5 15.5h-48v-279h48z" />
    <glyph glyph-name="Q" unicode="Q" horiz-adv-x="341" 
d="M245 -91c-35.333 0 -60.833 7 -76.5 21s-24.167 34.667 -25.5 62c-35.333 4 -59.333 16.833 -72 38.5s-19 48.834 -19 81.501v475c0 18 1.83301 34.5 5.5 49.5s10 28 19 39s21 19.5 36 25.5s34.167 9 57.5 9c22.667 0 41.667 -3 57 -9s27.5 -14.5 36.5 -25.5
s15.333 -24 19 -39s5.5 -31.5 5.5 -49.5v-475c0 -32.667 -6.5 -59.834 -19.5 -81.501s-36.833 -34.5 -71.5 -38.5c0.666992 -15.333 4.5 -26.333 11.5 -33s19.167 -10 36.5 -10h22l-10 -40h-12zM170 46c21.333 0 35.833 6.16699 43.5 18.5s11.5 28.166 11.5 47.499v475
c0 19.333 -3.83301 35.166 -11.5 47.499s-22.167 18.5 -43.5 18.5s-35.833 -6.16699 -43.5 -18.5s-11.5 -28.166 -11.5 -47.499v-475c0 -19.333 3.83301 -35.166 11.5 -47.499s22.167 -18.5 43.5 -18.5z" />
    <glyph glyph-name="R" unicode="R" horiz-adv-x="348" 
d="M62 700h115c24 0 43.667 -3 59 -9s27.5 -14.167 36.5 -24.5s15.167 -23 18.5 -38s5 -31.5 5 -49.5v-158c0 -30 -5.83301 -55.167 -17.5 -75.5s-32.167 -33.5 -61.5 -39.5l113 -306h-70l-103 302h-32v-302h-63v700zM173 360c23.333 0 39.167 5.33398 47.5 16.001
s12.5 25.667 12.5 45v158c0 19.333 -4.5 34.166 -13.5 44.499s-24.5 15.5 -46.5 15.5h-48v-279h48z" />
    <glyph glyph-name="S" unicode="S" horiz-adv-x="329" 
d="M218 198c0 34 -4.16895 60.999 -12.502 80.999s-18.833 36.5 -31.5 49.5s-26.5 24.167 -41.5 33.5s-28.833 20.5 -41.5 33.5s-23.167 29.5 -31.5 49.5s-12.5 47.333 -12.5 82v60c0 18 1.66699 34.5 5 49.5s9.33301 28 18 39s20.667 19.5 36 25.5s34.666 9 57.999 9
s42.666 -3 57.999 -9s27.333 -14.5 36 -25.5s14.667 -24 18 -39s5 -31.5 5 -49.5v-77h-63v77c0 18 -3.66699 33.5 -11 46.5s-21.666 19.5 -42.999 19.5c-22 0 -36.5 -6.16699 -43.5 -18.5s-10.5 -28.166 -10.5 -47.499v-59c0 -28.667 4.16699 -51.334 12.5 -68.001
s18.833 -30.5 31.5 -41.5s26.5 -21.333 41.5 -31s28.833 -22 41.5 -37s23.167 -34.167 31.5 -57.5s12.5 -54.666 12.5 -93.999v-86c0 -18 -1.66699 -34.5 -5 -49.5s-9.33301 -28 -18 -39s-20.667 -19.5 -36 -25.5s-34.666 -9 -57.999 -9s-42.666 3 -57.999 9
s-27.333 14.5 -36 25.5s-14.667 24 -18 39s-5 31.5 -5 49.5v87h63v-87c0 -18.667 3.83301 -34.5 11.5 -47.5s21.834 -19.5 42.501 -19.5c22 0 36.5 6.33301 43.5 19s10.5 28.667 10.5 48v85z" />
    <glyph glyph-name="T" unicode="T" horiz-adv-x="275" 
d="M169 0h-63v639h-84v61h230v-61h-83v-639z" />
    <glyph glyph-name="U" unicode="U" horiz-adv-x="350" 
d="M120 113c0 -19.333 3.66602 -35.333 10.999 -48s22 -19 44 -19s36.5 6.33301 43.5 19s10.5 28.667 10.5 48v587h63v-587c0 -17.333 -1.83301 -33.5 -5.5 -48.5s-10 -28 -19 -39s-21 -19.667 -36 -26s-33.833 -9.5 -56.5 -9.5c-23.333 0 -42.666 3 -57.999 9
s-27.5 14.5 -36.5 25.5s-15.167 24 -18.5 39s-5 31.5 -5 49.5v587h63v-587z" />
    <glyph glyph-name="V" unicode="V" horiz-adv-x="324" 
d="M198 0h-73l-98 700h65l70 -580l69 580h65z" />
    <glyph glyph-name="W" unicode="W" horiz-adv-x="536" 
d="M267 574l-73 -574h-73l-89 700h64l62 -579l76 579h66l76 -579l62 579h64l-89 -700h-72z" />
    <glyph glyph-name="X" unicode="X" horiz-adv-x="318" 
d="M159 444l62 256h67l-97 -337l104 -363h-67l-69 281l-69 -281h-67l103 363l-96 337h67z" />
    <glyph glyph-name="Y" unicode="Y" horiz-adv-x="302" 
d="M119 0v291l-97 409h66l62 -318l63 318h66l-97 -409v-291h-63z" />
    <glyph glyph-name="Z" unicode="Z" horiz-adv-x="277" 
d="M32 0v40l141 599h-141v61h209v-40l-141 -600h144v-60h-212z" />
    <glyph glyph-name="bracketleft" unicode="[" horiz-adv-x="246" 
d="M69 730h126v-46h-73v-758h73v-46h-126v850z" />
    <glyph glyph-name="backslash" unicode="\" horiz-adv-x="268" 
d="M237 -30h-48l-160 760h48z" />
    <glyph glyph-name="bracketright" unicode="]" horiz-adv-x="246" 
d="M175 -120h-126v46h74v758h-74v46h126v-850z" />
    <glyph glyph-name="a" unicode="a" horiz-adv-x="313" 
d="M42 168c0 19.333 2.50195 36.5 7.50195 51.5s13.833 28.5 26.5 40.5s29.5 23.167 50.5 33.5s47.167 20.166 78.5 29.499v73c0 18.667 -3.83301 33.667 -11.5 45s-20.167 17 -37.5 17c-20 0 -33.333 -5.66699 -40 -17s-10 -26.666 -10 -45.999v-23h-59v24
c0 16.667 1.66699 32 5 46s9.16602 26 17.499 36s19.5 17.833 33.5 23.5s31.667 8.5 53 8.5s39 -2.83301 53 -8.5s25.167 -13.5 33.5 -23.5s14.166 -22 17.499 -36s5 -29.333 5 -46v-396h-35l-16 30c-6.66699 -13.333 -15.5 -23.333 -26.5 -30s-25.833 -10 -44.5 -10
c-36 0 -61.833 9.5 -77.5 28.5s-23.5 47.5 -23.5 85.5v64zM205.002 278c-21.333 -6.66699 -38.667 -13.665 -52 -20.998s-23.833 -15.333 -31.5 -24s-12.834 -18.334 -15.501 -29.001s-4 -22.334 -4 -35.001v-65c0 -19.333 3.83301 -34.5 11.5 -45.5
s21.167 -16.5 40.5 -16.5c18.667 0 31.834 5.83301 39.501 17.5s11.5 26.5 11.5 44.5v174z" />
    <glyph glyph-name="b" unicode="b" horiz-adv-x="323" 
d="M52 0v709.999h60v-236c6.66699 10.667 15.834 19.334 27.501 26.001s25.167 10 40.5 10c35.333 0 60 -9.5 74 -28.5s21 -48.167 21 -87.5v-289c0 -38.667 -7.16699 -67.5 -21.5 -86.5s-39.5 -28.5 -75.5 -28.5c-34.667 0 -59.334 13.667 -74.001 41l-16 -31h-36z
M112 105.999c0 -19.333 4 -34.834 12 -46.501s21.667 -17.5 41 -17.5c18.667 0 31.667 5.83301 39 17.5s11 27.167 11 46.5v288c0 19.333 -3.66699 34.833 -11 46.5s-20.333 17.5 -39 17.5c-19.333 0 -33 -6.16699 -41 -18.5s-12 -28.166 -12 -47.499v-286z" />
    <glyph glyph-name="c" unicode="c" horiz-adv-x="312" 
d="M269 172l0.000976562 -65.999c0 -35.333 -7.5 -63.5 -22.5 -84.5s-44.167 -31.5 -87.5 -31.5c-22 0 -40.167 2.83301 -54.5 8.5s-25.833 13.5 -34.5 23.5s-14.667 22.167 -18 36.5s-5 30.166 -5 47.499v287c0 17.333 1.83301 33.166 5.5 47.499
s9.83398 26.666 18.501 36.999s20.167 18.333 34.5 24s32.166 8.5 53.499 8.5c22 0 40 -2.83301 54 -8.5s25.167 -13.667 33.5 -24s14.166 -22.666 17.499 -36.999s5 -30.166 5 -47.499v-55h-59v55c0 21.333 -3.66699 37.5 -11 48.5s-20.666 16.5 -39.999 16.5
s-32.833 -5.5 -40.5 -16.5s-11.5 -27.167 -11.5 -48.5v-287c0 -20.667 3.83301 -36.5 11.5 -47.5s21.167 -16.5 40.5 -16.5s32.666 5.5 39.999 16.5s11 26.833 11 47.5v66h59z" />
    <glyph glyph-name="d" unicode="d" 
d="M239 0l-16 31.001c-14.667 -27.333 -39.334 -41 -74.001 -41c-36 0 -61.167 9.5 -75.5 28.5s-21.5 47.833 -21.5 86.5v289c0 39.333 7 68.5 21 87.5s38.667 28.5 74 28.5c15.333 0 28.833 -3.33301 40.5 -10s20.834 -15.334 27.501 -26.001v236h60v-710h-36zM215 392.001
c0 19.333 -4 35.167 -12 47.5s-21.667 18.5 -41 18.5c-18.667 0 -31.667 -5.83301 -39 -17.5s-11 -27.167 -11 -46.5v-288c0 -19.333 3.66699 -34.833 11 -46.5s20.333 -17.5 39 -17.5c19.333 0 33 5.83301 41 17.5s12 27.167 12 46.5v286z" />
    <glyph glyph-name="e" unicode="e" horiz-adv-x="317" 
d="M269 172l0.00292969 -65.999c0 -35.333 -7.5 -63.5 -22.5 -84.5s-44.167 -31.5 -87.5 -31.5c-22 0 -40.167 2.83301 -54.5 8.5s-25.833 13.5 -34.5 23.5s-14.667 22.167 -18 36.5s-5 30.166 -5 47.499v287c0 17.333 1.83301 33.166 5.5 47.499s9.66699 26.666 18 36.999
s19.666 18.333 33.999 24s32.5 8.5 54.5 8.5s40 -2.83301 54 -8.5s25.167 -13.667 33.5 -24s14.166 -22.666 17.499 -36.999s5 -30.166 5 -47.499v-145h-162v-142c0 -42.667 17.333 -64 52 -64c19.333 0 32.666 5.5 39.999 16.5s11 26.833 11 47.5v66h59zM210.003 392.001
c0 21.333 -3.66797 37.667 -11.001 49s-20.666 17 -39.999 17s-32.833 -5.5 -40.5 -16.5s-11.5 -27.167 -11.5 -48.5v-98h103v97z" />
    <glyph glyph-name="f" unicode="f" horiz-adv-x="231" 
d="M174 720c14.667 0 27.667 -2 39 -6v-53c-9.33301 4.66699 -21.666 7 -36.999 7c-18.667 0 -31.334 -4.5 -38.001 -13.5s-10 -24.5 -10 -46.5v-108h73v-53h-73v-447h-60v447h-46v53h46v108c0 36.667 7.16699 64.5 21.5 83.5s42.5 28.5 84.5 28.5z" />
    <glyph glyph-name="g" unicode="g" horiz-adv-x="324" 
d="M155 113c-27.333 0 -41.001 -9.33203 -41.001 -27.999s13.667 -28 41 -28c46.667 0 79.167 -10 97.5 -30s27.5 -46.667 27.5 -80v-9c0 -30.667 -9.16699 -56.334 -27.5 -77.001s-50.5 -31 -96.5 -31c-45.333 0 -77.333 10 -96 30s-28 46 -28 78v9
c0 23.333 4.66699 43.666 14 60.999s25.666 30.333 48.999 39c-17.333 8 -26 20.667 -26 38s9.33301 30 28 38c-20.667 8.66699 -34.667 22.167 -42 40.5s-11 40.5 -11 66.5v162c0 17.333 1.66699 33.333 5 48s9.33301 27.167 18 37.5s20 18.333 34 24s32 8.5 54 8.5
c9.33301 0 17.833 -0.666992 25.5 -2s14.834 -3 21.501 -5c6.66699 19.333 16 33.833 28 43.5s26 14.5 42 14.5c11.333 0 21 -1.33301 29 -4v-47l-14.5 3.5c-4.33301 1 -10.166 1.5 -17.499 1.5c-18.667 0 -32.334 -8 -41.001 -24c14.667 -10 24.834 -23.5 30.501 -40.5
s8.5 -36.5 8.5 -58.5v-162c0 -35.333 -7.83301 -63.666 -23.5 -84.999s-45.167 -32 -88.5 -32zM154.999 458.001c-20.667 0 -34.332 -5.83496 -40.999 -17.502s-10 -29.167 -10 -52.5v-160c0 -21.333 3.66699 -37.666 11 -48.999s20.666 -17 39.999 -17
s32.833 5.33301 40.5 16s11.5 28.667 11.5 54v160c0 20.667 -3.83301 36.834 -11.5 48.501s-21.167 17.5 -40.5 17.5zM156.001 13.999c-23.333 0 -40 -5.33301 -50 -16s-15 -26 -15 -46v-9c0 -40.667 21.667 -61 65 -61c23.333 0 40 5.16699 50 15.5s15 25.5 15 45.5v9
c0 20.667 -5 36.167 -15 46.5s-26.667 15.5 -50 15.5z" />
    <glyph glyph-name="h" unicode="h" 
d="M52 0l-0.000976562 710.001h60v-237c6.66699 11.333 15.834 20.333 27.501 27s24.834 10 39.501 10c35.333 0 60.166 -9.5 74.499 -28.5s21.5 -47.833 21.5 -86.5v-395h-60v395c0 19.333 -3.66699 34.666 -11 45.999s-20.333 17 -39 17c-19.333 0 -33 -5.83301 -41 -17.5
s-12 -27.167 -12 -46.5v-394h-60z" />
    <glyph glyph-name="i" unicode="i" horiz-adv-x="163" 
d="M111 500v-500h-60v500h60zM111 659v-74h-61v74h61z" />
    <glyph glyph-name="j" unicode="j" horiz-adv-x="161" 
d="M49 500l60 0.000976562v-558c0 -36.667 -7.33301 -64.5 -22 -83.5s-43 -28.5 -85 -28.5c-6 0 -12.5 0.5 -19.5 1.5s-13.167 2.5 -18.5 4.5v53c9.33301 -4.66699 21.333 -7 36 -7c18.667 0 31.5 4.66699 38.5 14s10.5 24.666 10.5 45.999v558zM109 659.001v-74h-61v74h61z
" />
    <glyph glyph-name="k" unicode="k" horiz-adv-x="298" 
d="M112 282l97 218h66l-113 -241l123 -259h-67l-106 234v-234h-60v710h60v-428z" />
    <glyph glyph-name="l" unicode="l" horiz-adv-x="165" 
d="M112 710v-710h-60v710h60z" />
    <glyph glyph-name="m" unicode="m" horiz-adv-x="487" 
d="M214 395c0 17.333 -3.33496 32.165 -10.002 44.498s-19.667 18.5 -39 18.5c-18.667 0 -32.167 -5.66699 -40.5 -17s-12.5 -26.666 -12.5 -45.999v-395h-60v500h36l16 -32c16.667 28 42 42 76 42c20.667 0 37.334 -3.66699 50.001 -11s22.334 -17.666 29.001 -30.999
c7.33301 12 18 22 32 30s31 12 51 12c34.667 0 59 -9.66699 73 -29s21 -47 21 -83v-398h-60v395c0 18 -3.33301 33 -10 45s-19.667 18 -39 18c-18 0 -31.333 -5.5 -40 -16.5s-13 -26.167 -13 -45.5v-396h-60v395z" />
    <glyph glyph-name="n" unicode="n" 
d="M52 0l0.00195312 500.002h36l16 -32c7.33301 13.333 17.166 23.666 29.499 30.999s27.166 11 44.499 11c36 0 61.167 -9.5 75.5 -28.5s21.5 -47.833 21.5 -86.5v-395h-60v395c0 19.333 -3.66699 34.666 -11 45.999s-20.333 17 -39 17c-19.333 0 -33 -5.66699 -41 -17
s-12 -27 -12 -47v-394h-60z" />
    <glyph glyph-name="o" unicode="o" horiz-adv-x="318" 
d="M159 510c21.333 0 39.167 -2.83203 53.5 -8.49902s25.666 -13.667 33.999 -24s14.333 -22.666 18 -36.999s5.5 -30.166 5.5 -47.499v-287c0 -35.333 -7.66699 -63.5 -23 -84.5s-44.666 -31.5 -87.999 -31.5c-22 0 -40.167 2.83301 -54.5 8.5s-25.833 13.5 -34.5 23.5
s-14.667 22.167 -18 36.5s-5 30.166 -5 47.499v287c0 17.333 1.83301 33.166 5.5 47.499s9.83398 26.666 18.501 36.999s20.167 18.333 34.5 24s32.166 8.5 53.499 8.5zM159.001 42.001c19.333 0 32.666 5.5 39.999 16.5s11 26.833 11 47.5v287
c0 21.333 -3.66699 37.5 -11 48.5s-20.666 16.5 -39.999 16.5s-32.833 -5.5 -40.5 -16.5s-11.5 -27.167 -11.5 -48.5v-287c0 -20.667 3.83301 -36.5 11.5 -47.5s21.167 -16.5 40.5 -16.5z" />
    <glyph glyph-name="p" unicode="p" 
d="M88 500l16 -32.001c14.667 28 39.334 42 74.001 42c36 0 61.167 -9.83301 75.5 -29.5s21.5 -48.167 21.5 -85.5v-289c0 -39.333 -7.16699 -68.5 -21.5 -87.5s-38.833 -28.5 -73.5 -28.5c-15.333 0 -28.833 3.33301 -40.5 10s-20.834 15.334 -27.501 26.001v-186h-60v660
h36zM112 131.999c0 -12.667 0.666992 -24.5 2 -35.5s3.83301 -20.5 7.5 -28.5s9 -14.333 16 -19s16.167 -7 27.5 -7c18.667 0 31.667 5.83301 39 17.5s11 27.167 11 46.5v288c0 19.333 -3.66699 34.833 -11 46.5s-20.333 17.5 -39 17.5c-19.333 0 -33 -5.83301 -41 -17.5
s-12 -27.5 -12 -47.5v-261z" />
    <glyph glyph-name="q" unicode="q" 
d="M275 500v-659.999h-60v186c-6.66699 -10.667 -15.834 -19.334 -27.501 -26.001s-25.167 -10 -40.5 -10c-35.333 0 -60 9.5 -74 28.5s-21 48.167 -21 87.5v289c0 38.667 7.16699 67.5 21.5 86.5s39.5 28.5 75.5 28.5c34.667 0 59.334 -14 74.001 -42l16 32h36z
M215 393.001c0 20 -4 35.833 -12 47.5s-21.667 17.5 -41 17.5c-18.667 0 -31.667 -5.83301 -39 -17.5s-11 -27.167 -11 -46.5v-288c0 -19.333 3.66699 -34.833 11 -46.5s20.333 -17.5 39 -17.5c19.333 0 33 6 41 18s12 28 12 48v285z" />
    <glyph glyph-name="r" unicode="r" horiz-adv-x="212" 
d="M189 451c-28 2.66699 -47.8311 -3.16699 -59.498 -17.5s-17.5 -34.833 -17.5 -61.5v-372h-60v500h42l15 -31c7.33301 13.333 17.166 24 29.499 32s29.166 12 50.499 12v-62z" />
    <glyph glyph-name="s" unicode="s" horiz-adv-x="301" 
d="M42 395c0 17.333 1.66797 33.168 5.00098 47.501s9.16602 26.5 17.499 36.5s19.5 17.667 33.5 23s31.333 8 52 8c42 0 70.5 -10.333 85.5 -31s22.5 -48.667 22.5 -84v-57h-59v57c0 22.667 -3.83301 38.834 -11.5 48.501s-20.167 14.5 -37.5 14.5s-29.833 -5 -37.5 -15
s-11.5 -26 -11.5 -48v-19c0 -20.667 3.83301 -37.334 11.5 -50.001s17.334 -23.5 29.001 -32.5s24.334 -17.167 38.001 -24.5s26.334 -16 38.001 -26s21.334 -22.833 29.001 -38.5s11.5 -35.834 11.5 -60.501v-40c0 -17.333 -1.66699 -33 -5 -47s-9 -26 -17 -36
s-19 -17.667 -33 -23s-31.667 -8 -53 -8s-39 2.66699 -53 8s-25 13 -33 23s-13.667 22 -17 36s-5 29.667 -5 47v68h59v-68c0 -22.667 3.83301 -38.667 11.5 -48s20.167 -14 37.5 -14s29.833 4.83301 37.5 14.5s11.5 25.5 11.5 47.5v38c0 20 -3.83301 36.167 -11.5 48.5
s-17.334 22.833 -29.001 31.5s-24.334 16.667 -38.001 24s-26.334 16.333 -38.001 27s-21.334 24 -29.001 40s-11.5 37 -11.5 63v19z" />
    <glyph glyph-name="t" unicode="t" horiz-adv-x="242" 
d="M22 500l49 -0.000976562v131c10.667 3.33301 20.834 6 30.501 8s19.5 4.66699 29.5 8v-147h79v-53h-79v-346c0 -20.667 3.33301 -35.667 10 -45s18.667 -14 36 -14c7.33301 0 13.666 0.5 18.999 1.5s11.333 2.83301 18 5.5v-51c-4.66699 -2 -11 -3.83301 -19 -5.5
s-15 -2.5 -21 -2.5c-40 0 -67.167 9.33301 -81.5 28s-21.5 46.334 -21.5 83.001v346h-49v53z" />
    <glyph glyph-name="u" unicode="u" 
d="M275 500l0.000976562 -500h-35l-16 32c-14.667 -28 -39.667 -42 -75 -42s-60.333 9.5 -75 28.5s-22 47.833 -22 86.5v395h60v-395c0 -19.333 3.66699 -34.666 11 -45.999s20.666 -17 39.999 -17s32.833 5.66699 40.5 17s11.5 26.666 11.5 45.999v395h60z" />
    <glyph glyph-name="v" unicode="v" horiz-adv-x="293" 
d="M178 0h-64l-92 500h62l62 -408l62 408h62z" />
    <glyph glyph-name="w" unicode="w" horiz-adv-x="469" 
d="M235 400l-61 -400h-68l-80 500h62l54 -413l30.5 206l31.5 207h62l30.5 -207l31.5 -206l54 413h61l-79 -500h-69z" />
    <glyph glyph-name="x" unicode="x" horiz-adv-x="289" 
d="M173 252l98 -252h-63l-64 188l-64 -188h-63l97 252l-92 248h63l59 -185l59 185h63z" />
    <glyph glyph-name="y" unicode="y" horiz-adv-x="301" 
d="M56 -170c-6 0 -12.833 0.5 -20.5 1.5s-13.834 2.16699 -18.501 3.5v54c11.333 -4.66699 24.333 -7 39 -7c29.333 0 48 19.333 56 58l11 59l-98 501h62l65 -391l64 391h62l-108 -562c-7.33301 -38 -19.166 -65.5 -35.499 -82.5s-42.5 -25.5 -78.5 -25.5z" />
    <glyph glyph-name="z" unicode="z" horiz-adv-x="262" 
d="M32 0v37l128 410h-123v53h187v-38l-127 -409h132v-53h-197z" />
    <glyph glyph-name="braceleft" unicode="{" horiz-adv-x="274" 
d="M130 238c0 14.667 -3.5 25.667 -10.5 33s-19.167 11 -36.5 11h-34v46h34c17.333 0 29.5 3.66699 36.5 11s10.5 18 10.5 32c0 26.667 -2.66699 51 -8 73s-11.166 43 -17.499 63s-12.166 40.167 -17.499 60.5s-8 42.833 -8 67.5c0 34 9.83301 58.333 29.5 73
s50.5 22 92.5 22h23v-46h-23c-25.333 0 -43 -4.5 -53 -13.5s-15 -24.5 -15 -46.5c0 -21.333 2.16699 -42 6.5 -62s9.16602 -40.167 14.499 -60.5s10.166 -41 14.499 -62s6.5 -42.833 6.5 -65.5c0 -36.667 -12.333 -59.667 -37 -69c24.667 -11.333 37 -34.666 37 -69.999
c0 -23.333 -2.16699 -45.333 -6.5 -66s-9.16602 -41.167 -14.499 -61.5s-10.166 -40.5 -14.499 -60.5s-6.5 -40.667 -6.5 -62c0 -22 5 -37.333 15 -46s27.667 -13 53 -13h23v-46h-23c-42 0 -72.833 7.33301 -92.5 22s-29.5 39 -29.5 73c0 24.667 2.66699 47.167 8 67.5
s11.166 40.5 17.499 60.5s12.166 40.667 17.499 62s8 45.666 8 72.999z" />
    <glyph glyph-name="bar" unicode="|" horiz-adv-x="188" 
d="M69 730h48v-850h-48v850z" />
    <glyph glyph-name="braceright" unicode="}" horiz-adv-x="274" 
d="M143 238c0 -27.333 2.66699 -51.666 8 -72.999s11.166 -42 17.499 -62s12.166 -40.167 17.499 -60.5s8 -42.833 8 -67.5c0 -34 -9.83301 -58.333 -29.5 -73s-50.5 -22 -92.5 -22h-23v46h23c25.333 0 43 4.33301 53 13s15 24 15 46c0 21.333 -2.16699 42 -6.5 62
s-9.16602 40.167 -14.499 60.5s-10.166 40.833 -14.499 61.5s-6.5 42.667 -6.5 66c0 35.333 12.333 58.666 37 69.999c-24.667 9.33301 -37 32.333 -37 69c0 22.667 2.16699 44.5 6.5 65.5s9.16602 41.667 14.499 62s10.166 40.5 14.499 60.5s6.5 40.667 6.5 62
c0 22 -5 37.5 -15 46.5s-27.667 13.5 -53 13.5h-23v46h23c42 0 72.833 -7.33301 92.5 -22s29.5 -39 29.5 -73c0 -24.667 -2.66699 -47.167 -8 -67.5s-11.166 -40.5 -17.499 -60.5s-12.166 -41 -17.499 -63s-8 -46.333 -8 -73c0 -14 3.5 -24.667 10.5 -32
s19.167 -11 36.5 -11h34v-46h-34c-17.333 0 -29.5 -3.66699 -36.5 -11s-10.5 -18.333 -10.5 -33z" />
    <glyph glyph-name="exclamdown" unicode="&#xa1;" horiz-adv-x="179" 
d="M53 423v77h72v-77h-72zM50 -200l17 470h44l16 -470h-77z" />
    <glyph glyph-name="cent" unicode="&#xa2;" horiz-adv-x="341" 
d="M281 282v-66c0 -32.667 -6.33301 -59.334 -19 -80.001s-36.334 -32.667 -71.001 -36v-100h-41v100c-35.333 3.33301 -59.333 15.333 -72 36s-19 47.334 -19 80.001v287c0 32 6.33301 58.5 19 79.5s36.667 33.167 72 36.5v81h41v-81
c34.667 -3.33301 58.334 -15.5 71.001 -36.5s19 -47.5 19 -79.5v-55h-59v55c0 21.333 -3.66699 37.5 -11 48.5s-20.666 16.5 -39.999 16.5s-32.833 -5.5 -40.5 -16.5s-11.5 -27.167 -11.5 -48.5v-287c0 -20.667 3.83301 -36.5 11.5 -47.5s21.167 -16.5 40.5 -16.5
s32.666 5.5 39.999 16.5s11 26.833 11 47.5v66h59z" />
    <glyph glyph-name="sterling" unicode="&#xa3;" horiz-adv-x="382" 
d="M40 372h57.9971v215c0 18 1.66699 34.5 5 49.5s9.5 28 18.5 39s21.167 19.5 36.5 25.5s34.666 9 57.999 9c22 0 40.5 -3 55.5 -9s26.833 -14.5 35.5 -25.5s14.834 -24 18.501 -39s5.5 -31.5 5.5 -49.5v-77h-61v77c0 19.333 -3.5 35.166 -10.5 47.499
s-21.5 18.5 -43.5 18.5s-36.667 -6.16699 -44 -18.5s-11 -28.166 -11 -47.499v-215h77v-37h-77v-213c0 -19.333 4.16699 -34.5 12.5 -45.5s23.5 -16.5 45.5 -16.5h113v-60h-113c-45.333 0 -75.666 14.667 -90.999 44c-7.33301 -14.667 -18.166 -25.667 -32.499 -33
s-33.166 -11 -56.499 -11v60c22 0 37.333 5.5 46 16.5s13 26.167 13 45.5v213h-58v37z" />
    <glyph glyph-name="currency" unicode="&#xa4;" horiz-adv-x="314" 
d="M167 538c-19.333 0 -32.666 -5.5 -39.999 -16.5s-11 -27.167 -11 -48.5v-227c0 -20.667 3.66699 -36.5 11 -47.5s20.666 -16.5 39.999 -16.5s32.833 5.5 40.5 16.5s11.5 26.833 11.5 47.5v227c0 21.333 -3.83301 37.5 -11.5 48.5s-21.167 16.5 -40.5 16.5zM130 585
c12 3.33301 24.332 5 36.999 5c13.333 0 25.666 -1.66699 36.999 -5l32 115h59l-41 -140c9.33301 -10.667 15.833 -23.334 19.5 -38.001s5.5 -31 5.5 -49v-227c0 -18 -1.66699 -34.333 -5 -49s-9.66602 -27 -18.999 -37l47 -160h-59l-37 135
c-11.333 -3.33301 -24.333 -5 -39 -5c-14 0 -26.667 1.66699 -38 5l-36 -135h-59l46 160c-9.33301 10 -15.666 22.333 -18.999 37s-5 31 -5 49v227c0 18 1.83301 34.333 5.5 49s10.167 27.334 19.5 38.001l-40 140h59z" />
    <glyph glyph-name="yen" unicode="&#xa5;" horiz-adv-x="337" 
d="M136 268v21l-49 205.5l-48 205.5h66l62 -325l63 325h66l-97 -411v-21h82v-37h-82v-70h82v-37h-82v-124h-63v124h-80v37h80v70h-80v37h80z" />
    <glyph glyph-name="brokenbar" unicode="&#xa6;" horiz-adv-x="188" 
d="M69 258h48v-378h-48v378zM69 730h48v-378h-48v378z" />
    <glyph glyph-name="section" unicode="&#xa7;" horiz-adv-x="329" 
d="M279 259c0 -14.667 -0.496094 -29.1621 -1.49609 -43.4951s-3.5 -27.833 -7.5 -40.5s-9.66699 -24 -17 -34s-17.333 -18 -30 -24c15.333 -11.333 28.333 -26.833 39 -46.5s16 -48.834 16 -87.501v-30c0 -18 -1.83301 -34.5 -5.5 -49.5s-9.83398 -28 -18.501 -39
s-20.334 -19.5 -35.001 -25.5s-33 -9 -55 -9c-22.667 0 -41.334 3 -56.001 9s-26.334 14.5 -35.001 25.5s-14.834 24 -18.501 39s-5.5 31.5 -5.5 49.5v67h63v-67c0 -21.333 3.5 -37.666 10.5 -48.999s20.833 -17 41.5 -17c21.333 0 35.166 5.66699 41.499 17
s9.5 27.666 9.5 48.999v32c0 27.333 -4.16699 48.333 -12.5 63s-18.5 26.667 -30.5 36s-25.333 17.666 -40 24.999s-28 17.666 -40 30.999s-22.167 31.333 -30.5 54s-12.5 54 -12.5 94c0 14 0.666992 27.667 2 41s4 26 8 38s9.5 22.667 16.5 32s16.5 17 28.5 23
c-15.333 10.667 -28.333 26 -39 46s-16 49.667 -16 89v30c0 18 1.83301 34.5 5.5 49.5s9.83398 28 18.501 39s20.334 19.5 35.001 25.5s33.334 9 56.001 9s41.334 -3 56.001 -9s26.334 -14.5 35.001 -25.5s14.667 -24 18 -39s5 -31.5 5 -49.5v-67h-63v67
c0 19.333 -3.16699 35.166 -9.5 47.499s-20.166 18.5 -41.499 18.5s-35.333 -6.16699 -42 -18.5s-10 -28.166 -10 -47.499v-32c0 -28 4.16699 -49.333 12.5 -64s18.666 -26.667 30.999 -36s25.666 -17.5 39.999 -24.5s27.666 -16.833 39.999 -29.5
s22.666 -29.834 30.999 -51.501s12.5 -51.834 12.5 -90.501zM215.004 238.005c0 24.667 -1.3291 45.334 -3.99609 62.001s-6.66699 30.5 -12 41.5s-11.666 20.167 -18.999 27.5s-16 14 -26 20c-10 -3.33301 -17.833 -8.66602 -23.5 -15.999s-9.83398 -15.5 -12.501 -24.5
s-4.33398 -18.667 -5.00098 -29s-1 -19.833 -1 -28.5c0 -22.667 1.5 -41.834 4.5 -57.501s7.16699 -28.834 12.5 -39.501s11.666 -19.5 18.999 -26.5s15.666 -13.5 24.999 -19.5c9.33301 2.66699 16.666 7.33398 21.999 14.001s9.5 14.167 12.5 22.5s5 17.166 6 26.499
s1.5 18.333 1.5 27z" />
    <glyph glyph-name="copyright" unicode="&#xa9;" horiz-adv-x="529" 
d="M264 178c16 0 27 4.49805 33 13.498s9 21.167 9 36.5v63h46v-64c0 -27.333 -6 -49.166 -18 -65.499s-35.333 -24.5 -70 -24.5s-58 8.33301 -70 25s-18 38.667 -18 66v243c0 27.333 6 49.333 18 66s35.333 25 70 25s58 -8.16699 70 -24.5s18 -38.166 18 -65.499v-53h-46
v52c0 15.333 -3 27.5 -9 36.5s-17 13.5 -33 13.5c-16.667 0 -27.667 -4.5 -33 -13.5s-8 -21.167 -8 -36.5v-243c0 -15.333 2.66699 -27.5 8 -36.5s16.333 -13.5 33 -13.5zM264 -10.002c-42 0 -76.833 6.16699 -104.5 18.5s-49.667 29.166 -66 50.499
s-27.833 46.166 -34.5 74.499s-10 58.5 -10 90.5v251c0 32.667 3.5 63.167 10.5 91.5s18.667 53.166 35 74.499s38.333 38.166 66 50.499s62.167 18.5 103.5 18.5s75.666 -6.16699 102.999 -18.5s49.333 -29.166 66 -50.499s28.334 -46.166 35.001 -74.499
s10 -58.833 10 -91.5v-251c0 -32 -3.33301 -62.167 -10 -90.5s-18 -53.166 -34 -74.499s-37.833 -38.166 -65.5 -50.499s-62.5 -18.5 -104.5 -18.5zM264 29.998c34 0 62.167 5.16699 84.5 15.5s39.833 24.5 52.5 42.5s21.5 38.667 26.5 62s7.5 48 7.5 74v251
c0 26 -2.5 50.667 -7.5 74s-14 44 -27 62s-30.5 32.167 -52.5 42.5s-50 15.5 -84 15.5s-62.167 -5.16699 -84.5 -15.5s-39.833 -24.5 -52.5 -42.5s-21.5 -38.667 -26.5 -62s-7.5 -48 -7.5 -74v-251c0 -26 2.5 -50.667 7.5 -74s13.833 -44 26.5 -62s30 -32.167 52 -42.5
s50.333 -15.5 85 -15.5z" />
    <glyph glyph-name="ordfeminine" unicode="&#xaa;" horiz-adv-x="279" 
d="M49 440c0 16 1.99707 29.999 5.99707 41.999s11.167 22.833 21.5 32.5s24 18.334 41 26.001s38.5 15.167 64.5 22.5v56c0 14.667 -3 26.667 -9 36s-16.667 14 -32 14c-16 0 -27 -4.33301 -33 -13s-9 -20.667 -9 -36v-22h-46v22c0 27.333 6 49.166 18 65.499
s35.333 24.5 70 24.5c18 0 32.667 -2.16699 44 -6.5s20.333 -10.5 27 -18.5s11.167 -17.667 13.5 -29s3.5 -23.666 3.5 -36.999v-323h-34c-1.33301 4 -3.16602 8 -5.49902 12s-4.16602 8 -5.49902 12c-5.33301 -10.667 -12.666 -19 -21.999 -25s-21.333 -9 -36 -9
c-29.333 0 -49.5 7.83301 -60.5 23.5s-16.5 38.5 -16.5 68.5v62zM181.997 525.999c-18 -5.33301 -32.667 -11.167 -44 -17.5s-20.166 -13.166 -26.499 -20.499s-10.5 -15.833 -12.5 -25.5s-3 -20.834 -3 -33.501v-51c0 -15.333 3.33301 -27.833 10 -37.5s18 -14.5 34 -14.5
c15.333 0 26.166 5.16699 32.499 15.5s9.5 22.5 9.5 36.5v148zM53.9971 194.998v39h175v-39h-175z" />
    <glyph glyph-name="guillemotleft" unicode="&#xab;" horiz-adv-x="389" 
d="M145 435h61l-105 -185l105 -185h-61l-106 185zM288 435h60l-104 -185l104 -185h-60l-106 185z" />
    <glyph glyph-name="logicalnot" unicode="&#xac;" horiz-adv-x="360" 
d="M309 364v-168h-46v122h-214v46h260z" />
    <glyph glyph-name="registered" unicode="&#xae;" horiz-adv-x="529" 
d="M264 -10c-42 0 -76.833 6.16699 -104.5 18.5s-49.667 29.166 -66 50.499s-27.833 46.166 -34.5 74.499s-10 58.5 -10 90.5v251c0 32.667 3.5 63.167 10.5 91.5s18.667 53.166 35 74.499s38.333 38.166 66 50.499s62.167 18.5 103.5 18.5s75.666 -6.16699 102.999 -18.5
s49.333 -29.166 66 -50.499s28.334 -46.166 35.001 -74.499s10 -58.833 10 -91.5v-251c0 -32 -3.33301 -62.167 -10 -90.5s-18 -53.166 -34 -74.499s-37.833 -38.166 -65.5 -50.499s-62.5 -18.5 -104.5 -18.5zM264 30c34 0 62.167 5.16699 84.5 15.5s39.833 24.5 52.5 42.5
s21.5 38.667 26.5 62s7.5 48 7.5 74v251c0 26 -2.5 50.667 -7.5 74s-14 44 -27 62s-30.5 32.167 -52.5 42.5s-50 15.5 -84 15.5s-62.167 -5.16699 -84.5 -15.5s-39.833 -24.5 -52.5 -42.5s-21.5 -38.667 -26.5 -62s-7.5 -48 -7.5 -74v-251c0 -26 2.5 -50.667 7.5 -74
s13.833 -44 26.5 -62s30 -32.167 52 -42.5s50.333 -15.5 85 -15.5zM178 556l85 0.000976562c36 0 60 -8.33301 72 -25s18 -38.334 18 -65.001v-65c0 -47.333 -19.333 -75 -58 -83l76 -172h-49l-71 168h-27v-168h-46v410zM262 357.001c18 0 30.001 3.83398 36.001 11.501
s9 18.5 9 32.5v65c0 13.333 -3.33301 24.166 -10 32.499s-18.334 12.5 -35.001 12.5h-38v-154h38z" />
    <glyph glyph-name="degree" unicode="&#xb0;" horiz-adv-x="246" 
d="M122 494c-33.333 0 -55.5 10 -66.5 30s-16.5 46 -16.5 78s5.5 58 16.5 78s33.167 30 66.5 30s55.5 -10 66.5 -30s16.5 -46 16.5 -78s-5.5 -58 -16.5 -78s-33.167 -30 -66.5 -30zM122 532c17.333 0 28.833 6.33301 34.5 19s8.5 29.667 8.5 51
c0 20.667 -2.83301 37.334 -8.5 50.001s-17.167 19 -34.5 19s-28.666 -6.33301 -33.999 -19s-8 -29.334 -8 -50.001c0 -21.333 2.66699 -38.333 8 -51s16.666 -19 33.999 -19z" />
    <glyph glyph-name="plusminus" unicode="&#xb1;" horiz-adv-x="382" 
d="M332 136v-46h-283v46h283zM49 361h118v122h47v-122h118v-46h-118v-122h-47v122h-118v46z" />
    <glyph glyph-name="mu" unicode="&#xb5;" horiz-adv-x="323" 
d="M109 500l0.000976562 -394.999c0 -19.333 4 -34.666 12 -45.999s21.667 -17 41 -17c18.667 0 31.667 5.66699 39 17s11 26.666 11 45.999v395h60v-395c0 -38.667 -7.16699 -67.5 -21.5 -86.5s-39.166 -28.5 -74.499 -28.5c-14.667 0 -27.834 3.16699 -39.501 9.5
s-20.834 15.166 -27.501 26.499v-186h-60v660h60z" />
    <glyph glyph-name="mu" unicode="&#x3bc;" horiz-adv-x="323" 
d="M109 500l0.000976562 -394.999c0 -19.333 4 -34.666 12 -45.999s21.667 -17 41 -17c18.667 0 31.667 5.66699 39 17s11 26.666 11 45.999v395h60v-395c0 -38.667 -7.16699 -67.5 -21.5 -86.5s-39.166 -28.5 -74.499 -28.5c-14.667 0 -27.834 3.16699 -39.501 9.5
s-20.834 15.166 -27.501 26.499v-186h-60v660h60z" />
    <glyph glyph-name="paragraph" unicode="&#xb6;" horiz-adv-x="363" 
d="M303 -160h-63v350h-69c-24 0 -43.833 2.83301 -59.5 8.5s-28.167 13.667 -37.5 24s-15.833 22.833 -19.5 37.5s-5.5 31 -5.5 49v270c0 18 1.66699 34.5 5 49.5s9.5 27.667 18.5 38s21.333 18.5 37 24.5s35.5 9 59.5 9h134v-860z" />
    <glyph glyph-name="periodcentered" unicode="&#xb7;" horiz-adv-x="167" 
d="M116 318v-77h-67v77h67z" />
    <glyph glyph-name="ordmasculine" unicode="&#xba;" horiz-adv-x="276" 
d="M137 710c18 0 32.667 -2.33301 44 -7s20.333 -11 27 -19s11.167 -17.667 13.5 -29s3.5 -23.666 3.5 -36.999v-241c0 -13.333 -1.16699 -25.666 -3.5 -36.999s-6.83301 -21 -13.5 -29s-15.667 -14.333 -27 -19s-26 -7 -44 -7s-32.667 2.33301 -44 7s-20.333 11 -27 19
s-11.167 17.667 -13.5 29s-3.5 23.666 -3.5 36.999v241c0 13.333 1.16699 25.666 3.5 36.999s6.83301 21 13.5 29s15.667 14.333 27 19s26 7 44 7zM137 326c16.667 0 27.834 4.66699 33.501 14s8.5 21.666 8.5 36.999v241c0 15.333 -2.83301 27.666 -8.5 36.999
s-16.834 14 -33.501 14s-27.667 -4.66699 -33 -14s-8 -21.666 -8 -36.999v-241c0 -15.333 2.66699 -27.666 8 -36.999s16.333 -14 33 -14zM49 195v39h176v-39h-176z" />
    <glyph glyph-name="guillemotright" unicode="&#xbb;" horiz-adv-x="389" 
d="M348 250l-106 -185h-60l104 185l-104 185h60zM206 250l-106 -185h-61l105 185l-105 185h61z" />
    <glyph glyph-name="questiondown" unicode="&#xbf;" horiz-adv-x="329" 
d="M186 270l-0.000976562 -19.9961c0 -34 -1.83301 -61.333 -5.5 -82s-8.16699 -37.334 -13.5 -50.001s-11.333 -22.834 -18 -30.501s-12.667 -16 -18 -25s-9.83301 -19.833 -13.5 -32.5s-5.5 -30.334 -5.5 -53.001v-64c0 -17.333 3.83301 -32.666 11.5 -45.999
s21.167 -20 40.5 -20c22 0 36 6.16699 42 18.5s9 28.166 9 47.499v72h63v-72c0 -18 -1.5 -34.5 -4.5 -49.5s-8.66699 -28 -17 -39s-20 -19.5 -35 -25.5s-34.167 -9 -57.5 -9s-42.5 3 -57.5 9s-26.833 14.5 -35.5 25.5s-14.5 24 -17.5 39s-4.5 31.5 -4.5 49.5v62
c0 29.333 2.16699 52.5 6.5 69.5s9.83301 31.167 16.5 42.5s13.834 21.166 21.501 29.499s15 18.5 22 30.5s12.833 27.5 17.5 46.5s7.66699 44.5 9 76.5h44zM127.999 423.004v77h72v-77h-72z" />
    <glyph glyph-name="Agrave" unicode="&#xc0;" horiz-adv-x="324" 
d="M296 0h-64l-19 160h-103l-19 -160h-64l96 700h78zM116 218h90l-44 386zM148 877l37 -127h-42l-55 127h60z" />
    <glyph glyph-name="Aacute" unicode="&#xc1;" horiz-adv-x="324" 
d="M296 0h-64l-19 160h-103l-19 -160h-64l96 700h78zM116 218h90l-44 386zM232 877l-54 -127h-43l38 127h59z" />
    <glyph glyph-name="Acircumflex" unicode="&#xc2;" horiz-adv-x="324" 
d="M296 0h-64l-19 160h-103l-19 -160h-64l96 700h78zM116 218h90l-44 386zM187 877l56 -127h-44l-38 74l-37 -74h-44l55 127h52z" />
    <glyph glyph-name="Adieresis" unicode="&#xc4;" horiz-adv-x="324" 
d="M296 0h-64l-19 160h-103l-19 -160h-64l96 700h78zM116 218h90l-44 386zM138 824v-74h-61v74h61zM246 824v-74h-61v74h61z" />
    <glyph glyph-name="Aring" unicode="&#xc5;" horiz-adv-x="324" 
d="M296 0h-64l-19 160h-103l-19 -160h-64l96 700h78zM116 218h90l-44 386zM230 808c0 -23.333 -5.33301 -41.666 -16 -54.999s-28 -20 -52 -20s-41.333 6.66699 -52 20s-16 31.666 -16 54.999s5.33301 42 16 56s28 21 52 21s41.333 -7 52 -21s16 -32.667 16 -56zM191 808
c0 13.333 -2.33301 23.833 -7 31.5s-12 11.5 -22 11.5s-17.333 -3.83301 -22 -11.5s-7 -18.167 -7 -31.5c0 -12.667 2.33301 -22.667 7 -30s12 -11 22 -11s17.333 3.66699 22 11s7 17.333 7 30z" />
    <glyph glyph-name="AE" unicode="&#xc6;" horiz-adv-x="463" 
d="M288 60h136v-60h-199v160h-101l-36 -160h-64l165 700h235v-61h-136v-257h117v-58h-117v-264zM225 218v404l-89 -404h89z" />
    <glyph glyph-name="Ccedilla" unicode="&#xc7;" horiz-adv-x="330" 
d="M151 -9c-38 3.33301 -64 15.8301 -78 37.4971s-21 49.5 -21 83.5v475c0 18 1.83301 34.5 5.5 49.5s10 28 19 39s21 19.5 36 25.5s34.167 9 57.5 9c44 0 74.5 -11.5 91.5 -34.5s25.5 -52.5 25.5 -88.5v-77h-61v77c0 18.667 -4 34.334 -12 47.001s-22.667 19 -44 19
s-35.833 -6.16699 -43.5 -18.5s-11.5 -28.166 -11.5 -47.499v-475c0 -19.333 3.83301 -35.166 11.5 -47.499s22.167 -18.5 43.5 -18.5s36 6.33301 44 19s12 28.334 12 47.001v88h61v-88c0 -34 -7.5 -62 -22.5 -84s-41.5 -34.333 -79.5 -37l-7 -31
c42.667 -6 64 -27.333 64 -64c0 -20 -6.66699 -36 -20 -48s-36 -18 -68 -18h-46l10 38h33c15.333 0 26 2.66699 32 8s9 12.666 9 21.999c0 10 -3.16699 17.667 -9.5 23s-17.5 8 -33.5 8h-14z" />
    <glyph glyph-name="Egrave" unicode="&#xc8;" horiz-adv-x="301" 
d="M125 60h136v-60h-199v700h199v-61h-136v-257h117v-58h-117v-264zM162 877l37 -127h-42l-55 127h60z" />
    <glyph glyph-name="Eacute" unicode="&#xc9;" horiz-adv-x="301" 
d="M125 60h136v-60h-199v700h199v-61h-136v-257h117v-58h-117v-264zM199 877l-54 -127h-43l38 127h59z" />
    <glyph glyph-name="Ecircumflex" unicode="&#xca;" horiz-adv-x="301" 
d="M125 60h136v-60h-199v700h199v-61h-136v-257h117v-58h-117v-264zM176 877l56 -127h-44l-38 74l-37 -74h-44l55 127h52z" />
    <glyph glyph-name="Edieresis" unicode="&#xcb;" horiz-adv-x="301" 
d="M125 60h136v-60h-199v700h199v-61h-136v-257h117v-58h-117v-264zM127 824v-74h-61v74h61zM235 824v-74h-61v74h61z" />
    <glyph glyph-name="Igrave" unicode="&#xcc;" horiz-adv-x="188" 
d="M62 700h63v-700h-63v700zM105 877l37 -127h-42l-55 127h60z" />
    <glyph glyph-name="Iacute" unicode="&#xcd;" horiz-adv-x="188" 
d="M62 700h63v-700h-63v700zM142 877l-54 -127h-43l38 127h59z" />
    <glyph glyph-name="Icircumflex" unicode="&#xce;" horiz-adv-x="188" 
d="M62 700h63v-700h-63v700zM120 877l56 -127h-44l-38 74l-37 -74h-44l55 127h52z" />
    <glyph glyph-name="Idieresis" unicode="&#xcf;" horiz-adv-x="188" 
d="M62 700h63v-700h-63v700zM71 824v-74h-61v74h61zM179 824v-74h-61v74h61z" />
    <glyph glyph-name="Eth" unicode="&#xd0;" horiz-adv-x="357" 
d="M12 376h49v324h116c24 0 43.833 -3 59.5 -9s28.167 -14.167 37.5 -24.5s15.833 -23 19.5 -38s5.5 -31.5 5.5 -49.5v-458c0 -18 -1.83301 -34.5 -5.5 -49.5s-10 -27.667 -19 -38s-21.167 -18.5 -36.5 -24.5s-35 -9 -59 -9h-118v331h-49v45zM176 60c16 0 28 2.5 36 7.5
s13.833 12 17.5 21s5.66699 19.667 6 32s0.5 25.833 0.5 40.5v386c0 14 -0.5 26.667 -1.5 38s-3.5 21 -7.5 29s-10 14.167 -18 18.5s-19 6.5 -33 6.5h-52v-263h51v-45h-51v-271h52z" />
    <glyph glyph-name="Ntilde" unicode="&#xd1;" horiz-adv-x="386" 
d="M117 546l4 -157.999c1.33301 -51.333 2 -105.333 2 -162v-226h-61v700h62l147 -547l-4 160c-1.33301 51.333 -2 104.666 -2 159.999v227h61v-700h-62zM241 750.001c-12.667 0 -23.0029 2.16504 -31.0029 6.49805s-15 9.16602 -21 14.499s-12.167 10.166 -18.5 14.499
s-13.833 6.5 -22.5 6.5c-10.667 0 -18 -2.66699 -22 -8s-6 -13.333 -6 -24h-38c0 26.667 4.33301 46.834 13 60.501s25.334 20.5 50.001 20.5c12.667 0 22.834 -2.16699 30.501 -6.5s14.667 -9.16602 21 -14.499s12.5 -10.166 18.5 -14.499s13.667 -6.5 23 -6.5
c10.667 0 18 2.66699 22 8s6 13.333 6 24h38c0 -27.333 -4.66699 -47.666 -14 -60.999s-25.666 -20 -48.999 -20z" />
    <glyph glyph-name="Ograve" unicode="&#xd2;" horiz-adv-x="341" 
d="M170 46c21.333 0 35.833 6.16699 43.5 18.5s11.5 28.166 11.5 47.499v475c0 19.333 -3.83301 35.166 -11.5 47.499s-22.167 18.5 -43.5 18.5s-35.833 -6.16699 -43.5 -18.5s-11.5 -28.166 -11.5 -47.499v-475c0 -19.333 3.83301 -35.166 11.5 -47.499
s22.167 -18.5 43.5 -18.5zM170 710c22.667 0 41.667 -3 57 -9s27.5 -14.5 36.5 -25.5s15.333 -24 19 -39s5.5 -31.5 5.5 -49.5v-475c0 -18 -1.83301 -34.5 -5.5 -49.5s-10 -27.833 -19 -38.5s-21.167 -19 -36.5 -25s-34.333 -9 -57 -9c-23.333 0 -42.5 3 -57.5 9
s-27 14.333 -36 25s-15.333 23.5 -19 38.5s-5.5 31.5 -5.5 49.5v475c0 18 1.83301 34.5 5.5 49.5s10 28 19 39s21 19.5 36 25.5s34.167 9 57.5 9zM155 877l37 -127h-42l-55 127h60z" />
    <glyph glyph-name="Oacute" unicode="&#xd3;" horiz-adv-x="341" 
d="M170 46c21.333 0 35.833 6.16699 43.5 18.5s11.5 28.166 11.5 47.499v475c0 19.333 -3.83301 35.166 -11.5 47.499s-22.167 18.5 -43.5 18.5s-35.833 -6.16699 -43.5 -18.5s-11.5 -28.166 -11.5 -47.499v-475c0 -19.333 3.83301 -35.166 11.5 -47.499
s22.167 -18.5 43.5 -18.5zM170 710c22.667 0 41.667 -3 57 -9s27.5 -14.5 36.5 -25.5s15.333 -24 19 -39s5.5 -31.5 5.5 -49.5v-475c0 -18 -1.83301 -34.5 -5.5 -49.5s-10 -27.833 -19 -38.5s-21.167 -19 -36.5 -25s-34.333 -9 -57 -9c-23.333 0 -42.5 3 -57.5 9
s-27 14.333 -36 25s-15.333 23.5 -19 38.5s-5.5 31.5 -5.5 49.5v475c0 18 1.83301 34.5 5.5 49.5s10 28 19 39s21 19.5 36 25.5s34.167 9 57.5 9zM245 877l-54 -127h-43l38 127h59z" />
    <glyph glyph-name="Ocircumflex" unicode="&#xd4;" horiz-adv-x="341" 
d="M170 46c21.333 0 35.833 6.16699 43.5 18.5s11.5 28.166 11.5 47.499v475c0 19.333 -3.83301 35.166 -11.5 47.499s-22.167 18.5 -43.5 18.5s-35.833 -6.16699 -43.5 -18.5s-11.5 -28.166 -11.5 -47.499v-475c0 -19.333 3.83301 -35.166 11.5 -47.499
s22.167 -18.5 43.5 -18.5zM170 710c22.667 0 41.667 -3 57 -9s27.5 -14.5 36.5 -25.5s15.333 -24 19 -39s5.5 -31.5 5.5 -49.5v-475c0 -18 -1.83301 -34.5 -5.5 -49.5s-10 -27.833 -19 -38.5s-21.167 -19 -36.5 -25s-34.333 -9 -57 -9c-23.333 0 -42.5 3 -57.5 9
s-27 14.333 -36 25s-15.333 23.5 -19 38.5s-5.5 31.5 -5.5 49.5v475c0 18 1.83301 34.5 5.5 49.5s10 28 19 39s21 19.5 36 25.5s34.167 9 57.5 9zM196 877l56 -127h-44l-38 74l-37 -74h-44l55 127h52z" />
    <glyph glyph-name="Otilde" unicode="&#xd5;" horiz-adv-x="341" 
d="M170 46c21.333 0 35.833 6.16699 43.5 18.5s11.5 28.166 11.5 47.499v475c0 19.333 -3.83301 35.166 -11.5 47.499s-22.167 18.5 -43.5 18.5s-35.833 -6.16699 -43.5 -18.5s-11.5 -28.166 -11.5 -47.499v-475c0 -19.333 3.83301 -35.166 11.5 -47.499
s22.167 -18.5 43.5 -18.5zM170 710c22.667 0 41.667 -3 57 -9s27.5 -14.5 36.5 -25.5s15.333 -24 19 -39s5.5 -31.5 5.5 -49.5v-475c0 -18 -1.83301 -34.5 -5.5 -49.5s-10 -27.833 -19 -38.5s-21.167 -19 -36.5 -25s-34.333 -9 -57 -9c-23.333 0 -42.5 3 -57.5 9
s-27 14.333 -36 25s-15.333 23.5 -19 38.5s-5.5 31.5 -5.5 49.5v475c0 18 1.83301 34.5 5.5 49.5s10 28 19 39s21 19.5 36 25.5s34.167 9 57.5 9zM218 750c-12.667 0 -23.0029 2.16504 -31.0029 6.49805s-15 9.16602 -21 14.499s-12.167 10.166 -18.5 14.499
s-13.833 6.5 -22.5 6.5c-10.667 0 -18 -2.66699 -22 -8s-6 -13.333 -6 -24h-38c0 26.667 4.33301 46.834 13 60.501s25.334 20.5 50.001 20.5c12.667 0 22.834 -2.16699 30.501 -6.5s14.667 -9.16602 21 -14.499s12.5 -10.166 18.5 -14.499s13.667 -6.5 23 -6.5
c10.667 0 18 2.66699 22 8s6 13.333 6 24h38c0 -27.333 -4.66699 -47.666 -14 -60.999s-25.666 -20 -48.999 -20z" />
    <glyph glyph-name="Odieresis" unicode="&#xd6;" horiz-adv-x="341" 
d="M170 46c21.333 0 35.833 6.16699 43.5 18.5s11.5 28.166 11.5 47.499v475c0 19.333 -3.83301 35.166 -11.5 47.499s-22.167 18.5 -43.5 18.5s-35.833 -6.16699 -43.5 -18.5s-11.5 -28.166 -11.5 -47.499v-475c0 -19.333 3.83301 -35.166 11.5 -47.499
s22.167 -18.5 43.5 -18.5zM170 710c22.667 0 41.667 -3 57 -9s27.5 -14.5 36.5 -25.5s15.333 -24 19 -39s5.5 -31.5 5.5 -49.5v-475c0 -18 -1.83301 -34.5 -5.5 -49.5s-10 -27.833 -19 -38.5s-21.167 -19 -36.5 -25s-34.333 -9 -57 -9c-23.333 0 -42.5 3 -57.5 9
s-27 14.333 -36 25s-15.333 23.5 -19 38.5s-5.5 31.5 -5.5 49.5v475c0 18 1.83301 34.5 5.5 49.5s10 28 19 39s21 19.5 36 25.5s34.167 9 57.5 9zM147 824v-74h-61v74h61zM255 824v-74h-61v74h61z" />
    <glyph glyph-name="multiply" unicode="&#xd7;" horiz-adv-x="359" 
d="M308 377l-98 -97l98 -98l-32 -32l-97 98l-98 -98l-32 32l98 98l-98 97l32 32l98 -98l97 98z" />
    <glyph glyph-name="Oslash" unicode="&#xd8;" horiz-adv-x="341" 
d="M119 -3c-25.333 8 -42.833 22 -52.5 42s-14.5 44.333 -14.5 73v475c0 18 1.83301 34.5 5.5 49.5s10 28 19 39s21 19.5 36 25.5s34.167 9 57.5 9c4 0 8 -0.166992 12 -0.5s7.66699 -0.833008 11 -1.5l3 22h28l-3 -27c25.333 -8 42.833 -22.333 52.5 -43s14.5 -45 14.5 -73
v-475c0 -18 -1.83301 -34.5 -5.5 -49.5s-10 -27.833 -19 -38.5s-21.167 -19 -36.5 -25s-34.333 -9 -57 -9c-4.66699 0 -9 0.166992 -13 0.5s-7.66699 0.833008 -11 1.5l-2 -22h-28zM170 46c21.333 0 35.833 6.16797 43.5 18.501s11.5 28.166 11.5 47.499v475
c0 20 -3.66699 35.667 -11 47l-62 -586c3.33301 -1.33301 9.33301 -2 18 -2zM115 112.001c0 -9.33301 0.833984 -18.1689 2.50098 -26.502s4.5 -15.166 8.5 -20.499l61 586c-6.66699 1.33301 -12.334 2 -17.001 2c-21.333 0 -35.833 -6.16699 -43.5 -18.5
s-11.5 -28.166 -11.5 -47.499v-475z" />
    <glyph glyph-name="Ugrave" unicode="&#xd9;" horiz-adv-x="350" 
d="M120 113c0 -19.333 3.66602 -35.333 10.999 -48s22 -19 44 -19s36.5 6.33301 43.5 19s10.5 28.667 10.5 48v587h63v-587c0 -17.333 -1.83301 -33.5 -5.5 -48.5s-10 -28 -19 -39s-21 -19.667 -36 -26s-33.833 -9.5 -56.5 -9.5c-23.333 0 -42.666 3 -57.999 9
s-27.5 14.5 -36.5 25.5s-15.167 24 -18.5 39s-5 31.5 -5 49.5v587h63v-587zM161.999 877l37 -127h-42l-55 127h60z" />
    <glyph glyph-name="Uacute" unicode="&#xda;" horiz-adv-x="350" 
d="M120 113c0 -19.333 3.66602 -35.333 10.999 -48s22 -19 44 -19s36.5 6.33301 43.5 19s10.5 28.667 10.5 48v587h63v-587c0 -17.333 -1.83301 -33.5 -5.5 -48.5s-10 -28 -19 -39s-21 -19.667 -36 -26s-33.833 -9.5 -56.5 -9.5c-23.333 0 -42.666 3 -57.999 9
s-27.5 14.5 -36.5 25.5s-15.167 24 -18.5 39s-5 31.5 -5 49.5v587h63v-587zM248.999 877l-54 -127h-43l38 127h59z" />
    <glyph glyph-name="Ucircumflex" unicode="&#xdb;" horiz-adv-x="350" 
d="M120 113c0 -19.333 3.66602 -35.333 10.999 -48s22 -19 44 -19s36.5 6.33301 43.5 19s10.5 28.667 10.5 48v587h63v-587c0 -17.333 -1.83301 -33.5 -5.5 -48.5s-10 -28 -19 -39s-21 -19.667 -36 -26s-33.833 -9.5 -56.5 -9.5c-23.333 0 -42.666 3 -57.999 9
s-27.5 14.5 -36.5 25.5s-15.167 24 -18.5 39s-5 31.5 -5 49.5v587h63v-587zM199.999 877l56 -127h-44l-38 74l-37 -74h-44l55 127h52z" />
    <glyph glyph-name="Udieresis" unicode="&#xdc;" horiz-adv-x="350" 
d="M120 113c0 -19.333 3.66602 -35.333 10.999 -48s22 -19 44 -19s36.5 6.33301 43.5 19s10.5 28.667 10.5 48v587h63v-587c0 -17.333 -1.83301 -33.5 -5.5 -48.5s-10 -28 -19 -39s-21 -19.667 -36 -26s-33.833 -9.5 -56.5 -9.5c-23.333 0 -42.666 3 -57.999 9
s-27.5 14.5 -36.5 25.5s-15.167 24 -18.5 39s-5 31.5 -5 49.5v587h63v-587zM150.999 824v-74h-61v74h61zM258.999 824v-74h-61v74h61z" />
    <glyph glyph-name="Yacute" unicode="&#xdd;" horiz-adv-x="302" 
d="M119 0v291l-97 409h66l62 -318l63 318h66l-97 -409v-291h-63zM225 877l-54 -127h-43l38 127h59z" />
    <glyph glyph-name="Thorn" unicode="&#xde;" horiz-adv-x="334" 
d="M62 700h63v-142h51c24 0 43.667 -3 59 -9s27.5 -14.167 36.5 -24.5s15.333 -23 19 -38s5.5 -31.5 5.5 -49.5v-158c0 -18 -1.83301 -34.333 -5.5 -49s-10.167 -27.167 -19.5 -37.5s-21.833 -18.333 -37.5 -24s-35.5 -8.5 -59.5 -8.5h-49v-160h-63v700zM173 218
c22 0 37.499 5.50098 46.499 16.501s13.5 29.167 13.5 54.5v145c0 21.333 -4.16699 37.166 -12.5 47.499s-24.166 15.5 -47.499 15.5h-48v-279h48z" />
    <glyph glyph-name="germandbls" unicode="&#xdf;" horiz-adv-x="319" 
d="M140 44c3.33301 -0.666992 6.83398 -1.16895 10.501 -1.50195s7.83398 -0.5 12.501 -0.5c21.333 0 35.166 4.83301 41.499 14.5s9.5 24.5 9.5 44.5v180c0 12 -0.333008 23.5 -1 34.5s-2.83398 20.5 -6.50098 28.5s-9.33398 14.333 -17.001 19s-18.834 7 -33.501 7h-4v58
h2c19.333 0 32.833 5 40.5 15s11.5 24.667 11.5 44v121c0 18 -4 32.5 -12 43.5s-20.667 16.5 -38 16.5c-18.667 0 -31.5 -5.16699 -38.5 -15.5s-10.5 -25.166 -10.5 -44.499v-608h-60v607c0 36 8 63.833 24 83.5s44.333 29.5 85 29.5s69.167 -9.83301 85.5 -29.5
s24.5 -47.5 24.5 -83.5v-114c0 -26.667 -3.66699 -46.834 -11 -60.501s-19.666 -24.5 -36.999 -32.5c19.333 -7.33301 33.5 -18.166 42.5 -32.499s13.5 -34.166 13.5 -59.499v-202c0 -18 -1.5 -34.167 -4.5 -48.5s-8.66699 -26.5 -17 -36.5s-19.666 -17.667 -33.999 -23
s-32.5 -8 -54.5 -8c-4 0 -8 0.333008 -12 1l-12 2v51z" />
    <glyph glyph-name="agrave" unicode="&#xe0;" horiz-adv-x="308" 
d="M42 168c0 19.333 2.50195 36.5 7.50195 51.5s13.833 28.5 26.5 40.5s29.5 23.167 50.5 33.5s47.167 20.166 78.5 29.499v73c0 18.667 -3.83301 33.667 -11.5 45s-20.167 17 -37.5 17c-20 0 -33.333 -5.66699 -40 -17s-10 -26.666 -10 -45.999v-23h-59v24
c0 16.667 1.66699 32 5 46s9.16602 26 17.499 36s19.5 17.833 33.5 23.5s31.667 8.5 53 8.5s39 -2.83301 53 -8.5s25.167 -13.5 33.5 -23.5s14.166 -22 17.499 -36s5 -29.333 5 -46v-396h-35l-16 30c-6.66699 -13.333 -15.5 -23.333 -26.5 -30s-25.833 -10 -44.5 -10
c-36 0 -61.833 9.5 -77.5 28.5s-23.5 47.5 -23.5 85.5v64zM205.002 278c-21.333 -6.66699 -38.667 -13.665 -52 -20.998s-23.833 -15.333 -31.5 -24s-12.834 -18.334 -15.501 -29.001s-4 -22.334 -4 -35.001v-65c0 -19.333 3.83301 -34.5 11.5 -45.5
s21.167 -16.5 40.5 -16.5c18.667 0 31.834 5.83301 39.501 17.5s11.5 26.5 11.5 44.5v174zM156.001 677.002l37 -127h-42l-55 127h60z" />
    <glyph glyph-name="aacute" unicode="&#xe1;" horiz-adv-x="308" 
d="M42 168c0 19.333 2.50195 36.5 7.50195 51.5s13.833 28.5 26.5 40.5s29.5 23.167 50.5 33.5s47.167 20.166 78.5 29.499v73c0 18.667 -3.83301 33.667 -11.5 45s-20.167 17 -37.5 17c-20 0 -33.333 -5.66699 -40 -17s-10 -26.666 -10 -45.999v-23h-59v24
c0 16.667 1.66699 32 5 46s9.16602 26 17.499 36s19.5 17.833 33.5 23.5s31.667 8.5 53 8.5s39 -2.83301 53 -8.5s25.167 -13.5 33.5 -23.5s14.166 -22 17.499 -36s5 -29.333 5 -46v-396h-35l-16 30c-6.66699 -13.333 -15.5 -23.333 -26.5 -30s-25.833 -10 -44.5 -10
c-36 0 -61.833 9.5 -77.5 28.5s-23.5 47.5 -23.5 85.5v64zM205.002 278c-21.333 -6.66699 -38.667 -13.665 -52 -20.998s-23.833 -15.333 -31.5 -24s-12.834 -18.334 -15.501 -29.001s-4 -22.334 -4 -35.001v-65c0 -19.333 3.83301 -34.5 11.5 -45.5
s21.167 -16.5 40.5 -16.5c18.667 0 31.834 5.83301 39.501 17.5s11.5 26.5 11.5 44.5v174zM226.001 677.002l-54 -127h-43l38 127h59z" />
    <glyph glyph-name="acircumflex" unicode="&#xe2;" horiz-adv-x="308" 
d="M42 168c0 19.333 2.50195 36.5 7.50195 51.5s13.833 28.5 26.5 40.5s29.5 23.167 50.5 33.5s47.167 20.166 78.5 29.499v73c0 18.667 -3.83301 33.667 -11.5 45s-20.167 17 -37.5 17c-20 0 -33.333 -5.66699 -40 -17s-10 -26.666 -10 -45.999v-23h-59v24
c0 16.667 1.66699 32 5 46s9.16602 26 17.499 36s19.5 17.833 33.5 23.5s31.667 8.5 53 8.5s39 -2.83301 53 -8.5s25.167 -13.5 33.5 -23.5s14.166 -22 17.499 -36s5 -29.333 5 -46v-396h-35l-16 30c-6.66699 -13.333 -15.5 -23.333 -26.5 -30s-25.833 -10 -44.5 -10
c-36 0 -61.833 9.5 -77.5 28.5s-23.5 47.5 -23.5 85.5v64zM205.002 278c-21.333 -6.66699 -38.667 -13.665 -52 -20.998s-23.833 -15.333 -31.5 -24s-12.834 -18.334 -15.501 -29.001s-4 -22.334 -4 -35.001v-65c0 -19.333 3.83301 -34.5 11.5 -45.5
s21.167 -16.5 40.5 -16.5c18.667 0 31.834 5.83301 39.501 17.5s11.5 26.5 11.5 44.5v174zM178.001 677.002l56 -127h-44l-38 74l-37 -74h-44l55 127h52z" />
    <glyph glyph-name="adieresis" unicode="&#xe4;" horiz-adv-x="308" 
d="M42 168c0 19.333 2.50195 36.5 7.50195 51.5s13.833 28.5 26.5 40.5s29.5 23.167 50.5 33.5s47.167 20.166 78.5 29.499v73c0 18.667 -3.83301 33.667 -11.5 45s-20.167 17 -37.5 17c-20 0 -33.333 -5.66699 -40 -17s-10 -26.666 -10 -45.999v-23h-59v24
c0 16.667 1.66699 32 5 46s9.16602 26 17.499 36s19.5 17.833 33.5 23.5s31.667 8.5 53 8.5s39 -2.83301 53 -8.5s25.167 -13.5 33.5 -23.5s14.166 -22 17.499 -36s5 -29.333 5 -46v-396h-35l-16 30c-6.66699 -13.333 -15.5 -23.333 -26.5 -30s-25.833 -10 -44.5 -10
c-36 0 -61.833 9.5 -77.5 28.5s-23.5 47.5 -23.5 85.5v64zM205.002 278c-21.333 -6.66699 -38.667 -13.665 -52 -20.998s-23.833 -15.333 -31.5 -24s-12.834 -18.334 -15.501 -29.001s-4 -22.334 -4 -35.001v-65c0 -19.333 3.83301 -34.5 11.5 -45.5
s21.167 -16.5 40.5 -16.5c18.667 0 31.834 5.83301 39.501 17.5s11.5 26.5 11.5 44.5v174zM129.001 659.002v-74h-61v74h61zM237.001 659.002v-74h-61v74h61z" />
    <glyph glyph-name="aring" unicode="&#xe5;" horiz-adv-x="308" 
d="M42 168c0 19.333 2.50195 36.5 7.50195 51.5s13.833 28.5 26.5 40.5s29.5 23.167 50.5 33.5s47.167 20.166 78.5 29.499v73c0 18.667 -3.83301 33.667 -11.5 45s-20.167 17 -37.5 17c-20 0 -33.333 -5.66699 -40 -17s-10 -26.666 -10 -45.999v-23h-59v24
c0 16.667 1.66699 32 5 46s9.16602 26 17.499 36s19.5 17.833 33.5 23.5s31.667 8.5 53 8.5s39 -2.83301 53 -8.5s25.167 -13.5 33.5 -23.5s14.166 -22 17.499 -36s5 -29.333 5 -46v-396h-35l-16 30c-6.66699 -13.333 -15.5 -23.333 -26.5 -30s-25.833 -10 -44.5 -10
c-36 0 -61.833 9.5 -77.5 28.5s-23.5 47.5 -23.5 85.5v64zM205.002 278c-21.333 -6.66699 -38.667 -13.665 -52 -20.998s-23.833 -15.333 -31.5 -24s-12.834 -18.334 -15.501 -29.001s-4 -22.334 -4 -35.001v-65c0 -19.333 3.83301 -34.5 11.5 -45.5
s21.167 -16.5 40.5 -16.5c18.667 0 31.834 5.83301 39.501 17.5s11.5 26.5 11.5 44.5v174zM220.001 622.002c0 -23.333 -5.33301 -41.666 -16 -54.999s-28 -20 -52 -20s-41.333 6.66699 -52 20s-16 31.666 -16 54.999s5.33301 42 16 56s28 21 52 21s41.333 -7 52 -21
s16 -32.667 16 -56zM181.001 622.002c0 13.333 -2.33301 23.833 -7 31.5s-12 11.5 -22 11.5s-17.333 -3.83301 -22 -11.5s-7 -18.167 -7 -31.5c0 -12.667 2.33301 -22.667 7 -30s12 -11 22 -11s17.333 3.66699 22 11s7 17.333 7 30z" />
    <glyph glyph-name="ae" unicode="&#xe6;" horiz-adv-x="470" 
d="M427 172l-0.000976562 -66.001c0 -35.333 -7.5 -63.5 -22.5 -84.5s-44.167 -31.5 -87.5 -31.5c-22 0 -39.5 2.83301 -52.5 8.5s-23.167 14.167 -30.5 25.5c-7.33301 -11.333 -17.666 -19.833 -30.999 -25.5s-30.666 -8.5 -51.999 -8.5c-22 0 -40.167 2.83301 -54.5 8.5
s-25.833 13.5 -34.5 23.5s-14.667 22.167 -18 36.5s-5 30.166 -5 47.499v62c0 19.333 2.5 36.5 7.5 51.5s13.833 28.5 26.5 40.5s29.5 23.167 50.5 33.5s47.167 20.166 78.5 29.499v73c0 19.333 -3.5 34.5 -10.5 45.5s-20.167 16.5 -39.5 16.5s-32.333 -5.66699 -39 -17
s-10 -26.666 -10 -45.999v-23h-59v24c0 16.667 1.66699 32 5 46s9.16602 26 17.499 36s19.333 17.833 33 23.5s30.834 8.5 51.501 8.5c22 0 39.5 -3.16699 52.5 -9.5s23.167 -14.5 30.5 -24.5c7.33301 10.667 17.666 19 30.999 25s31 9 53 9s40 -2.83301 54 -8.5
s25 -13.667 33 -24s13.667 -22.666 17 -36.999s5 -30.166 5 -47.499v-144h-162v-143c0 -42.667 17.333 -64 52 -64c19.333 0 32.833 5.5 40.5 16.5s11.5 26.833 11.5 47.5v66h58zM201.999 277.999c-21.333 -6.66699 -38.665 -13.665 -51.998 -20.998
s-23.833 -15.333 -31.5 -24s-12.834 -18.334 -15.501 -29.001s-4 -22.334 -4 -35.001v-63c0 -20.667 3.83301 -36.5 11.5 -47.5s21.167 -16.5 40.5 -16.5s32.666 5.5 39.999 16.5s11 26.833 11 47.5v172zM368 393.001c0 20 -4.5 35.833 -13.5 47.5s-21.5 17.5 -37.5 17.5
c-19.333 0 -32.833 -5.5 -40.5 -16.5s-11.5 -27.167 -11.5 -48.5v-98h103v98z" />
    <glyph glyph-name="ccedilla" unicode="&#xe7;" horiz-adv-x="312" 
d="M138 -9c-35.333 3.33301 -59.332 15.334 -71.999 36.001s-19 47 -19 79v287c0 17.333 1.83301 33.166 5.5 47.499s9.83398 26.666 18.501 36.999s20.167 18.333 34.5 24s32.166 8.5 53.499 8.5c22 0 40 -2.83301 54 -8.5s25.167 -13.667 33.5 -24
s14.166 -22.666 17.499 -36.999s5 -30.166 5 -47.499v-55h-59v55c0 21.333 -3.66699 37.5 -11 48.5s-20.666 16.5 -39.999 16.5s-32.833 -5.5 -40.5 -16.5s-11.5 -27.167 -11.5 -48.5v-287c0 -20.667 3.83301 -36.5 11.5 -47.5s21.167 -16.5 40.5 -16.5
s32.666 5.5 39.999 16.5s11 26.833 11 47.5v66h59v-66c0 -33.333 -6.66699 -60.333 -20 -81s-39 -32 -77 -34l-7 -31c42.667 -6 64 -27.333 64 -64c0 -20 -6.66699 -36 -20 -48s-36 -18 -68 -18h-46l10 38h33c15.333 0 26 2.66699 32 8s9 12.666 9 21.999
c0 10 -3.16699 17.667 -9.5 23s-17.5 8 -33.5 8h-14z" />
    <glyph glyph-name="egrave" unicode="&#xe8;" horiz-adv-x="317" 
d="M269 172l0.00292969 -65.999c0 -35.333 -7.5 -63.5 -22.5 -84.5s-44.167 -31.5 -87.5 -31.5c-22 0 -40.167 2.83301 -54.5 8.5s-25.833 13.5 -34.5 23.5s-14.667 22.167 -18 36.5s-5 30.166 -5 47.499v287c0 17.333 1.83301 33.166 5.5 47.499s9.66699 26.666 18 36.999
s19.666 18.333 33.999 24s32.5 8.5 54.5 8.5s40 -2.83301 54 -8.5s25.167 -13.667 33.5 -24s14.166 -22.666 17.499 -36.999s5 -30.166 5 -47.499v-145h-162v-142c0 -42.667 17.333 -64 52 -64c19.333 0 32.666 5.5 39.999 16.5s11 26.833 11 47.5v66h59zM210.003 392.001
c0 21.333 -3.66797 37.667 -11.001 49s-20.666 17 -39.999 17s-32.833 -5.5 -40.5 -16.5s-11.5 -27.167 -11.5 -48.5v-98h103v97zM165.002 677.002l37 -127h-42l-55 127h60z" />
    <glyph glyph-name="eacute" unicode="&#xe9;" horiz-adv-x="317" 
d="M269 172l0.00292969 -65.999c0 -35.333 -7.5 -63.5 -22.5 -84.5s-44.167 -31.5 -87.5 -31.5c-22 0 -40.167 2.83301 -54.5 8.5s-25.833 13.5 -34.5 23.5s-14.667 22.167 -18 36.5s-5 30.166 -5 47.499v287c0 17.333 1.83301 33.166 5.5 47.499s9.66699 26.666 18 36.999
s19.666 18.333 33.999 24s32.5 8.5 54.5 8.5s40 -2.83301 54 -8.5s25.167 -13.667 33.5 -24s14.166 -22.666 17.499 -36.999s5 -30.166 5 -47.499v-145h-162v-142c0 -42.667 17.333 -64 52 -64c19.333 0 32.666 5.5 39.999 16.5s11 26.833 11 47.5v66h59zM210.003 392.001
c0 21.333 -3.66797 37.667 -11.001 49s-20.666 17 -39.999 17s-32.833 -5.5 -40.5 -16.5s-11.5 -27.167 -11.5 -48.5v-98h103v97zM230.002 677.002l-54 -127h-43l38 127h59z" />
    <glyph glyph-name="ecircumflex" unicode="&#xea;" horiz-adv-x="317" 
d="M269 172l0.00292969 -65.999c0 -35.333 -7.5 -63.5 -22.5 -84.5s-44.167 -31.5 -87.5 -31.5c-22 0 -40.167 2.83301 -54.5 8.5s-25.833 13.5 -34.5 23.5s-14.667 22.167 -18 36.5s-5 30.166 -5 47.499v287c0 17.333 1.83301 33.166 5.5 47.499s9.66699 26.666 18 36.999
s19.666 18.333 33.999 24s32.5 8.5 54.5 8.5s40 -2.83301 54 -8.5s25.167 -13.667 33.5 -24s14.166 -22.666 17.499 -36.999s5 -30.166 5 -47.499v-145h-162v-142c0 -42.667 17.333 -64 52 -64c19.333 0 32.666 5.5 39.999 16.5s11 26.833 11 47.5v66h59zM210.003 392.001
c0 21.333 -3.66797 37.667 -11.001 49s-20.666 17 -39.999 17s-32.833 -5.5 -40.5 -16.5s-11.5 -27.167 -11.5 -48.5v-98h103v97zM179.002 677.002l56 -127h-44l-38 74l-37 -74h-44l55 127h52z" />
    <glyph glyph-name="edieresis" unicode="&#xeb;" horiz-adv-x="317" 
d="M269 172l0.00292969 -65.999c0 -35.333 -7.5 -63.5 -22.5 -84.5s-44.167 -31.5 -87.5 -31.5c-22 0 -40.167 2.83301 -54.5 8.5s-25.833 13.5 -34.5 23.5s-14.667 22.167 -18 36.5s-5 30.166 -5 47.499v287c0 17.333 1.83301 33.166 5.5 47.499s9.66699 26.666 18 36.999
s19.666 18.333 33.999 24s32.5 8.5 54.5 8.5s40 -2.83301 54 -8.5s25.167 -13.667 33.5 -24s14.166 -22.666 17.499 -36.999s5 -30.166 5 -47.499v-145h-162v-142c0 -42.667 17.333 -64 52 -64c19.333 0 32.666 5.5 39.999 16.5s11 26.833 11 47.5v66h59zM210.003 392.001
c0 21.333 -3.66797 37.667 -11.001 49s-20.666 17 -39.999 17s-32.833 -5.5 -40.5 -16.5s-11.5 -27.167 -11.5 -48.5v-98h103v97zM130.002 659.002v-74h-61v74h61zM238.002 659.002v-74h-61v74h61z" />
    <glyph glyph-name="igrave" unicode="&#xec;" horiz-adv-x="161" 
d="M84 677l37 -127h-42l-55 127h60zM110 500v-500h-60v500h60z" />
    <glyph glyph-name="iacute" unicode="&#xed;" horiz-adv-x="161" 
d="M152 677l-54 -127h-43l38 127h59zM110 500v-500h-60v500h60z" />
    <glyph glyph-name="icircumflex" unicode="&#xee;" horiz-adv-x="161" 
d="M110 500v-500h-60v500h60zM106 677l56 -127h-44l-38 74l-37 -74h-44l55 127h52z" />
    <glyph glyph-name="idieresis" unicode="&#xef;" horiz-adv-x="161" 
d="M57 659v-74h-61v74h61zM165 659v-74h-61v74h61zM110 500v-500h-60v500h60z" />
    <glyph glyph-name="eth" unicode="&#xf0;" horiz-adv-x="338" 
d="M125 564l48.002 21.999c-9.33301 19.333 -20.5 38.333 -33.5 57s-27.833 37.667 -44.5 57h66c12.667 -15.333 24.167 -30.333 34.5 -45s19.5 -29.667 27.5 -45l50 23l17 -38l-49 -22c12.667 -30 21.667 -62.667 27 -98s8 -74 8 -116v-247
c0 -18.667 -1.83301 -35.5 -5.5 -50.5s-9.83398 -27.833 -18.501 -38.5s-20.334 -18.834 -35.001 -24.501s-33 -8.5 -55 -8.5s-40.5 2.83301 -55.5 8.5s-26.833 13.834 -35.5 24.501s-14.834 23.5 -18.501 38.5s-5.5 31.833 -5.5 50.5v180c0 38 7 67 21 87s39.667 30 77 30
c14.667 0 28 -2.5 40 -7.5s22.667 -12.167 32 -21.5c-0.666992 34 -3.16699 64.333 -7.5 91s-11.166 52.334 -20.499 77.001l-47 -22zM161.002 353.999c-19.333 0 -33.167 -5.5 -41.5 -16.5s-12.5 -26.167 -12.5 -45.5v-180c0 -20 3.83301 -36 11.5 -48s22.167 -18 43.5 -18
s35.833 6 43.5 18s11.5 28 11.5 48v204c-6 12 -13.333 21.333 -22 28s-20 10 -34 10z" />
    <glyph glyph-name="ntilde" unicode="&#xf1;" 
d="M52 0l0.00195312 500.002h36l16 -32c7.33301 13.333 17.166 23.666 29.499 30.999s27.166 11 44.499 11c36 0 61.167 -9.5 75.5 -28.5s21.5 -47.833 21.5 -86.5v-395h-60v395c0 19.333 -3.66699 34.666 -11 45.999s-20.333 17 -39 17c-19.333 0 -33 -5.66699 -41 -17
s-12 -27 -12 -47v-394h-60zM211.002 560.002c-12.667 0 -23.0029 2.16504 -31.0029 6.49805s-15 9.16602 -21 14.499s-12.167 10.166 -18.5 14.499s-13.833 6.5 -22.5 6.5c-10.667 0 -18 -2.66699 -22 -8s-6 -13.333 -6 -24h-38c0 26.667 4.33301 46.834 13 60.501
s25.334 20.5 50.001 20.5c12.667 0 22.834 -2.16699 30.501 -6.5s14.667 -9.16602 21 -14.499s12.5 -10.166 18.5 -14.499s13.667 -6.5 23 -6.5c10.667 0 18 2.66699 22 8s6 13.333 6 24h38c0 -27.333 -4.66699 -47.666 -14 -60.999s-25.666 -20 -48.999 -20z" />
    <glyph glyph-name="ograve" unicode="&#xf2;" horiz-adv-x="318" 
d="M159 510c21.333 0 39.167 -2.83203 53.5 -8.49902s25.666 -13.667 33.999 -24s14.333 -22.666 18 -36.999s5.5 -30.166 5.5 -47.499v-287c0 -35.333 -7.66699 -63.5 -23 -84.5s-44.666 -31.5 -87.999 -31.5c-22 0 -40.167 2.83301 -54.5 8.5s-25.833 13.5 -34.5 23.5
s-14.667 22.167 -18 36.5s-5 30.166 -5 47.499v287c0 17.333 1.83301 33.166 5.5 47.499s9.83398 26.666 18.501 36.999s20.167 18.333 34.5 24s32.166 8.5 53.499 8.5zM159.001 42.001c19.333 0 32.666 5.5 39.999 16.5s11 26.833 11 47.5v287
c0 21.333 -3.66699 37.5 -11 48.5s-20.666 16.5 -39.999 16.5s-32.833 -5.5 -40.5 -16.5s-11.5 -27.167 -11.5 -48.5v-287c0 -20.667 3.83301 -36.5 11.5 -47.5s21.167 -16.5 40.5 -16.5zM146.001 677.001l37 -127h-42l-55 127h60z" />
    <glyph glyph-name="oacute" unicode="&#xf3;" horiz-adv-x="318" 
d="M159 510c21.333 0 39.167 -2.83203 53.5 -8.49902s25.666 -13.667 33.999 -24s14.333 -22.666 18 -36.999s5.5 -30.166 5.5 -47.499v-287c0 -35.333 -7.66699 -63.5 -23 -84.5s-44.666 -31.5 -87.999 -31.5c-22 0 -40.167 2.83301 -54.5 8.5s-25.833 13.5 -34.5 23.5
s-14.667 22.167 -18 36.5s-5 30.166 -5 47.499v287c0 17.333 1.83301 33.166 5.5 47.499s9.83398 26.666 18.501 36.999s20.167 18.333 34.5 24s32.166 8.5 53.499 8.5zM159.001 42.001c19.333 0 32.666 5.5 39.999 16.5s11 26.833 11 47.5v287
c0 21.333 -3.66699 37.5 -11 48.5s-20.666 16.5 -39.999 16.5s-32.833 -5.5 -40.5 -16.5s-11.5 -27.167 -11.5 -48.5v-287c0 -20.667 3.83301 -36.5 11.5 -47.5s21.167 -16.5 40.5 -16.5zM231.001 677.001l-54 -127h-43l38 127h59z" />
    <glyph glyph-name="ocircumflex" unicode="&#xf4;" horiz-adv-x="318" 
d="M159 510c21.333 0 39.167 -2.83203 53.5 -8.49902s25.666 -13.667 33.999 -24s14.333 -22.666 18 -36.999s5.5 -30.166 5.5 -47.499v-287c0 -35.333 -7.66699 -63.5 -23 -84.5s-44.666 -31.5 -87.999 -31.5c-22 0 -40.167 2.83301 -54.5 8.5s-25.833 13.5 -34.5 23.5
s-14.667 22.167 -18 36.5s-5 30.166 -5 47.499v287c0 17.333 1.83301 33.166 5.5 47.499s9.83398 26.666 18.501 36.999s20.167 18.333 34.5 24s32.166 8.5 53.499 8.5zM159.001 42.001c19.333 0 32.666 5.5 39.999 16.5s11 26.833 11 47.5v287
c0 21.333 -3.66699 37.5 -11 48.5s-20.666 16.5 -39.999 16.5s-32.833 -5.5 -40.5 -16.5s-11.5 -27.167 -11.5 -48.5v-287c0 -20.667 3.83301 -36.5 11.5 -47.5s21.167 -16.5 40.5 -16.5zM184.001 677.001l56 -127h-44l-38 74l-37 -74h-44l55 127h52z" />
    <glyph glyph-name="otilde" unicode="&#xf5;" horiz-adv-x="318" 
d="M159 510c21.333 0 39.167 -2.83203 53.5 -8.49902s25.666 -13.667 33.999 -24s14.333 -22.666 18 -36.999s5.5 -30.166 5.5 -47.499v-287c0 -35.333 -7.66699 -63.5 -23 -84.5s-44.666 -31.5 -87.999 -31.5c-22 0 -40.167 2.83301 -54.5 8.5s-25.833 13.5 -34.5 23.5
s-14.667 22.167 -18 36.5s-5 30.166 -5 47.499v287c0 17.333 1.83301 33.166 5.5 47.499s9.83398 26.666 18.501 36.999s20.167 18.333 34.5 24s32.166 8.5 53.499 8.5zM159.001 42.001c19.333 0 32.666 5.5 39.999 16.5s11 26.833 11 47.5v287
c0 21.333 -3.66699 37.5 -11 48.5s-20.666 16.5 -39.999 16.5s-32.833 -5.5 -40.5 -16.5s-11.5 -27.167 -11.5 -48.5v-287c0 -20.667 3.83301 -36.5 11.5 -47.5s21.167 -16.5 40.5 -16.5zM206.001 560.001c-12.667 0 -23.0029 2.16504 -31.0029 6.49805
s-15 9.16602 -21 14.499s-12.167 10.166 -18.5 14.499s-13.833 6.5 -22.5 6.5c-10.667 0 -18 -2.66699 -22 -8s-6 -13.333 -6 -24h-38c0 26.667 4.33301 46.834 13 60.501s25.334 20.5 50.001 20.5c12.667 0 22.834 -2.16699 30.501 -6.5s14.667 -9.16602 21 -14.499
s12.5 -10.166 18.5 -14.499s13.667 -6.5 23 -6.5c10.667 0 18 2.66699 22 8s6 13.333 6 24h38c0 -27.333 -4.66699 -47.666 -14 -60.999s-25.666 -20 -48.999 -20z" />
    <glyph glyph-name="odieresis" unicode="&#xf6;" horiz-adv-x="318" 
d="M159 510c21.333 0 39.167 -2.83203 53.5 -8.49902s25.666 -13.667 33.999 -24s14.333 -22.666 18 -36.999s5.5 -30.166 5.5 -47.499v-287c0 -35.333 -7.66699 -63.5 -23 -84.5s-44.666 -31.5 -87.999 -31.5c-22 0 -40.167 2.83301 -54.5 8.5s-25.833 13.5 -34.5 23.5
s-14.667 22.167 -18 36.5s-5 30.166 -5 47.499v287c0 17.333 1.83301 33.166 5.5 47.499s9.83398 26.666 18.501 36.999s20.167 18.333 34.5 24s32.166 8.5 53.499 8.5zM159.001 42.001c19.333 0 32.666 5.5 39.999 16.5s11 26.833 11 47.5v287
c0 21.333 -3.66699 37.5 -11 48.5s-20.666 16.5 -39.999 16.5s-32.833 -5.5 -40.5 -16.5s-11.5 -27.167 -11.5 -48.5v-287c0 -20.667 3.83301 -36.5 11.5 -47.5s21.167 -16.5 40.5 -16.5zM135.001 659.001v-74h-61v74h61zM243.001 659.001v-74h-61v74h61z" />
    <glyph glyph-name="divide" unicode="&#xf7;" horiz-adv-x="390" 
d="M339 303v-46h-290v46h290zM228 193v-77h-67v77h67zM228 443v-77h-67v77h67z" />
    <glyph glyph-name="oslash" unicode="&#xf8;" horiz-adv-x="313" 
d="M156 510c10 0 19.666 -0.99707 28.999 -2.99707l4 23h26l-5 -29c21.333 -8.66699 36.166 -22.334 44.499 -41.001s12.5 -41 12.5 -67v-287c0 -35.333 -7.66699 -63.5 -23 -84.5s-44.666 -31.5 -87.999 -31.5c-5.33301 0 -10.5 0.166992 -15.5 0.5
s-9.83301 0.833008 -14.5 1.5l-4 -22h-25l4 28c-21.333 8 -36.166 21.5 -44.499 40.5s-12.5 41.5 -12.5 67.5v287c0 17.333 1.83301 33.166 5.5 47.499s9.83398 26.666 18.501 36.999s20.167 18.333 34.5 24s32.166 8.5 53.499 8.5zM98.999 106.003
c0 -22.667 3.99805 -39.333 11.998 -50l66 403c-3.33301 1.33301 -6.66602 2.33301 -9.99902 3s-7 1 -11 1c-21.333 0 -36.166 -6 -44.499 -18s-12.5 -29.333 -12.5 -52v-287zM155.997 37.0039c21.333 0 36.001 5.83105 44.001 17.498s12 28.834 12 51.501v287
c0 22.667 -4 39.334 -12 50.001l-66 -404c3.33301 -0.666992 6.66602 -1.16699 9.99902 -1.5s7.33301 -0.5 12 -0.5z" />
    <glyph glyph-name="ugrave" unicode="&#xf9;" 
d="M275 500l0.000976562 -500h-35l-16 32c-14.667 -28 -39.667 -42 -75 -42s-60.333 9.5 -75 28.5s-22 47.833 -22 86.5v395h60v-395c0 -19.333 3.66699 -34.666 11 -45.999s20.666 -17 39.999 -17s32.833 5.66699 40.5 17s11.5 26.666 11.5 45.999v395h60zM149.001 677
l37 -127h-42l-55 127h60z" />
    <glyph glyph-name="uacute" unicode="&#xfa;" 
d="M275 500l0.000976562 -500h-35l-16 32c-14.667 -28 -39.667 -42 -75 -42s-60.333 9.5 -75 28.5s-22 47.833 -22 86.5v395h60v-395c0 -19.333 3.66699 -34.666 11 -45.999s20.666 -17 39.999 -17s32.833 5.66699 40.5 17s11.5 26.666 11.5 45.999v395h60zM241.001 677
l-54 -127h-43l38 127h59z" />
    <glyph glyph-name="ucircumflex" unicode="&#xfb;" 
d="M275 500l0.000976562 -500h-35l-16 32c-14.667 -28 -39.667 -42 -75 -42s-60.333 9.5 -75 28.5s-22 47.833 -22 86.5v395h60v-395c0 -19.333 3.66699 -34.666 11 -45.999s20.666 -17 39.999 -17s32.833 5.66699 40.5 17s11.5 26.666 11.5 45.999v395h60zM189.001 677
l56 -127h-44l-38 74l-37 -74h-44l55 127h52z" />
    <glyph glyph-name="udieresis" unicode="&#xfc;" 
d="M275 500l0.000976562 -500h-35l-16 32c-14.667 -28 -39.667 -42 -75 -42s-60.333 9.5 -75 28.5s-22 47.833 -22 86.5v395h60v-395c0 -19.333 3.66699 -34.666 11 -45.999s20.666 -17 39.999 -17s32.833 5.66699 40.5 17s11.5 26.666 11.5 45.999v395h60zM140.001 659v-74
h-61v74h61zM248.001 659v-74h-61v74h61z" />
    <glyph glyph-name="yacute" unicode="&#xfd;" horiz-adv-x="301" 
d="M56 -170c-6 0 -12.833 0.5 -20.5 1.5s-13.834 2.16699 -18.501 3.5v54c11.333 -4.66699 24.333 -7 39 -7c29.333 0 48 19.333 56 58l11 59l-98 501h62l65 -391l64 391h62l-108 -562c-7.33301 -38 -19.166 -65.5 -35.499 -82.5s-42.5 -25.5 -78.5 -25.5zM233 677l-54 -127
h-43l38 127h59z" />
    <glyph glyph-name="thorn" unicode="&#xfe;" 
d="M52 710l60 -0.00195312v-236c6.66699 10.667 15.834 19.334 27.501 26.001s25.167 10 40.5 10c35.333 0 60 -9.5 74 -28.5s21 -47.833 21 -86.5v-290c0 -76.667 -31.667 -115 -95 -115c-15.333 0 -28.833 3.33301 -40.5 10s-20.834 15.334 -27.501 26.001v-186h-60v870z
M112 142.998c0 -13.333 0.333984 -26.1689 1.00098 -38.502s2.66699 -23.166 6 -32.499s8.5 -16.666 15.5 -21.999s17.167 -8 30.5 -8c19.333 0 32.5 5.5 39.5 16.5s10.5 26.5 10.5 46.5v254c0 13.333 -0.333008 26 -1 38s-2.5 22.5 -5.5 31.5s-7.83301 16.167 -14.5 21.5
s-16.334 8 -29.001 8c-19.333 0 -33 -5.83301 -41 -17.5s-12 -27.167 -12 -46.5v-251z" />
    <glyph glyph-name="ydieresis" unicode="&#xff;" horiz-adv-x="301" 
d="M56 -170c-6 0 -12.833 0.5 -20.5 1.5s-13.834 2.16699 -18.501 3.5v54c11.333 -4.66699 24.333 -7 39 -7c29.333 0 48 19.333 56 58l11 59l-98 501h62l65 -391l64 391h62l-108 -562c-7.33301 -38 -19.166 -65.5 -35.499 -82.5s-42.5 -25.5 -78.5 -25.5zM126 659v-74h-61
v74h61zM234 659v-74h-61v74h61z" />
    <glyph glyph-name="Amacron" unicode="&#x100;" horiz-adv-x="324" 
d="M296 0h-64l-19 160h-103l-19 -160h-64l96 700h78zM116 218h90l-44 386zM77 796h170v-46h-170v46z" />
    <glyph glyph-name="amacron" unicode="&#x101;" horiz-adv-x="308" 
d="M42 168c0 19.333 2.50195 36.5 7.50195 51.5s13.833 28.5 26.5 40.5s29.5 23.167 50.5 33.5s47.167 20.166 78.5 29.499v73c0 18.667 -3.83301 33.667 -11.5 45s-20.167 17 -37.5 17c-20 0 -33.333 -5.66699 -40 -17s-10 -26.666 -10 -45.999v-23h-59v24
c0 16.667 1.66699 32 5 46s9.16602 26 17.499 36s19.5 17.833 33.5 23.5s31.667 8.5 53 8.5s39 -2.83301 53 -8.5s25.167 -13.5 33.5 -23.5s14.166 -22 17.499 -36s5 -29.333 5 -46v-396h-35l-16 30c-6.66699 -13.333 -15.5 -23.333 -26.5 -30s-25.833 -10 -44.5 -10
c-36 0 -61.833 9.5 -77.5 28.5s-23.5 47.5 -23.5 85.5v64zM205.002 278c-21.333 -6.66699 -38.667 -13.665 -52 -20.998s-23.833 -15.333 -31.5 -24s-12.834 -18.334 -15.501 -29.001s-4 -22.334 -4 -35.001v-65c0 -19.333 3.83301 -34.5 11.5 -45.5
s21.167 -16.5 40.5 -16.5c18.667 0 31.834 5.83301 39.501 17.5s11.5 26.5 11.5 44.5v174zM67.001 639.002h170v-46h-170v46z" />
    <glyph glyph-name="Abreve" unicode="&#x102;" horiz-adv-x="324" 
d="M296 0h-64l-19 160h-103l-19 -160h-64l96 700h78zM116 218h90l-44 386zM240 836c0 -33.333 -6.16699 -58.5 -18.5 -75.5s-32.5 -25.5 -60.5 -25.5s-48 8.5 -60 25.5s-18 42.167 -18 75.5h38c0 -18.667 3 -32.5 9 -41.5s16.333 -13.5 31 -13.5s25 4.5 31 13.5
s9 22.833 9 41.5h39z" />
    <glyph glyph-name="abreve" unicode="&#x103;" horiz-adv-x="308" 
d="M42 168c0 19.333 2.50195 36.5 7.50195 51.5s13.833 28.5 26.5 40.5s29.5 23.167 50.5 33.5s47.167 20.166 78.5 29.499v73c0 18.667 -3.83301 33.667 -11.5 45s-20.167 17 -37.5 17c-20 0 -33.333 -5.66699 -40 -17s-10 -26.666 -10 -45.999v-23h-59v24
c0 16.667 1.66699 32 5 46s9.16602 26 17.499 36s19.5 17.833 33.5 23.5s31.667 8.5 53 8.5s39 -2.83301 53 -8.5s25.167 -13.5 33.5 -23.5s14.166 -22 17.499 -36s5 -29.333 5 -46v-396h-35l-16 30c-6.66699 -13.333 -15.5 -23.333 -26.5 -30s-25.833 -10 -44.5 -10
c-36 0 -61.833 9.5 -77.5 28.5s-23.5 47.5 -23.5 85.5v64zM205.002 278c-21.333 -6.66699 -38.667 -13.665 -52 -20.998s-23.833 -15.333 -31.5 -24s-12.834 -18.334 -15.501 -29.001s-4 -22.334 -4 -35.001v-65c0 -19.333 3.83301 -34.5 11.5 -45.5
s21.167 -16.5 40.5 -16.5c18.667 0 31.834 5.83301 39.501 17.5s11.5 26.5 11.5 44.5v174zM231.001 658.002c0 -33.333 -6.16699 -58.5 -18.5 -75.5s-32.5 -25.5 -60.5 -25.5s-48 8.5 -60 25.5s-18 42.167 -18 75.5h38c0 -18.667 3 -32.5 9 -41.5s16.333 -13.5 31 -13.5
s25 4.5 31 13.5s9 22.833 9 41.5h39z" />
    <glyph glyph-name="Aogonek" unicode="&#x104;" horiz-adv-x="324" 
d="M296 -115l0.000976562 -55.001h-12c-28.667 0 -49.834 6 -63.501 18s-20.5 28.667 -20.5 50c0 20.667 5.5 39.834 16.5 57.501s24.833 32.5 41.5 44.5h-26l-19 160h-103l-19 -160h-64l96 700h78l95 -700c-15.333 -12 -27 -25.167 -35 -39.5s-12 -28.833 -12 -43.5
c0 -21.333 11.667 -32 35 -32h12zM116.001 217.999h90l-44 386z" />
    <glyph glyph-name="aogonek" unicode="&#x105;" horiz-adv-x="313" 
d="M265 -115l0.00390625 -55.002h-12c-28.667 0 -49.834 6 -63.501 18s-20.5 28.667 -20.5 50c0 20.667 5.66699 39.834 17 57.501s25.666 32.834 42.999 45.501l-15 29c-6.66699 -13.333 -15.5 -23.333 -26.5 -30s-25.833 -10 -44.5 -10c-36 0 -61.833 9.5 -77.5 28.5
s-23.5 47.5 -23.5 85.5v64c0 19.333 2.5 36.5 7.5 51.5s13.833 28.5 26.5 40.5s29.5 23.167 50.5 33.5s47.167 20.166 78.5 29.499v73c0 18.667 -3.83301 33.667 -11.5 45s-20.167 17 -37.5 17c-20 0 -33.333 -5.66699 -40 -17s-10 -26.666 -10 -45.999v-23h-59v24
c0 16.667 1.66699 32 5 46s9.16602 26 17.499 36s19.5 17.833 33.5 23.5s31.667 8.5 53 8.5s39 -2.83301 53 -8.5s25.167 -13.5 33.5 -23.5s14.166 -22 17.499 -36s5 -29.333 5 -46v-396c-15.333 -12 -27 -25.167 -35 -39.5s-12 -28.833 -12 -43.5
c0 -21.333 11.667 -32 35 -32h12zM205.004 277.998c-21.333 -6.66699 -38.667 -13.665 -52 -20.998s-23.833 -15.333 -31.5 -24s-12.834 -18.334 -15.501 -29.001s-4 -22.334 -4 -35.001v-65c0 -19.333 3.83301 -34.5 11.5 -45.5s21.167 -16.5 40.5 -16.5
c18.667 0 31.834 5.83301 39.501 17.5s11.5 26.5 11.5 44.5v174z" />
    <glyph glyph-name="Cacute" unicode="&#x106;" horiz-adv-x="329" 
d="M226 200l61 -0.00195312v-88c0 -36 -8.5 -65.333 -25.5 -88s-47.5 -34 -91.5 -34c-23.333 0 -42.5 3 -57.5 9s-27 14.333 -36 25s-15.333 23.5 -19 38.5s-5.5 31.5 -5.5 49.5v475c0 18 1.83301 34.5 5.5 49.5s10 28 19 39s21 19.5 36 25.5s34.167 9 57.5 9
c44 0 74.5 -11.5 91.5 -34.5s25.5 -52.5 25.5 -88.5v-77h-61v77c0 18 -4.33301 33.5 -13 46.5s-23 19.5 -43 19.5c-21.333 0 -35.833 -6.16699 -43.5 -18.5s-11.5 -28.166 -11.5 -47.499v-475c0 -18 4 -33.5 12 -46.5s22.333 -19.5 43 -19.5c21.333 0 36 6.33301 44 19
s12 28.334 12 47.001v88zM213 876.998l-54 -127h-43l38 127h59z" />
    <glyph glyph-name="cacute" unicode="&#x107;" horiz-adv-x="312" 
d="M269 172l0.000976562 -65.999c0 -35.333 -7.5 -63.5 -22.5 -84.5s-44.167 -31.5 -87.5 -31.5c-22 0 -40.167 2.83301 -54.5 8.5s-25.833 13.5 -34.5 23.5s-14.667 22.167 -18 36.5s-5 30.166 -5 47.499v287c0 17.333 1.83301 33.166 5.5 47.499
s9.83398 26.666 18.501 36.999s20.167 18.333 34.5 24s32.166 8.5 53.499 8.5c22 0 40 -2.83301 54 -8.5s25.167 -13.667 33.5 -24s14.166 -22.666 17.499 -36.999s5 -30.166 5 -47.499v-55h-59v55c0 21.333 -3.66699 37.5 -11 48.5s-20.666 16.5 -39.999 16.5
s-32.833 -5.5 -40.5 -16.5s-11.5 -27.167 -11.5 -48.5v-287c0 -20.667 3.83301 -36.5 11.5 -47.5s21.167 -16.5 40.5 -16.5s32.666 5.5 39.999 16.5s11 26.833 11 47.5v66h59zM235.001 677.001l-54 -127h-43l38 127h59z" />
    <glyph glyph-name="Ccircumflex" unicode="&#x108;" horiz-adv-x="329" 
d="M226 200l61 -0.00195312v-88c0 -36 -8.5 -65.333 -25.5 -88s-47.5 -34 -91.5 -34c-23.333 0 -42.5 3 -57.5 9s-27 14.333 -36 25s-15.333 23.5 -19 38.5s-5.5 31.5 -5.5 49.5v475c0 18 1.83301 34.5 5.5 49.5s10 28 19 39s21 19.5 36 25.5s34.167 9 57.5 9
c44 0 74.5 -11.5 91.5 -34.5s25.5 -52.5 25.5 -88.5v-77h-61v77c0 18 -4.33301 33.5 -13 46.5s-23 19.5 -43 19.5c-21.333 0 -35.833 -6.16699 -43.5 -18.5s-11.5 -28.166 -11.5 -47.499v-475c0 -18 4 -33.5 12 -46.5s22.333 -19.5 43 -19.5c21.333 0 36 6.33301 44 19
s12 28.334 12 47.001v88zM190 876.998l56 -127h-44l-38 74l-37 -74h-44l55 127h52z" />
    <glyph glyph-name="ccircumflex" unicode="&#x109;" horiz-adv-x="312" 
d="M269 172l0.000976562 -65.999c0 -35.333 -7.5 -63.5 -22.5 -84.5s-44.167 -31.5 -87.5 -31.5c-22 0 -40.167 2.83301 -54.5 8.5s-25.833 13.5 -34.5 23.5s-14.667 22.167 -18 36.5s-5 30.166 -5 47.499v287c0 17.333 1.83301 33.166 5.5 47.499
s9.83398 26.666 18.501 36.999s20.167 18.333 34.5 24s32.166 8.5 53.499 8.5c22 0 40 -2.83301 54 -8.5s25.167 -13.667 33.5 -24s14.166 -22.666 17.499 -36.999s5 -30.166 5 -47.499v-55h-59v55c0 21.333 -3.66699 37.5 -11 48.5s-20.666 16.5 -39.999 16.5
s-32.833 -5.5 -40.5 -16.5s-11.5 -27.167 -11.5 -48.5v-287c0 -20.667 3.83301 -36.5 11.5 -47.5s21.167 -16.5 40.5 -16.5s32.666 5.5 39.999 16.5s11 26.833 11 47.5v66h59zM181.001 677.001l56 -127h-44l-38 74l-37 -74h-44l55 127h52z" />
    <glyph glyph-name="Cdotaccent" unicode="&#x10a;" horiz-adv-x="329" 
d="M226 200l61 -0.00195312v-88c0 -36 -8.5 -65.333 -25.5 -88s-47.5 -34 -91.5 -34c-23.333 0 -42.5 3 -57.5 9s-27 14.333 -36 25s-15.333 23.5 -19 38.5s-5.5 31.5 -5.5 49.5v475c0 18 1.83301 34.5 5.5 49.5s10 28 19 39s21 19.5 36 25.5s34.167 9 57.5 9
c44 0 74.5 -11.5 91.5 -34.5s25.5 -52.5 25.5 -88.5v-77h-61v77c0 18 -4.33301 33.5 -13 46.5s-23 19.5 -43 19.5c-21.333 0 -35.833 -6.16699 -43.5 -18.5s-11.5 -28.166 -11.5 -47.499v-475c0 -18 4 -33.5 12 -46.5s22.333 -19.5 43 -19.5c21.333 0 36 6.33301 44 19
s12 28.334 12 47.001v88zM195 823.998v-74h-61v74h61z" />
    <glyph glyph-name="cdotaccent" unicode="&#x10b;" horiz-adv-x="312" 
d="M269 172l0.000976562 -65.999c0 -35.333 -7.5 -63.5 -22.5 -84.5s-44.167 -31.5 -87.5 -31.5c-22 0 -40.167 2.83301 -54.5 8.5s-25.833 13.5 -34.5 23.5s-14.667 22.167 -18 36.5s-5 30.166 -5 47.499v287c0 17.333 1.83301 33.166 5.5 47.499
s9.83398 26.666 18.501 36.999s20.167 18.333 34.5 24s32.166 8.5 53.499 8.5c22 0 40 -2.83301 54 -8.5s25.167 -13.667 33.5 -24s14.166 -22.666 17.499 -36.999s5 -30.166 5 -47.499v-55h-59v55c0 21.333 -3.66699 37.5 -11 48.5s-20.666 16.5 -39.999 16.5
s-32.833 -5.5 -40.5 -16.5s-11.5 -27.167 -11.5 -48.5v-287c0 -20.667 3.83301 -36.5 11.5 -47.5s21.167 -16.5 40.5 -16.5s32.666 5.5 39.999 16.5s11 26.833 11 47.5v66h59zM185.001 659.001v-74h-61v74h61z" />
    <glyph glyph-name="Ccaron" unicode="&#x10c;" horiz-adv-x="329" 
d="M226 200l61 -0.00195312v-88c0 -36 -8.5 -65.333 -25.5 -88s-47.5 -34 -91.5 -34c-23.333 0 -42.5 3 -57.5 9s-27 14.333 -36 25s-15.333 23.5 -19 38.5s-5.5 31.5 -5.5 49.5v475c0 18 1.83301 34.5 5.5 49.5s10 28 19 39s21 19.5 36 25.5s34.167 9 57.5 9
c44 0 74.5 -11.5 91.5 -34.5s25.5 -52.5 25.5 -88.5v-77h-61v77c0 18 -4.33301 33.5 -13 46.5s-23 19.5 -43 19.5c-21.333 0 -35.833 -6.16699 -43.5 -18.5s-11.5 -28.166 -11.5 -47.499v-475c0 -18 4 -33.5 12 -46.5s22.333 -19.5 43 -19.5c21.333 0 36 6.33301 44 19
s12 28.334 12 47.001v88zM138 749.998l-55 127h44l37 -74l38 74h44l-56 -127h-52z" />
    <glyph glyph-name="ccaron" unicode="&#x10d;" horiz-adv-x="312" 
d="M269 172l0.000976562 -65.999c0 -35.333 -7.5 -63.5 -22.5 -84.5s-44.167 -31.5 -87.5 -31.5c-22 0 -40.167 2.83301 -54.5 8.5s-25.833 13.5 -34.5 23.5s-14.667 22.167 -18 36.5s-5 30.166 -5 47.499v287c0 17.333 1.83301 33.166 5.5 47.499
s9.83398 26.666 18.501 36.999s20.167 18.333 34.5 24s32.166 8.5 53.499 8.5c22 0 40 -2.83301 54 -8.5s25.167 -13.667 33.5 -24s14.166 -22.666 17.499 -36.999s5 -30.166 5 -47.499v-55h-59v55c0 21.333 -3.66699 37.5 -11 48.5s-20.666 16.5 -39.999 16.5
s-32.833 -5.5 -40.5 -16.5s-11.5 -27.167 -11.5 -48.5v-287c0 -20.667 3.83301 -36.5 11.5 -47.5s21.167 -16.5 40.5 -16.5s32.666 5.5 39.999 16.5s11 26.833 11 47.5v66h59zM129.001 550.001l-55 127h44l37 -74l38 74h44l-56 -127h-52z" />
    <glyph glyph-name="Dcaron" unicode="&#x10e;" horiz-adv-x="358" 
d="M177 60c23.333 0 39.166 5.33398 47.499 16.001s12.5 25.667 12.5 45v458c0 19.333 -4.16699 34.166 -12.5 44.499s-24.166 15.5 -47.499 15.5h-52v-579h52zM62 700.001h116c24 0 43.833 -3 59.5 -9s28.167 -14.167 37.5 -24.5s15.833 -23 19.5 -38s5.5 -31.5 5.5 -49.5
v-458c0 -18 -1.83301 -34.5 -5.5 -49.5s-10 -27.667 -19 -38s-21.167 -18.5 -36.5 -24.5s-35 -9 -59 -9h-118v700zM152 750.001l-55 127h44l37 -74l38 74h44l-56 -127h-52z" />
    <glyph glyph-name="dcaron" unicode="&#x10f;" horiz-adv-x="347" 
d="M239 0l-16 31.001c-14.667 -27.333 -39.334 -41 -74.001 -41c-36 0 -61.167 9.5 -75.5 28.5s-21.5 47.833 -21.5 86.5v289c0 39.333 7 68.5 21 87.5s38.667 28.5 74 28.5c15.333 0 28.833 -3.33301 40.5 -10s20.834 -15.334 27.501 -26.001v236h60v-710h-36zM215 392.001
c0 19.333 -4 35.167 -12 47.5s-21.667 18.5 -41 18.5c-18.667 0 -31.667 -5.83301 -39 -17.5s-11 -27.167 -11 -46.5v-288c0 -19.333 3.66699 -34.833 11 -46.5s20.333 -17.5 39 -17.5c19.333 0 33 5.83301 41 17.5s12 27.167 12 46.5v286zM359 710.002l-27 -160h-27v160h54
z" />
    <glyph glyph-name="Dcroat" unicode="&#x110;" horiz-adv-x="357" 
d="M12 376h49v324h116c24 0 43.833 -3 59.5 -9s28.167 -14.167 37.5 -24.5s15.833 -23 19.5 -38s5.5 -31.5 5.5 -49.5v-458c0 -18 -1.83301 -34.5 -5.5 -49.5s-10 -27.667 -19 -38s-21.167 -18.5 -36.5 -24.5s-35 -9 -59 -9h-118v331h-49v45zM176 60c16 0 28 2.5 36 7.5
s13.833 12 17.5 21s5.66699 19.667 6 32s0.5 25.833 0.5 40.5v386c0 14 -0.5 26.667 -1.5 38s-3.5 21 -7.5 29s-10 14.167 -18 18.5s-19 6.5 -33 6.5h-52v-263h51v-45h-51v-271h52z" />
    <glyph glyph-name="dcroat" unicode="&#x111;" 
d="M140 629l75.002 0.000976562v81h60v-710h-35l-16 31c-14.667 -27.333 -39.667 -41 -75 -41s-60.333 9.5 -75 28.5s-22 47.833 -22 86.5v289c0 39.333 7.16699 68.5 21.5 87.5s39.166 28.5 74.499 28.5c15.333 0 28.666 -3.33301 39.999 -10s20.333 -15.334 27 -26.001
v109h-75v46zM215.002 392.001c0 19.333 -3.83398 35.167 -11.501 47.5s-21.167 18.5 -40.5 18.5s-32.666 -6.5 -39.999 -19.5s-11 -30.167 -11 -51.5v-281c0 -19.333 4 -34.833 12 -46.5s21 -17.5 39 -17.5c21.333 0 35.333 7.66699 42 23s10 35 10 59v268z" />
    <glyph glyph-name="Emacron" unicode="&#x112;" horiz-adv-x="301" 
d="M125 60h136v-60h-199v700h199v-61h-136v-257h117v-58h-117v-264zM65 796h170v-46h-170v46z" />
    <glyph glyph-name="emacron" unicode="&#x113;" horiz-adv-x="317" 
d="M269 172l0.00292969 -65.999c0 -35.333 -7.5 -63.5 -22.5 -84.5s-44.167 -31.5 -87.5 -31.5c-22 0 -40.167 2.83301 -54.5 8.5s-25.833 13.5 -34.5 23.5s-14.667 22.167 -18 36.5s-5 30.166 -5 47.499v287c0 17.333 1.83301 33.166 5.5 47.499s9.66699 26.666 18 36.999
s19.666 18.333 33.999 24s32.5 8.5 54.5 8.5s40 -2.83301 54 -8.5s25.167 -13.667 33.5 -24s14.166 -22.666 17.499 -36.999s5 -30.166 5 -47.499v-145h-162v-142c0 -42.667 17.333 -64 52 -64c19.333 0 32.666 5.5 39.999 16.5s11 26.833 11 47.5v66h59zM210.003 392.001
c0 21.333 -3.66797 37.667 -11.001 49s-20.666 17 -39.999 17s-32.833 -5.5 -40.5 -16.5s-11.5 -27.167 -11.5 -48.5v-98h103v97zM69.002 639.002h170v-46h-170v46z" />
    <glyph glyph-name="Ebreve" unicode="&#x114;" horiz-adv-x="301" 
d="M125 60h136v-60h-199v700h199v-61h-136v-257h117v-58h-117v-264zM229 836c0 -33.333 -6.16699 -58.5 -18.5 -75.5s-32.5 -25.5 -60.5 -25.5s-48 8.5 -60 25.5s-18 42.167 -18 75.5h38c0 -18.667 3 -32.5 9 -41.5s16.333 -13.5 31 -13.5s25 4.5 31 13.5s9 22.833 9 41.5
h39z" />
    <glyph glyph-name="ebreve" unicode="&#x115;" horiz-adv-x="317" 
d="M269 172l0.00292969 -65.999c0 -35.333 -7.5 -63.5 -22.5 -84.5s-44.167 -31.5 -87.5 -31.5c-22 0 -40.167 2.83301 -54.5 8.5s-25.833 13.5 -34.5 23.5s-14.667 22.167 -18 36.5s-5 30.166 -5 47.499v287c0 17.333 1.83301 33.166 5.5 47.499s9.66699 26.666 18 36.999
s19.666 18.333 33.999 24s32.5 8.5 54.5 8.5s40 -2.83301 54 -8.5s25.167 -13.667 33.5 -24s14.166 -22.666 17.499 -36.999s5 -30.166 5 -47.499v-145h-162v-142c0 -42.667 17.333 -64 52 -64c19.333 0 32.666 5.5 39.999 16.5s11 26.833 11 47.5v66h59zM210.003 392.001
c0 21.333 -3.66797 37.667 -11.001 49s-20.666 17 -39.999 17s-32.833 -5.5 -40.5 -16.5s-11.5 -27.167 -11.5 -48.5v-98h103v97zM232.002 658.002c0 -33.333 -6.16699 -58.5 -18.5 -75.5s-32.5 -25.5 -60.5 -25.5s-48 8.5 -60 25.5s-18 42.167 -18 75.5h38
c0 -18.667 3 -32.5 9 -41.5s16.333 -13.5 31 -13.5s25 4.5 31 13.5s9 22.833 9 41.5h39z" />
    <glyph glyph-name="Edotaccent" unicode="&#x116;" horiz-adv-x="301" 
d="M125 60h136v-60h-199v700h199v-61h-136v-257h117v-58h-117v-264zM181 824v-74h-61v74h61z" />
    <glyph glyph-name="edotaccent" unicode="&#x117;" horiz-adv-x="317" 
d="M269 172l0.00292969 -65.999c0 -35.333 -7.5 -63.5 -22.5 -84.5s-44.167 -31.5 -87.5 -31.5c-22 0 -40.167 2.83301 -54.5 8.5s-25.833 13.5 -34.5 23.5s-14.667 22.167 -18 36.5s-5 30.166 -5 47.499v287c0 17.333 1.83301 33.166 5.5 47.499s9.66699 26.666 18 36.999
s19.666 18.333 33.999 24s32.5 8.5 54.5 8.5s40 -2.83301 54 -8.5s25.167 -13.667 33.5 -24s14.166 -22.666 17.499 -36.999s5 -30.166 5 -47.499v-145h-162v-142c0 -42.667 17.333 -64 52 -64c19.333 0 32.666 5.5 39.999 16.5s11 26.833 11 47.5v66h59zM210.003 392.001
c0 21.333 -3.66797 37.667 -11.001 49s-20.666 17 -39.999 17s-32.833 -5.5 -40.5 -16.5s-11.5 -27.167 -11.5 -48.5v-98h103v97zM184.002 659.002v-74h-61v74h61z" />
    <glyph glyph-name="Eogonek" unicode="&#x118;" horiz-adv-x="304" 
d="M261 -115l0.000976562 -55.001h-12c-28.667 0 -49.834 6 -63.501 18s-20.5 28.667 -20.5 50c0 20.667 5.5 39.834 16.5 57.501s24.833 32.5 41.5 44.5h-161v700h199v-61h-136v-257h117v-58h-117v-264h136v-60c-15.333 -12 -27 -25.167 -35 -39.5s-12 -28.833 -12 -43.5
c0 -21.333 11.667 -32 35 -32h12z" />
    <glyph glyph-name="eogonek" unicode="&#x119;" horiz-adv-x="317" 
d="M225 -109l-0.000976562 -54h-12c-28 0 -48.833 6 -62.5 18s-20.5 28.667 -20.5 50c0 16.667 3.5 32.334 10.5 47.001s16.167 27.667 27.5 39c-1.33301 0 -3 -0.166992 -5 -0.5s-3.66699 -0.5 -5 -0.5c-43.333 0 -72.666 10.5 -87.999 31.5s-23 49.167 -23 84.5v287
c0 17.333 1.66699 33.166 5 47.499s9.33301 26.666 18 36.999s20.167 18.333 34.5 24s32.166 8.5 53.499 8.5c22 0 40 -2.83301 54 -8.5s25.333 -13.667 34 -24s14.667 -22.666 18 -36.999s5 -30.166 5 -47.499v-145h-162v-142c0 -21.333 3.83301 -37.333 11.5 -48
s20.834 -16 39.501 -16c19.333 0 32.833 5.5 40.5 16.5s11.5 26.833 11.5 47.5v66h59v-66c0 -24.667 -3.5 -45.834 -10.5 -63.501s-19.833 -31.167 -38.5 -40.5c-13.333 -11.333 -23.5 -23.833 -30.5 -37.5s-10.5 -27.5 -10.5 -41.5c0 -21.333 11.667 -32 35 -32h11z
M209.999 372c0 28 -3.00098 49.333 -9.00098 64s-20.333 22 -43 22c-19.333 0 -32.666 -5.5 -39.999 -16.5s-11 -27.167 -11 -48.5v-98h103v77z" />
    <glyph glyph-name="Ecaron" unicode="&#x11a;" horiz-adv-x="301" 
d="M125 60h136v-60h-199v700h199v-61h-136v-257h117v-58h-117v-264zM124 750l-55 127h44l37 -74l38 74h44l-56 -127h-52z" />
    <glyph glyph-name="ecaron" unicode="&#x11b;" horiz-adv-x="317" 
d="M269 172l0.00292969 -65.999c0 -35.333 -7.5 -63.5 -22.5 -84.5s-44.167 -31.5 -87.5 -31.5c-22 0 -40.167 2.83301 -54.5 8.5s-25.833 13.5 -34.5 23.5s-14.667 22.167 -18 36.5s-5 30.166 -5 47.499v287c0 17.333 1.83301 33.166 5.5 47.499s9.66699 26.666 18 36.999
s19.666 18.333 33.999 24s32.5 8.5 54.5 8.5s40 -2.83301 54 -8.5s25.167 -13.667 33.5 -24s14.166 -22.666 17.499 -36.999s5 -30.166 5 -47.499v-145h-162v-142c0 -42.667 17.333 -64 52 -64c19.333 0 32.666 5.5 39.999 16.5s11 26.833 11 47.5v66h59zM210.003 392.001
c0 21.333 -3.66797 37.667 -11.001 49s-20.666 17 -39.999 17s-32.833 -5.5 -40.5 -16.5s-11.5 -27.167 -11.5 -48.5v-98h103v97zM127.002 550.002l-55 127h44l37 -74l38 74h44l-56 -127h-52z" />
    <glyph glyph-name="Gcircumflex" unicode="&#x11c;" horiz-adv-x="346" 
d="M175 382l118 0.000976562v-270c0 -18 -1.83301 -34.5 -5.5 -49.5s-10 -27.833 -19 -38.5s-21.167 -19 -36.5 -25s-34.333 -9 -57 -9c-23.333 0 -42.5 3 -57.5 9s-27 14.333 -36 25s-15.333 23.5 -19 38.5s-5.5 31.5 -5.5 49.5v476c0 18 1.83301 34.5 5.5 49.5
s10 27.833 19 38.5s21 19 36 25s34.167 9 57.5 9c22.667 0 41.5 -3 56.5 -9s27 -14.333 36 -25s15.333 -23.5 19 -38.5s5.5 -31.5 5.5 -49.5v-78h-62v78c0 17.333 -4 32.5 -12 45.5s-22.333 19.5 -43 19.5c-21.333 0 -35.833 -6 -43.5 -18s-11.5 -27.667 -11.5 -47v-476
c0 -18 4 -33.5 12 -46.5s22.333 -19.5 43 -19.5c21.333 0 35.833 6.16699 43.5 18.5s11.5 28.166 11.5 47.499v212h-55v58zM198 877.001l56 -127h-44l-38 74l-37 -74h-44l55 127h52z" />
    <glyph glyph-name="gcircumflex" unicode="&#x11d;" horiz-adv-x="318" 
d="M155 113c-27.333 0 -41.001 -9.33203 -41.001 -27.999s13.667 -28 41 -28c46.667 0 79.167 -10 97.5 -30s27.5 -46.667 27.5 -80v-9c0 -30.667 -9.16699 -56.334 -27.5 -77.001s-50.5 -31 -96.5 -31c-45.333 0 -77.333 10 -96 30s-28 46 -28 78v9
c0 23.333 4.66699 43.666 14 60.999s25.666 30.333 48.999 39c-17.333 8 -26 20.667 -26 38s9.33301 30 28 38c-20.667 8.66699 -34.667 22.167 -42 40.5s-11 40.5 -11 66.5v162c0 17.333 1.66699 33.333 5 48s9.33301 27.167 18 37.5s20 18.333 34 24s32 8.5 54 8.5
c9.33301 0 17.833 -0.666992 25.5 -2s14.834 -3 21.501 -5c6.66699 19.333 16 33.833 28 43.5s26 14.5 42 14.5c11.333 0 21 -1.33301 29 -4v-47l-14.5 3.5c-4.33301 1 -10.166 1.5 -17.499 1.5c-18.667 0 -32.334 -8 -41.001 -24c14.667 -10 24.834 -23.5 30.501 -40.5
s8.5 -36.5 8.5 -58.5v-162c0 -35.333 -7.83301 -63.666 -23.5 -84.999s-45.167 -32 -88.5 -32zM154.999 458.001c-20.667 0 -34.332 -5.83496 -40.999 -17.502s-10 -29.167 -10 -52.5v-160c0 -21.333 3.66699 -37.666 11 -48.999s20.666 -17 39.999 -17
s32.833 5.33301 40.5 16s11.5 28.667 11.5 54v160c0 20.667 -3.83301 36.834 -11.5 48.501s-21.167 17.5 -40.5 17.5zM156.001 13.999c-23.333 0 -40 -5.33301 -50 -16s-15 -26 -15 -46v-9c0 -40.667 21.667 -61 65 -61c23.333 0 40 5.16699 50 15.5s15 25.5 15 45.5v9
c0 20.667 -5 36.167 -15 46.5s-26.667 15.5 -50 15.5zM175.001 676.999l56 -127h-44l-38 74l-37 -74h-44l55 127h52z" />
    <glyph glyph-name="Gbreve" unicode="&#x11e;" horiz-adv-x="346" 
d="M175 382l118 0.000976562v-270c0 -18 -1.83301 -34.5 -5.5 -49.5s-10 -27.833 -19 -38.5s-21.167 -19 -36.5 -25s-34.333 -9 -57 -9c-23.333 0 -42.5 3 -57.5 9s-27 14.333 -36 25s-15.333 23.5 -19 38.5s-5.5 31.5 -5.5 49.5v476c0 18 1.83301 34.5 5.5 49.5
s10 27.833 19 38.5s21 19 36 25s34.167 9 57.5 9c22.667 0 41.5 -3 56.5 -9s27 -14.333 36 -25s15.333 -23.5 19 -38.5s5.5 -31.5 5.5 -49.5v-78h-62v78c0 17.333 -4 32.5 -12 45.5s-22.333 19.5 -43 19.5c-21.333 0 -35.833 -6 -43.5 -18s-11.5 -27.667 -11.5 -47v-476
c0 -18 4 -33.5 12 -46.5s22.333 -19.5 43 -19.5c21.333 0 35.833 6.16699 43.5 18.5s11.5 28.166 11.5 47.499v212h-55v58zM251 836.001c0 -33.333 -6.16699 -58.5 -18.5 -75.5s-32.5 -25.5 -60.5 -25.5s-48 8.5 -60 25.5s-18 42.167 -18 75.5h38c0 -18.667 3 -32.5 9 -41.5
s16.333 -13.5 31 -13.5s25 4.5 31 13.5s9 22.833 9 41.5h39z" />
    <glyph glyph-name="gbreve" unicode="&#x11f;" horiz-adv-x="318" 
d="M155 113c-27.333 0 -41.001 -9.33203 -41.001 -27.999s13.667 -28 41 -28c46.667 0 79.167 -10 97.5 -30s27.5 -46.667 27.5 -80v-9c0 -30.667 -9.16699 -56.334 -27.5 -77.001s-50.5 -31 -96.5 -31c-45.333 0 -77.333 10 -96 30s-28 46 -28 78v9
c0 23.333 4.66699 43.666 14 60.999s25.666 30.333 48.999 39c-17.333 8 -26 20.667 -26 38s9.33301 30 28 38c-20.667 8.66699 -34.667 22.167 -42 40.5s-11 40.5 -11 66.5v162c0 17.333 1.66699 33.333 5 48s9.33301 27.167 18 37.5s20 18.333 34 24s32 8.5 54 8.5
c9.33301 0 17.833 -0.666992 25.5 -2s14.834 -3 21.501 -5c6.66699 19.333 16 33.833 28 43.5s26 14.5 42 14.5c11.333 0 21 -1.33301 29 -4v-47l-14.5 3.5c-4.33301 1 -10.166 1.5 -17.499 1.5c-18.667 0 -32.334 -8 -41.001 -24c14.667 -10 24.834 -23.5 30.501 -40.5
s8.5 -36.5 8.5 -58.5v-162c0 -35.333 -7.83301 -63.666 -23.5 -84.999s-45.167 -32 -88.5 -32zM154.999 458.001c-20.667 0 -34.332 -5.83496 -40.999 -17.502s-10 -29.167 -10 -52.5v-160c0 -21.333 3.66699 -37.666 11 -48.999s20.666 -17 39.999 -17
s32.833 5.33301 40.5 16s11.5 28.667 11.5 54v160c0 20.667 -3.83301 36.834 -11.5 48.501s-21.167 17.5 -40.5 17.5zM156.001 13.999c-23.333 0 -40 -5.33301 -50 -16s-15 -26 -15 -46v-9c0 -40.667 21.667 -61 65 -61c23.333 0 40 5.16699 50 15.5s15 25.5 15 45.5v9
c0 20.667 -5 36.167 -15 46.5s-26.667 15.5 -50 15.5zM229.001 657.999c0 -33.333 -6.16699 -58.5 -18.5 -75.5s-32.5 -25.5 -60.5 -25.5s-48 8.5 -60 25.5s-18 42.167 -18 75.5h38c0 -18.667 3 -32.5 9 -41.5s16.333 -13.5 31 -13.5s25 4.5 31 13.5s9 22.833 9 41.5h39z
" />
    <glyph glyph-name="Gdotaccent" unicode="&#x120;" horiz-adv-x="346" 
d="M175 382l118 0.000976562v-270c0 -18 -1.83301 -34.5 -5.5 -49.5s-10 -27.833 -19 -38.5s-21.167 -19 -36.5 -25s-34.333 -9 -57 -9c-23.333 0 -42.5 3 -57.5 9s-27 14.333 -36 25s-15.333 23.5 -19 38.5s-5.5 31.5 -5.5 49.5v476c0 18 1.83301 34.5 5.5 49.5
s10 27.833 19 38.5s21 19 36 25s34.167 9 57.5 9c22.667 0 41.5 -3 56.5 -9s27 -14.333 36 -25s15.333 -23.5 19 -38.5s5.5 -31.5 5.5 -49.5v-78h-62v78c0 17.333 -4 32.5 -12 45.5s-22.333 19.5 -43 19.5c-21.333 0 -35.833 -6 -43.5 -18s-11.5 -27.667 -11.5 -47v-476
c0 -18 4 -33.5 12 -46.5s22.333 -19.5 43 -19.5c21.333 0 35.833 6.16699 43.5 18.5s11.5 28.166 11.5 47.499v212h-55v58zM203 824.001v-74h-61v74h61z" />
    <glyph glyph-name="gdotaccent" unicode="&#x121;" horiz-adv-x="318" 
d="M155 113c-27.333 0 -41.001 -9.33203 -41.001 -27.999s13.667 -28 41 -28c46.667 0 79.167 -10 97.5 -30s27.5 -46.667 27.5 -80v-9c0 -30.667 -9.16699 -56.334 -27.5 -77.001s-50.5 -31 -96.5 -31c-45.333 0 -77.333 10 -96 30s-28 46 -28 78v9
c0 23.333 4.66699 43.666 14 60.999s25.666 30.333 48.999 39c-17.333 8 -26 20.667 -26 38s9.33301 30 28 38c-20.667 8.66699 -34.667 22.167 -42 40.5s-11 40.5 -11 66.5v162c0 17.333 1.66699 33.333 5 48s9.33301 27.167 18 37.5s20 18.333 34 24s32 8.5 54 8.5
c9.33301 0 17.833 -0.666992 25.5 -2s14.834 -3 21.501 -5c6.66699 19.333 16 33.833 28 43.5s26 14.5 42 14.5c11.333 0 21 -1.33301 29 -4v-47l-14.5 3.5c-4.33301 1 -10.166 1.5 -17.499 1.5c-18.667 0 -32.334 -8 -41.001 -24c14.667 -10 24.834 -23.5 30.501 -40.5
s8.5 -36.5 8.5 -58.5v-162c0 -35.333 -7.83301 -63.666 -23.5 -84.999s-45.167 -32 -88.5 -32zM154.999 458.001c-20.667 0 -34.332 -5.83496 -40.999 -17.502s-10 -29.167 -10 -52.5v-160c0 -21.333 3.66699 -37.666 11 -48.999s20.666 -17 39.999 -17
s32.833 5.33301 40.5 16s11.5 28.667 11.5 54v160c0 20.667 -3.83301 36.834 -11.5 48.501s-21.167 17.5 -40.5 17.5zM156.001 13.999c-23.333 0 -40 -5.33301 -50 -16s-15 -26 -15 -46v-9c0 -40.667 21.667 -61 65 -61c23.333 0 40 5.16699 50 15.5s15 25.5 15 45.5v9
c0 20.667 -5 36.167 -15 46.5s-26.667 15.5 -50 15.5zM181.001 658.999v-74h-61v74h61z" />
    <glyph glyph-name="Gcommaaccent" unicode="&#x122;" horiz-adv-x="351" 
d="M175 382l118 0.000976562v-270c0 -18 -1.83301 -34.5 -5.5 -49.5s-10 -27.833 -19 -38.5s-21.167 -19 -36.5 -25s-34.333 -9 -57 -9c-23.333 0 -42.5 3 -57.5 9s-27 14.333 -36 25s-15.333 23.5 -19 38.5s-5.5 31.5 -5.5 49.5v476c0 18 1.83301 34.5 5.5 49.5
s10 27.833 19 38.5s21 19 36 25s34.167 9 57.5 9c22.667 0 41.5 -3 56.5 -9s27 -14.333 36 -25s15.333 -23.5 19 -38.5s5.5 -31.5 5.5 -49.5v-78h-62v78c0 17.333 -4 32.5 -12 45.5s-22.333 19.5 -43 19.5c-21.333 0 -35.833 -6 -43.5 -18s-11.5 -27.667 -11.5 -47v-476
c0 -18 4 -33.5 12 -46.5s22.333 -19.5 43 -19.5c21.333 0 35.833 6.16699 43.5 18.5s11.5 28.166 11.5 47.499v212h-55v58zM203 -47.999l-26 -122h-37v122h63z" />
    <glyph glyph-name="gcommaaccent" unicode="&#x123;" horiz-adv-x="318" 
d="M155 113c-27.333 0 -41.001 -9.33203 -41.001 -27.999s13.667 -28 41 -28c46.667 0 79.167 -10 97.5 -30s27.5 -46.667 27.5 -80v-9c0 -30.667 -9.16699 -56.334 -27.5 -77.001s-50.5 -31 -96.5 -31c-45.333 0 -77.333 10 -96 30s-28 46 -28 78v9
c0 23.333 4.66699 43.666 14 60.999s25.666 30.333 48.999 39c-17.333 8 -26 20.667 -26 38s9.33301 30 28 38c-20.667 8.66699 -34.667 22.167 -42 40.5s-11 40.5 -11 66.5v162c0 17.333 1.66699 33.333 5 48s9.33301 27.167 18 37.5s20 18.333 34 24s32 8.5 54 8.5
c9.33301 0 17.833 -0.666992 25.5 -2s14.834 -3 21.501 -5c6.66699 19.333 16 33.833 28 43.5s26 14.5 42 14.5c11.333 0 21 -1.33301 29 -4v-47l-14.5 3.5c-4.33301 1 -10.166 1.5 -17.499 1.5c-18.667 0 -32.334 -8 -41.001 -24c14.667 -10 24.834 -23.5 30.501 -40.5
s8.5 -36.5 8.5 -58.5v-162c0 -35.333 -7.83301 -63.666 -23.5 -84.999s-45.167 -32 -88.5 -32zM154.999 458.001c-20.667 0 -34.332 -5.83496 -40.999 -17.502s-10 -29.167 -10 -52.5v-160c0 -21.333 3.66699 -37.666 11 -48.999s20.666 -17 39.999 -17
s32.833 5.33301 40.5 16s11.5 28.667 11.5 54v160c0 20.667 -3.83301 36.834 -11.5 48.501s-21.167 17.5 -40.5 17.5zM156.001 13.999c-23.333 0 -40 -5.33301 -50 -16s-15 -26 -15 -46v-9c0 -40.667 21.667 -61 65 -61c23.333 0 40 5.16699 50 15.5s15 25.5 15 45.5v9
c0 20.667 -5 36.167 -15 46.5s-26.667 15.5 -50 15.5zM129.001 545.999l26 122h37v-122h-63z" />
    <glyph glyph-name="Hcircumflex" unicode="&#x124;" horiz-adv-x="364" 
d="M125 0h-63v700h63v-318h113v318h63v-700h-63v324h-113v-324zM207 877l56 -127h-44l-38 74l-37 -74h-44l55 127h52z" />
    <glyph glyph-name="hcircumflex" unicode="&#x125;" horiz-adv-x="323" 
d="M203 677l55.999 -126.999h-44l-38 74l-37 -74h-28v-77c6.66699 11.333 15.834 20.333 27.501 27s24.834 10 39.501 10c35.333 0 60.166 -9.5 74.499 -28.5s21.5 -47.833 21.5 -86.5v-395h-60v395c0 19.333 -3.66699 34.666 -11 45.999s-20.333 17 -39 17
c-19.333 0 -33 -5.83301 -41 -17.5s-12 -27.167 -12 -46.5v-394h-60v710h60v-123l39 90h52z" />
    <glyph glyph-name="Hbar" unicode="&#x126;" horiz-adv-x="364" 
d="M26 556h36v144h63v-144h113v144h63v-144h36v-34h-36v-522h-63v324h-113v-324h-63v522h-36v34zM238 382v140h-113v-140h113z" />
    <glyph glyph-name="hbar" unicode="&#x127;" horiz-adv-x="323" 
d="M49 0l-0.000976562 710h60v-81h150v-46h-150v-110c6.66699 11.333 15.834 20.333 27.501 27s24.834 10 39.501 10c35.333 0 60.166 -9.5 74.499 -28.5s21.5 -47.833 21.5 -86.5v-395h-60v395c0 18.667 -3.83301 33.834 -11.5 45.501s-20.834 17.5 -39.501 17.5
c-13.333 0 -23.5 -3.16699 -30.5 -9.5s-12.167 -14.5 -15.5 -24.5s-5.16602 -21.333 -5.49902 -34s-0.5 -25.334 -0.5 -38.001v-352h-60z" />
    <glyph glyph-name="Itilde" unicode="&#x128;" horiz-adv-x="188" 
d="M62 700h63v-700h-63v700zM142 750c-12.667 0 -23.0029 2.16504 -31.0029 6.49805s-15 9.16602 -21 14.499s-12.167 10.166 -18.5 14.499s-13.833 6.5 -22.5 6.5c-10.667 0 -18 -2.66699 -22 -8s-6 -13.333 -6 -24h-38c0 26.667 4.33301 46.834 13 60.501
s25.334 20.5 50.001 20.5c12.667 0 22.834 -2.16699 30.501 -6.5s14.667 -9.16602 21 -14.499s12.5 -10.166 18.5 -14.499s13.667 -6.5 23 -6.5c10.667 0 18 2.66699 22 8s6 13.333 6 24h38c0 -27.333 -4.66699 -47.666 -14 -60.999s-25.666 -20 -48.999 -20z" />
    <glyph glyph-name="itilde" unicode="&#x129;" horiz-adv-x="161" 
d="M129 560c-12.667 0 -23.0029 2.16504 -31.0029 6.49805s-15 9.16602 -21 14.499s-12.167 10.166 -18.5 14.499s-13.833 6.5 -22.5 6.5c-10.667 0 -18 -2.66699 -22 -8s-6 -13.333 -6 -24h-38c0 26.667 4.33301 46.834 13 60.501s25.334 20.5 50.001 20.5
c12.667 0 22.834 -2.16699 30.501 -6.5s14.667 -9.16602 21 -14.499s12.5 -10.166 18.5 -14.499s13.667 -6.5 23 -6.5c10.667 0 18 2.66699 22 8s6 13.333 6 24h38c0 -27.333 -4.66699 -47.666 -14 -60.999s-25.666 -20 -48.999 -20zM109.997 499.998v-500h-60v500h60z" />
    <glyph glyph-name="Imacron" unicode="&#x12a;" horiz-adv-x="188" 
d="M62 700h63v-700h-63v700zM9 796h170v-46h-170v46z" />
    <glyph glyph-name="imacron" unicode="&#x12b;" horiz-adv-x="161" 
d="M-5 639h170v-46h-170v46zM110 500v-500h-60v500h60z" />
    <glyph glyph-name="Ibreve" unicode="&#x12c;" horiz-adv-x="188" 
d="M62 700h63v-700h-63v700zM173 836c0 -33.333 -6.16699 -58.5 -18.5 -75.5s-32.5 -25.5 -60.5 -25.5s-48 8.5 -60 25.5s-18 42.167 -18 75.5h38c0 -18.667 3 -32.5 9 -41.5s16.333 -13.5 31 -13.5s25 4.5 31 13.5s9 22.833 9 41.5h39z" />
    <glyph glyph-name="ibreve" unicode="&#x12d;" horiz-adv-x="161" 
d="M159 658c0 -33.333 -6.16699 -58.5 -18.5 -75.5s-32.5 -25.5 -60.5 -25.5s-48 8.5 -60 25.5s-18 42.167 -18 75.5h38c0 -18.667 3 -32.5 9 -41.5s16.333 -13.5 31 -13.5s25 4.5 31 13.5s9 22.833 9 41.5h39zM110 500v-500h-60v500h60z" />
    <glyph glyph-name="Iogonek" unicode="&#x12e;" horiz-adv-x="188" 
d="M62 700l63.001 -0.000976562v-700c-15.333 -12 -27 -25.167 -35 -39.5s-12 -28.833 -12 -43.5c0 -21.333 11.667 -32 35 -32h12v-55h-12c-28.667 0 -49.834 6 -63.501 18s-20.5 28.667 -20.5 50c0 20.667 5.5 39.834 16.5 57.501s24.833 32.5 41.5 44.5h-25v700z" />
    <glyph glyph-name="iogonek" unicode="&#x12f;" horiz-adv-x="161" 
d="M110 -115l0.000976562 -55.001h-12c-28.667 0 -49.834 6 -63.501 18s-20.5 28.667 -20.5 50c0 20.667 5.5 39.834 16.5 57.501s24.833 32.5 41.5 44.5h-22v500h60v-500c-15.333 -12 -27 -25.167 -35 -39.5s-12 -28.833 -12 -43.5c0 -21.333 11.667 -32 35 -32h12z
M110.001 657.999v-74h-61v74h61z" />
    <glyph glyph-name="Idotaccent" unicode="&#x130;" horiz-adv-x="188" 
d="M62 700h63v-700h-63v700zM124 824v-74h-61v74h61z" />
    <glyph glyph-name="dotlessi" unicode="&#x131;" horiz-adv-x="161" 
d="M110 500v-500h-60v500h60z" />
    <glyph glyph-name="Jcircumflex" unicode="&#x134;" horiz-adv-x="322" 
d="M95 111c0 -18 3.49902 -33.332 10.499 -45.999s20.5 -19 40.5 -19c20.667 0 34.167 6 40.5 18s9.5 27.667 9.5 47v589h63v-589c0 -18 -1.66699 -34.5 -5 -49.5s-9.33301 -27.833 -18 -38.5s-20.167 -18.834 -34.5 -24.501s-32.833 -8.5 -55.5 -8.5
c-43.333 0 -73.166 11.167 -89.499 33.5s-24.5 51.5 -24.5 87.5v89h63v-89zM185.999 877.001l56 -127h-44l-38 74l-37 -74h-44l55 127h52z" />
    <glyph glyph-name="jcircumflex" unicode="&#x135;" horiz-adv-x="164" 
d="M50 500l60 0.000976562v-558c0 -36.667 -7.33301 -64.5 -22 -83.5s-43 -28.5 -85 -28.5c-6 0 -12.5 0.5 -19.5 1.5s-13.167 2.5 -18.5 4.5v53c9.33301 -4.66699 21.333 -7 36 -7c18.667 0 31.5 4.66699 38.5 14s10.5 24.666 10.5 45.999v558zM106 677.001l56 -127h-44
l-38 74l-37 -74h-44l55 127h52z" />
    <glyph glyph-name="Kcommaaccent" unicode="&#x136;" horiz-adv-x="330" 
d="M125 380l116 320h70l-135 -347l141 -353h-69l-123 326v-326h-63v700h63v-320zM211 -48l-26 -122h-37v122h63z" />
    <glyph glyph-name="kcommaaccent" unicode="&#x137;" horiz-adv-x="298" 
d="M112 282l97 218h66l-113 -241l123 -259h-67l-106 234v-234h-60v710h60v-428zM177 -48l-26 -122h-37v122h63z" />
    <glyph glyph-name="kgreenlandic" unicode="&#x138;" horiz-adv-x="298" 
d="M112 282l97 218h66l-113 -241l123 -259h-67l-106 234v-234h-60v500h60v-218z" />
    <glyph glyph-name="Lacute" unicode="&#x139;" horiz-adv-x="258" 
d="M62 700h63v-640h110v-60h-173v700zM166 877l-54 -127h-43l38 127h59z" />
    <glyph glyph-name="lacute" unicode="&#x13a;" horiz-adv-x="160" 
d="M112 710v-710h-60v710h60zM155 877l-54 -127h-43l38 127h59z" />
    <glyph glyph-name="Lcommaaccent" unicode="&#x13b;" horiz-adv-x="252" 
d="M62 700h63v-640h110v-60h-173v700zM174 -48l-26 -122h-37v122h63z" />
    <glyph glyph-name="lcommaaccent" unicode="&#x13c;" horiz-adv-x="160" 
d="M112 710v-710h-60v710h60zM110 -48l-26 -122h-37v122h63z" />
    <glyph glyph-name="Lcaron" unicode="&#x13d;" horiz-adv-x="252" 
d="M62 700h63v-640h110v-60h-173v700zM209 710l-27 -160h-27v160h54z" />
    <glyph glyph-name="lcaron" unicode="&#x13e;" horiz-adv-x="160" 
d="M112 710v-710h-60v710h60zM189 710l-27 -160h-27v160h54z" />
    <glyph glyph-name="Ldot" unicode="&#x13f;" horiz-adv-x="252" 
d="M62 700h63v-640h110v-60h-173v700zM215 318v-77h-67v77h67z" />
    <glyph glyph-name="ldot" unicode="&#x140;" horiz-adv-x="216" 
d="M112 710v-710h-60v710h60zM217 318v-77h-67v77h67z" />
    <glyph glyph-name="Lslash" unicode="&#x141;" horiz-adv-x="258" 
d="M9 286l53 20v394h63v-371l65 25v-46l-65 -25v-223h110v-60h-173v261l-53 -21v46z" />
    <glyph glyph-name="lslash" unicode="&#x142;" horiz-adv-x="160" 
d="M109 710v-381l57 21v-46l-57 -21v-283h-60v261l-56 -21v46l56 21v403h60z" />
    <glyph glyph-name="Nacute" unicode="&#x143;" horiz-adv-x="386" 
d="M117 546l4 -157.999c1.33301 -51.333 2 -105.333 2 -162v-226h-61v700h62l147 -547l-4 160c-1.33301 51.333 -2 104.666 -2 159.999v227h61v-700h-62zM270 877.001l-54 -127h-43l38 127h59z" />
    <glyph glyph-name="nacute" unicode="&#x144;" 
d="M52 0l0.00195312 500.002h36l16 -32c7.33301 13.333 17.166 23.666 29.499 30.999s27.166 11 44.499 11c36 0 61.167 -9.5 75.5 -28.5s21.5 -47.833 21.5 -86.5v-395h-60v395c0 19.333 -3.66699 34.666 -11 45.999s-20.333 17 -39 17c-19.333 0 -33 -5.66699 -41 -17
s-12 -27 -12 -47v-394h-60zM241.002 677.002l-54 -127h-43l38 127h59z" />
    <glyph glyph-name="Ncommaaccent" unicode="&#x145;" horiz-adv-x="389" 
d="M117 546l4 -157.999c1.33301 -51.333 2 -105.333 2 -162v-226h-61v700h62l147 -547l-4 160c-1.33301 51.333 -2 104.666 -2 159.999v227h61v-700h-62zM225 -47.999l-26 -122h-37v122h63z" />
    <glyph glyph-name="ncommaaccent" unicode="&#x146;" 
d="M52 0l0.00195312 500.002h36l16 -32c7.33301 13.333 17.166 23.666 29.499 30.999s27.166 11 44.499 11c36 0 61.167 -9.5 75.5 -28.5s21.5 -47.833 21.5 -86.5v-395h-60v395c0 19.333 -3.66699 34.666 -11 45.999s-20.333 17 -39 17c-19.333 0 -33 -5.66699 -41 -17
s-12 -27 -12 -47v-394h-60zM195.002 -47.998l-26 -122h-37v122h63z" />
    <glyph glyph-name="Ncaron" unicode="&#x147;" horiz-adv-x="386" 
d="M117 546l4 -157.999c1.33301 -51.333 2 -105.333 2 -162v-226h-61v700h62l147 -547l-4 160c-1.33301 51.333 -2 104.666 -2 159.999v227h61v-700h-62zM166 750.001l-55 127h44l37 -74l38 74h44l-56 -127h-52z" />
    <glyph glyph-name="ncaron" unicode="&#x148;" 
d="M52 0l0.00195312 500.002h36l16 -32c7.33301 13.333 17.166 23.666 29.499 30.999s27.166 11 44.499 11c36 0 61.167 -9.5 75.5 -28.5s21.5 -47.833 21.5 -86.5v-395h-60v395c0 19.333 -3.66699 34.666 -11 45.999s-20.333 17 -39 17c-19.333 0 -33 -5.66699 -41 -17
s-12 -27 -12 -47v-394h-60zM137.002 550.002l-55 127h44l37 -74l38 74h44l-56 -127h-52z" />
    <glyph glyph-name="Eng" unicode="&#x14a;" horiz-adv-x="389" 
d="M266 0l-74.999 272.501l-74 272.5l4 -150c1.33301 -48 2 -99 2 -153v-242h-61v700h62l147 -545c-2 52 -3.5 102.333 -4.5 151s-1.5 99 -1.5 151v243h61v-758c0 -36.667 -7.33301 -64.5 -22 -83.5s-43 -28.5 -85 -28.5c-6.66699 0 -13.5 0.5 -20.5 1.5
s-13.167 2.5 -18.5 4.5v53c9.33301 -4.66699 21.666 -7 36.999 -7c18.667 0 31.5 4.66699 38.5 14s10.5 24.666 10.5 45.999v58z" />
    <glyph glyph-name="eng" unicode="&#x14b;" 
d="M215 395c0 18.667 -3.83008 33.835 -11.4971 45.502s-20.834 17.5 -39.501 17.5s-32 -6 -40 -18s-12 -27.333 -12 -46v-394h-60v500h36l16 -32c7.33301 13.333 17.166 23.666 29.499 30.999s27.166 11 44.499 11c36 0 61.167 -9.5 75.5 -28.5s21.5 -47.833 21.5 -86.5
v-453c0 -36.667 -7.16699 -64.5 -21.5 -83.5s-42.5 -28.5 -84.5 -28.5c-6.66699 0 -13.5 0.5 -20.5 1.5s-13.167 2.5 -18.5 4.5v53c9.33301 -4.66699 21.333 -7 36 -7c18.667 0 31.5 4.66699 38.5 14s10.5 24.666 10.5 45.999v453z" />
    <glyph glyph-name="Omacron" unicode="&#x14c;" horiz-adv-x="341" 
d="M170 46c21.333 0 35.833 6.16699 43.5 18.5s11.5 28.166 11.5 47.499v475c0 19.333 -3.83301 35.166 -11.5 47.499s-22.167 18.5 -43.5 18.5s-35.833 -6.16699 -43.5 -18.5s-11.5 -28.166 -11.5 -47.499v-475c0 -19.333 3.83301 -35.166 11.5 -47.499
s22.167 -18.5 43.5 -18.5zM170 710c22.667 0 41.667 -3 57 -9s27.5 -14.5 36.5 -25.5s15.333 -24 19 -39s5.5 -31.5 5.5 -49.5v-475c0 -18 -1.83301 -34.5 -5.5 -49.5s-10 -27.833 -19 -38.5s-21.167 -19 -36.5 -25s-34.333 -9 -57 -9c-23.333 0 -42.5 3 -57.5 9
s-27 14.333 -36 25s-15.333 23.5 -19 38.5s-5.5 31.5 -5.5 49.5v475c0 18 1.83301 34.5 5.5 49.5s10 28 19 39s21 19.5 36 25.5s34.167 9 57.5 9zM85 796h170v-46h-170v46z" />
    <glyph glyph-name="omacron" unicode="&#x14d;" horiz-adv-x="318" 
d="M159 510c21.333 0 39.167 -2.83203 53.5 -8.49902s25.666 -13.667 33.999 -24s14.333 -22.666 18 -36.999s5.5 -30.166 5.5 -47.499v-287c0 -35.333 -7.66699 -63.5 -23 -84.5s-44.666 -31.5 -87.999 -31.5c-22 0 -40.167 2.83301 -54.5 8.5s-25.833 13.5 -34.5 23.5
s-14.667 22.167 -18 36.5s-5 30.166 -5 47.499v287c0 17.333 1.83301 33.166 5.5 47.499s9.83398 26.666 18.501 36.999s20.167 18.333 34.5 24s32.166 8.5 53.499 8.5zM159.001 42.001c19.333 0 32.666 5.5 39.999 16.5s11 26.833 11 47.5v287
c0 21.333 -3.66699 37.5 -11 48.5s-20.666 16.5 -39.999 16.5s-32.833 -5.5 -40.5 -16.5s-11.5 -27.167 -11.5 -48.5v-287c0 -20.667 3.83301 -36.5 11.5 -47.5s21.167 -16.5 40.5 -16.5zM73.001 639.001h170v-46h-170v46z" />
    <glyph glyph-name="Obreve" unicode="&#x14e;" horiz-adv-x="341" 
d="M170 46c21.333 0 35.833 6.16699 43.5 18.5s11.5 28.166 11.5 47.499v475c0 19.333 -3.83301 35.166 -11.5 47.499s-22.167 18.5 -43.5 18.5s-35.833 -6.16699 -43.5 -18.5s-11.5 -28.166 -11.5 -47.499v-475c0 -19.333 3.83301 -35.166 11.5 -47.499
s22.167 -18.5 43.5 -18.5zM170 710c22.667 0 41.667 -3 57 -9s27.5 -14.5 36.5 -25.5s15.333 -24 19 -39s5.5 -31.5 5.5 -49.5v-475c0 -18 -1.83301 -34.5 -5.5 -49.5s-10 -27.833 -19 -38.5s-21.167 -19 -36.5 -25s-34.333 -9 -57 -9c-23.333 0 -42.5 3 -57.5 9
s-27 14.333 -36 25s-15.333 23.5 -19 38.5s-5.5 31.5 -5.5 49.5v475c0 18 1.83301 34.5 5.5 49.5s10 28 19 39s21 19.5 36 25.5s34.167 9 57.5 9zM249 836c0 -33.333 -6.16699 -58.5 -18.5 -75.5s-32.5 -25.5 -60.5 -25.5s-48 8.5 -60 25.5s-18 42.167 -18 75.5h38
c0 -18.667 3 -32.5 9 -41.5s16.333 -13.5 31 -13.5s25 4.5 31 13.5s9 22.833 9 41.5h39z" />
    <glyph glyph-name="obreve" unicode="&#x14f;" horiz-adv-x="318" 
d="M159 510c21.333 0 39.167 -2.83203 53.5 -8.49902s25.666 -13.667 33.999 -24s14.333 -22.666 18 -36.999s5.5 -30.166 5.5 -47.499v-287c0 -35.333 -7.66699 -63.5 -23 -84.5s-44.666 -31.5 -87.999 -31.5c-22 0 -40.167 2.83301 -54.5 8.5s-25.833 13.5 -34.5 23.5
s-14.667 22.167 -18 36.5s-5 30.166 -5 47.499v287c0 17.333 1.83301 33.166 5.5 47.499s9.83398 26.666 18.501 36.999s20.167 18.333 34.5 24s32.166 8.5 53.499 8.5zM159.001 42.001c19.333 0 32.666 5.5 39.999 16.5s11 26.833 11 47.5v287
c0 21.333 -3.66699 37.5 -11 48.5s-20.666 16.5 -39.999 16.5s-32.833 -5.5 -40.5 -16.5s-11.5 -27.167 -11.5 -48.5v-287c0 -20.667 3.83301 -36.5 11.5 -47.5s21.167 -16.5 40.5 -16.5zM237.001 658.001c0 -33.333 -6.16699 -58.5 -18.5 -75.5s-32.5 -25.5 -60.5 -25.5
s-48 8.5 -60 25.5s-18 42.167 -18 75.5h38c0 -18.667 3 -32.5 9 -41.5s16.333 -13.5 31 -13.5s25 4.5 31 13.5s9 22.833 9 41.5h39z" />
    <glyph glyph-name="Ohungarumlaut" unicode="&#x150;" horiz-adv-x="341" 
d="M170 46c21.333 0 35.833 6.16699 43.5 18.5s11.5 28.166 11.5 47.499v475c0 19.333 -3.83301 35.166 -11.5 47.499s-22.167 18.5 -43.5 18.5s-35.833 -6.16699 -43.5 -18.5s-11.5 -28.166 -11.5 -47.499v-475c0 -19.333 3.83301 -35.166 11.5 -47.499
s22.167 -18.5 43.5 -18.5zM170 710c22.667 0 41.667 -3 57 -9s27.5 -14.5 36.5 -25.5s15.333 -24 19 -39s5.5 -31.5 5.5 -49.5v-475c0 -18 -1.83301 -34.5 -5.5 -49.5s-10 -27.833 -19 -38.5s-21.167 -19 -36.5 -25s-34.333 -9 -57 -9c-23.333 0 -42.5 3 -57.5 9
s-27 14.333 -36 25s-15.333 23.5 -19 38.5s-5.5 31.5 -5.5 49.5v475c0 18 1.83301 34.5 5.5 49.5s10 28 19 39s21 19.5 36 25.5s34.167 9 57.5 9zM180 877l-39 -127h-43l23 127h59zM285 877l-49 -127h-43l33 127h59z" />
    <glyph glyph-name="ohungarumlaut" unicode="&#x151;" horiz-adv-x="318" 
d="M159 510c21.333 0 39.167 -2.83203 53.5 -8.49902s25.666 -13.667 33.999 -24s14.333 -22.666 18 -36.999s5.5 -30.166 5.5 -47.499v-287c0 -35.333 -7.66699 -63.5 -23 -84.5s-44.666 -31.5 -87.999 -31.5c-22 0 -40.167 2.83301 -54.5 8.5s-25.833 13.5 -34.5 23.5
s-14.667 22.167 -18 36.5s-5 30.166 -5 47.499v287c0 17.333 1.83301 33.166 5.5 47.499s9.83398 26.666 18.501 36.999s20.167 18.333 34.5 24s32.166 8.5 53.499 8.5zM159.001 42.001c19.333 0 32.666 5.5 39.999 16.5s11 26.833 11 47.5v287
c0 21.333 -3.66699 37.5 -11 48.5s-20.666 16.5 -39.999 16.5s-32.833 -5.5 -40.5 -16.5s-11.5 -27.167 -11.5 -48.5v-287c0 -20.667 3.83301 -36.5 11.5 -47.5s21.167 -16.5 40.5 -16.5zM169.001 677.001l-39 -127h-43l23 127h59zM274.001 677.001l-49 -127h-43l33 127h59z
" />
    <glyph glyph-name="OE" unicode="&#x152;" horiz-adv-x="462" 
d="M283 60h136v-60h-200c-7.33301 -3.33301 -15 -5.83301 -23 -7.5s-18.333 -2.5 -31 -2.5c-23.333 0 -42.5 3 -57.5 9s-27 14.333 -36 25s-15.333 23.5 -19 38.5s-5.5 31.5 -5.5 49.5v475c0 18 1.83301 34.5 5.5 49.5s10 28 19 39s21 19.5 36 25.5s34.167 9 57.5 9
c12.667 0 23 -1 31 -3s15.667 -4.33301 23 -7h200v-61h-136v-257h117v-58h-117v-264zM165 46c20 0 34.167 5.33203 42.5 15.999s12.5 24.667 12.5 42v483c0 19.333 -3.83301 35.166 -11.5 47.499s-22.167 18.5 -43.5 18.5s-35.833 -6.16699 -43.5 -18.5
s-11.5 -28.166 -11.5 -47.499v-475c0 -19.333 3.83301 -35.166 11.5 -47.499s22.167 -18.5 43.5 -18.5z" />
    <glyph glyph-name="oe" unicode="&#x153;" horiz-adv-x="475" 
d="M429 172l0.00195312 -65.999c0 -35.333 -7.5 -63.5 -22.5 -84.5s-44.167 -31.5 -87.5 -31.5c-19.333 0 -35.666 2.83301 -48.999 8.5s-24 13.5 -32 23.5c-8 -10 -18.667 -17.833 -32 -23.5s-30 -8.5 -50 -8.5c-22 0 -40.167 2.83301 -54.5 8.5s-25.833 13.5 -34.5 23.5
s-14.667 22.167 -18 36.5s-5 30.166 -5 47.499v287c0 17.333 1.83301 33.166 5.5 47.499s9.83398 26.666 18.501 36.999s20.167 18.333 34.5 24s32.166 8.5 53.499 8.5c19.333 0 35.666 -3 48.999 -9s24 -14 32 -24c16.667 22 44 33 82 33c22 0 40 -2.83301 54 -8.5
s25.167 -13.667 33.5 -24s14.166 -22.666 17.499 -36.999s5 -30.166 5 -47.499v-145h-162v-142c0 -42.667 17.333 -64 52 -64c19.333 0 32.666 5.5 39.999 16.5s11 26.833 11 47.5v66h59zM156.002 458.001c-22.667 0 -37 -7.5 -43 -22.5s-9 -35.833 -9 -62.5v-267
c0 -21.333 4 -37.333 12 -48s21.333 -16 40 -16c22 0 36 7.16699 42 21.5s9 35.5 9 63.5v266c0 21.333 -4 37.5 -12 48.5s-21 16.5 -39 16.5zM370.002 387.001c0 23.333 -3.5 41 -10.5 53s-20.5 18 -40.5 18c-19.333 0 -32.833 -5.5 -40.5 -16.5s-11.5 -27.167 -11.5 -48.5
v-98h103v92z" />
    <glyph glyph-name="Racute" unicode="&#x154;" horiz-adv-x="348" 
d="M62 700h115c24 0 43.667 -3 59 -9s27.5 -14.167 36.5 -24.5s15.167 -23 18.5 -38s5 -31.5 5 -49.5v-158c0 -30 -5.83301 -55.167 -17.5 -75.5s-32.167 -33.5 -61.5 -39.5l113 -306h-70l-103 302h-32v-302h-63v700zM173 360c23.333 0 39.167 5.33398 47.5 16.001
s12.5 25.667 12.5 45v158c0 19.333 -4.5 34.166 -13.5 44.499s-24.5 15.5 -46.5 15.5h-48v-279h48zM236.001 877.001l-54 -127h-43l38 127h59z" />
    <glyph glyph-name="racute" unicode="&#x155;" horiz-adv-x="212" 
d="M189 451c-28 2.66699 -47.8311 -3.16699 -59.498 -17.5s-17.5 -34.833 -17.5 -61.5v-372h-60v500h42l15 -31c7.33301 13.333 17.166 24 29.499 32s29.166 12 50.499 12v-62zM185.002 676.999l-54 -127h-43l38 127h59z" />
    <glyph glyph-name="Rcommaaccent" unicode="&#x156;" horiz-adv-x="348" 
d="M62 700h115c24 0 43.667 -3 59 -9s27.5 -14.167 36.5 -24.5s15.167 -23 18.5 -38s5 -31.5 5 -49.5v-158c0 -30 -5.83301 -55.167 -17.5 -75.5s-32.167 -33.5 -61.5 -39.5l113 -306h-70l-103 302h-32v-302h-63v700zM173 360c23.333 0 39.167 5.33398 47.5 16.001
s12.5 25.667 12.5 45v158c0 19.333 -4.5 34.166 -13.5 44.499s-24.5 15.5 -46.5 15.5h-48v-279h48zM202.001 -47.999l-26 -122h-37v122h63z" />
    <glyph glyph-name="rcommaaccent" unicode="&#x157;" horiz-adv-x="212" 
d="M189 451c-28 2.66699 -47.8311 -3.16699 -59.498 -17.5s-17.5 -34.833 -17.5 -61.5v-372h-60v500h42l15 -31c7.33301 13.333 17.166 24 29.499 32s29.166 12 50.499 12v-62zM115.002 -48.001l-26 -122h-37v122h63z" />
    <glyph glyph-name="Rcaron" unicode="&#x158;" horiz-adv-x="348" 
d="M62 700h115c24 0 43.667 -3 59 -9s27.5 -14.167 36.5 -24.5s15.167 -23 18.5 -38s5 -31.5 5 -49.5v-158c0 -30 -5.83301 -55.167 -17.5 -75.5s-32.167 -33.5 -61.5 -39.5l113 -306h-70l-103 302h-32v-302h-63v700zM173 360c23.333 0 39.167 5.33398 47.5 16.001
s12.5 25.667 12.5 45v158c0 19.333 -4.5 34.166 -13.5 44.499s-24.5 15.5 -46.5 15.5h-48v-279h48zM137.001 750.001l-55 127h44l37 -74l38 74h44l-56 -127h-52z" />
    <glyph glyph-name="rcaron" unicode="&#x159;" horiz-adv-x="212" 
d="M189 451c-28 2.66699 -47.8311 -3.16699 -59.498 -17.5s-17.5 -34.833 -17.5 -61.5v-372h-60v500h42l15 -31c7.33301 13.333 17.166 24 29.499 32s29.166 12 50.499 12v-62zM94.002 549.999l-55 127h44l37 -74l38 74h44l-56 -127h-52z" />
    <glyph glyph-name="Sacute" unicode="&#x15a;" horiz-adv-x="329" 
d="M218 198c0 34 -4.16895 60.999 -12.502 80.999s-18.833 36.5 -31.5 49.5s-26.5 24.167 -41.5 33.5s-28.833 20.5 -41.5 33.5s-23.167 29.5 -31.5 49.5s-12.5 47.333 -12.5 82v60c0 18 1.66699 34.5 5 49.5s9.33301 28 18 39s20.667 19.5 36 25.5s34.666 9 57.999 9
s42.666 -3 57.999 -9s27.333 -14.5 36 -25.5s14.667 -24 18 -39s5 -31.5 5 -49.5v-77h-63v77c0 18 -3.66699 33.5 -11 46.5s-21.666 19.5 -42.999 19.5c-22 0 -36.5 -6.16699 -43.5 -18.5s-10.5 -28.166 -10.5 -47.499v-59c0 -28.667 4.16699 -51.334 12.5 -68.001
s18.833 -30.5 31.5 -41.5s26.5 -21.333 41.5 -31s28.833 -22 41.5 -37s23.167 -34.167 31.5 -57.5s12.5 -54.666 12.5 -93.999v-86c0 -18 -1.66699 -34.5 -5 -49.5s-9.33301 -28 -18 -39s-20.667 -19.5 -36 -25.5s-34.666 -9 -57.999 -9s-42.666 3 -57.999 9
s-27.333 14.5 -36 25.5s-14.667 24 -18 39s-5 31.5 -5 49.5v87h63v-87c0 -18.667 3.83301 -34.5 11.5 -47.5s21.834 -19.5 42.501 -19.5c22 0 36.5 6.33301 43.5 19s10.5 28.667 10.5 48v85zM238.998 876.999l-54 -127h-43l38 127h59z" />
    <glyph glyph-name="sacute" unicode="&#x15b;" horiz-adv-x="301" 
d="M42 395c0 17.333 1.66797 33.168 5.00098 47.501s9.16602 26.5 17.499 36.5s19.5 17.667 33.5 23s31.333 8 52 8c42 0 70.5 -10.333 85.5 -31s22.5 -48.667 22.5 -84v-57h-59v57c0 22.667 -3.83301 38.834 -11.5 48.501s-20.167 14.5 -37.5 14.5s-29.833 -5 -37.5 -15
s-11.5 -26 -11.5 -48v-19c0 -20.667 3.83301 -37.334 11.5 -50.001s17.334 -23.5 29.001 -32.5s24.334 -17.167 38.001 -24.5s26.334 -16 38.001 -26s21.334 -22.833 29.001 -38.5s11.5 -35.834 11.5 -60.501v-40c0 -17.333 -1.66699 -33 -5 -47s-9 -26 -17 -36
s-19 -17.667 -33 -23s-31.667 -8 -53 -8s-39 2.66699 -53 8s-25 13 -33 23s-13.667 22 -17 36s-5 29.667 -5 47v68h59v-68c0 -22.667 3.83301 -38.667 11.5 -48s20.167 -14 37.5 -14s29.833 4.83301 37.5 14.5s11.5 25.5 11.5 47.5v38c0 20 -3.83301 36.167 -11.5 48.5
s-17.334 22.833 -29.001 31.5s-24.334 16.667 -38.001 24s-26.334 16.333 -38.001 27s-21.334 24 -29.001 40s-11.5 37 -11.5 63v19zM227.001 677.002l-54 -127h-43l38 127h59z" />
    <glyph glyph-name="Scircumflex" unicode="&#x15c;" horiz-adv-x="329" 
d="M218 198c0 34 -4.16895 60.999 -12.502 80.999s-18.833 36.5 -31.5 49.5s-26.5 24.167 -41.5 33.5s-28.833 20.5 -41.5 33.5s-23.167 29.5 -31.5 49.5s-12.5 47.333 -12.5 82v60c0 18 1.66699 34.5 5 49.5s9.33301 28 18 39s20.667 19.5 36 25.5s34.666 9 57.999 9
s42.666 -3 57.999 -9s27.333 -14.5 36 -25.5s14.667 -24 18 -39s5 -31.5 5 -49.5v-77h-63v77c0 18 -3.66699 33.5 -11 46.5s-21.666 19.5 -42.999 19.5c-22 0 -36.5 -6.16699 -43.5 -18.5s-10.5 -28.166 -10.5 -47.499v-59c0 -28.667 4.16699 -51.334 12.5 -68.001
s18.833 -30.5 31.5 -41.5s26.5 -21.333 41.5 -31s28.833 -22 41.5 -37s23.167 -34.167 31.5 -57.5s12.5 -54.666 12.5 -93.999v-86c0 -18 -1.66699 -34.5 -5 -49.5s-9.33301 -28 -18 -39s-20.667 -19.5 -36 -25.5s-34.666 -9 -57.999 -9s-42.666 3 -57.999 9
s-27.333 14.5 -36 25.5s-14.667 24 -18 39s-5 31.5 -5 49.5v87h63v-87c0 -18.667 3.83301 -34.5 11.5 -47.5s21.834 -19.5 42.501 -19.5c22 0 36.5 6.33301 43.5 19s10.5 28.667 10.5 48v85zM189.998 876.999l56 -127h-44l-38 74l-37 -74h-44l55 127h52z" />
    <glyph glyph-name="scircumflex" unicode="&#x15d;" horiz-adv-x="301" 
d="M42 395c0 17.333 1.66797 33.168 5.00098 47.501s9.16602 26.5 17.499 36.5s19.5 17.667 33.5 23s31.333 8 52 8c42 0 70.5 -10.333 85.5 -31s22.5 -48.667 22.5 -84v-57h-59v57c0 22.667 -3.83301 38.834 -11.5 48.501s-20.167 14.5 -37.5 14.5s-29.833 -5 -37.5 -15
s-11.5 -26 -11.5 -48v-19c0 -20.667 3.83301 -37.334 11.5 -50.001s17.334 -23.5 29.001 -32.5s24.334 -17.167 38.001 -24.5s26.334 -16 38.001 -26s21.334 -22.833 29.001 -38.5s11.5 -35.834 11.5 -60.501v-40c0 -17.333 -1.66699 -33 -5 -47s-9 -26 -17 -36
s-19 -17.667 -33 -23s-31.667 -8 -53 -8s-39 2.66699 -53 8s-25 13 -33 23s-13.667 22 -17 36s-5 29.667 -5 47v68h59v-68c0 -22.667 3.83301 -38.667 11.5 -48s20.167 -14 37.5 -14s29.833 4.83301 37.5 14.5s11.5 25.5 11.5 47.5v38c0 20 -3.83301 36.167 -11.5 48.5
s-17.334 22.833 -29.001 31.5s-24.334 16.667 -38.001 24s-26.334 16.333 -38.001 27s-21.334 24 -29.001 40s-11.5 37 -11.5 63v19zM175.001 677.002l56 -127h-44l-38 74l-37 -74h-44l55 127h52z" />
    <glyph glyph-name="Scedilla" unicode="&#x15e;" horiz-adv-x="329" 
d="M145 -9c-19.333 1.33301 -35.3311 5.3291 -47.998 11.9961s-22.667 15.334 -30 26.001s-12.5 23 -15.5 37s-4.5 29.667 -4.5 47v87h63v-87c0 -19.333 3.66699 -35.333 11 -48s21.666 -19 42.999 -19c22 0 36.5 6.33301 43.5 19s10.5 28.667 10.5 48v85
c0 34 -4.16699 61 -12.5 81s-18.833 36.5 -31.5 49.5s-26.5 24.167 -41.5 33.5s-28.833 20.5 -41.5 33.5s-23.167 29.5 -31.5 49.5s-12.5 47.333 -12.5 82v60c0 18 1.66699 34.5 5 49.5s9.33301 28 18 39s20.667 19.5 36 25.5s34.666 9 57.999 9s42.666 -3 57.999 -9
s27.333 -14.5 36 -25.5s14.667 -24 18 -39s5 -31.5 5 -49.5v-77h-63v77c0 18.667 -3.66699 34.334 -11 47.001s-21.666 19 -42.999 19c-22 0 -36.5 -6.16699 -43.5 -18.5s-10.5 -28.166 -10.5 -47.499v-59c0 -28.667 4.16699 -51.334 12.5 -68.001s18.833 -30.5 31.5 -41.5
s26.5 -21.333 41.5 -31s28.833 -22 41.5 -37s23.167 -34.167 31.5 -57.5s12.5 -54.666 12.5 -93.999v-86c0 -17.333 -1.5 -33.166 -4.5 -47.499s-8.33301 -26.833 -16 -37.5s-18.167 -19.167 -31.5 -25.5s-30 -10.166 -50 -11.499l-7 -31c42.667 -6 64 -27.333 64 -64
c0 -20 -6.66699 -36 -20 -48s-36 -18 -68 -18h-46l10 38h33c15.333 0 26 2.66699 32 8s9 12.666 9 21.999c0 10 -3.16699 17.667 -9.5 23s-17.5 8 -33.5 8h-14z" />
    <glyph glyph-name="scedilla" unicode="&#x15f;" horiz-adv-x="301" 
d="M126 -9c-32.667 4 -54.832 15.835 -66.499 35.502s-17.5 45.5 -17.5 77.5v68h59v-68c0 -22.667 3.83301 -38.667 11.5 -48s20.167 -14 37.5 -14s29.833 4.83301 37.5 14.5s11.5 25.5 11.5 47.5v38c0 20 -3.83301 36.167 -11.5 48.5s-17.334 22.833 -29.001 31.5
s-24.334 16.667 -38.001 24s-26.334 16.333 -38.001 27s-21.334 24 -29.001 40s-11.5 37 -11.5 63v19c0 17.333 1.66699 33.166 5 47.499s9.16602 26.5 17.499 36.5s19.5 17.667 33.5 23s31.333 8 52 8c42 0 70.5 -10.333 85.5 -31s22.5 -48.667 22.5 -84v-57h-59v57
c0 22.667 -3.83301 38.834 -11.5 48.501s-20.167 14.5 -37.5 14.5s-29.833 -5 -37.5 -15s-11.5 -26 -11.5 -48v-19c0 -20.667 3.83301 -37.334 11.5 -50.001s17.334 -23.5 29.001 -32.5s24.334 -17.167 38.001 -24.5s26.334 -16 38.001 -26s21.334 -22.833 29.001 -38.5
s11.5 -35.834 11.5 -60.501v-40c0 -33.333 -6.66699 -60.166 -20 -80.499s-39.333 -31.5 -78 -33.5l-7 -30c42.667 -6 64 -27.333 64 -64c0 -20 -6.66699 -36 -20 -48s-36 -18 -68 -18h-46l10 38h33c15.333 0 26 2.66699 32 8s9 12.666 9 21.999
c0 10 -3.16699 17.667 -9.5 23s-17.5 8 -33.5 8h-14z" />
    <glyph glyph-name="Scaron" unicode="&#x160;" horiz-adv-x="329" 
d="M218 198c0 34 -4.16895 60.999 -12.502 80.999s-18.833 36.5 -31.5 49.5s-26.5 24.167 -41.5 33.5s-28.833 20.5 -41.5 33.5s-23.167 29.5 -31.5 49.5s-12.5 47.333 -12.5 82v60c0 18 1.66699 34.5 5 49.5s9.33301 28 18 39s20.667 19.5 36 25.5s34.666 9 57.999 9
s42.666 -3 57.999 -9s27.333 -14.5 36 -25.5s14.667 -24 18 -39s5 -31.5 5 -49.5v-77h-63v77c0 18 -3.66699 33.5 -11 46.5s-21.666 19.5 -42.999 19.5c-22 0 -36.5 -6.16699 -43.5 -18.5s-10.5 -28.166 -10.5 -47.499v-59c0 -28.667 4.16699 -51.334 12.5 -68.001
s18.833 -30.5 31.5 -41.5s26.5 -21.333 41.5 -31s28.833 -22 41.5 -37s23.167 -34.167 31.5 -57.5s12.5 -54.666 12.5 -93.999v-86c0 -18 -1.66699 -34.5 -5 -49.5s-9.33301 -28 -18 -39s-20.667 -19.5 -36 -25.5s-34.666 -9 -57.999 -9s-42.666 3 -57.999 9
s-27.333 14.5 -36 25.5s-14.667 24 -18 39s-5 31.5 -5 49.5v87h63v-87c0 -18.667 3.83301 -34.5 11.5 -47.5s21.834 -19.5 42.501 -19.5c22 0 36.5 6.33301 43.5 19s10.5 28.667 10.5 48v85zM137.998 749.999l-55 127h44l37 -74l38 74h44l-56 -127h-52z" />
    <glyph glyph-name="scaron" unicode="&#x161;" horiz-adv-x="301" 
d="M42 395c0 17.333 1.66797 33.168 5.00098 47.501s9.16602 26.5 17.499 36.5s19.5 17.667 33.5 23s31.333 8 52 8c42 0 70.5 -10.333 85.5 -31s22.5 -48.667 22.5 -84v-57h-59v57c0 22.667 -3.83301 38.834 -11.5 48.501s-20.167 14.5 -37.5 14.5s-29.833 -5 -37.5 -15
s-11.5 -26 -11.5 -48v-19c0 -20.667 3.83301 -37.334 11.5 -50.001s17.334 -23.5 29.001 -32.5s24.334 -17.167 38.001 -24.5s26.334 -16 38.001 -26s21.334 -22.833 29.001 -38.5s11.5 -35.834 11.5 -60.501v-40c0 -17.333 -1.66699 -33 -5 -47s-9 -26 -17 -36
s-19 -17.667 -33 -23s-31.667 -8 -53 -8s-39 2.66699 -53 8s-25 13 -33 23s-13.667 22 -17 36s-5 29.667 -5 47v68h59v-68c0 -22.667 3.83301 -38.667 11.5 -48s20.167 -14 37.5 -14s29.833 4.83301 37.5 14.5s11.5 25.5 11.5 47.5v38c0 20 -3.83301 36.167 -11.5 48.5
s-17.334 22.833 -29.001 31.5s-24.334 16.667 -38.001 24s-26.334 16.333 -38.001 27s-21.334 24 -29.001 40s-11.5 37 -11.5 63v19zM123.001 550.002l-55 127h44l37 -74l38 74h44l-56 -127h-52z" />
    <glyph glyph-name="Tcommaaccent" unicode="&#x162;" horiz-adv-x="275" 
d="M169 0h-63v639h-84v61h230v-61h-83v-639zM168 -48l-26 -122h-37v122h63z" />
    <glyph glyph-name="tcommaaccent" unicode="&#x163;" horiz-adv-x="242" 
d="M22 500l49 -0.000976562v131c10.667 3.33301 20.834 6 30.501 8s19.5 4.66699 29.5 8v-147h79v-53h-79v-346c0 -20.667 3.33301 -35.667 10 -45s18.667 -14 36 -14c7.33301 0 13.666 0.5 18.999 1.5s11.333 2.83301 18 5.5v-51c-4.66699 -2 -11 -3.83301 -19 -5.5
s-15 -2.5 -21 -2.5c-40 0 -67.167 9.33301 -81.5 28s-21.5 46.334 -21.5 83.001v346h-49v53zM167 -48.001l-26 -122h-37v122h63z" />
    <glyph glyph-name="Tcaron" unicode="&#x164;" horiz-adv-x="275" 
d="M169 0h-63v639h-84v61h230v-61h-83v-639zM111 750l-55 127h44l37 -74l38 74h44l-56 -127h-52z" />
    <glyph glyph-name="tcaron" unicode="&#x165;" horiz-adv-x="242" 
d="M22 500l49 -0.000976562v131c10.667 3.33301 20.834 6 30.501 8s19.5 4.66699 29.5 8v-147h79v-53h-79v-346c0 -20.667 3.33301 -35.667 10 -45s18.667 -14 36 -14c7.33301 0 13.666 0.5 18.999 1.5s11.333 2.83301 18 5.5v-51c-4.66699 -2 -11 -3.83301 -19 -5.5
s-15 -2.5 -21 -2.5c-40 0 -67.167 9.33301 -81.5 28s-21.5 46.334 -21.5 83.001v346h-49v53zM230 709.999l-27 -160h-27v160h54z" />
    <glyph glyph-name="Tbar" unicode="&#x166;" horiz-adv-x="275" 
d="M50 376h56v263h-84v61h230v-61h-83v-263h56v-45h-56v-331h-63v331h-56v45z" />
    <glyph glyph-name="tbar" unicode="&#x167;" horiz-adv-x="242" 
d="M29 280h39.001v166h-49v54h49v131l60 16v-147h79v-54h-79v-166h58v-46h-58v-133c0 -21.333 3 -36.5 9 -45.5s18.333 -13.5 37 -13.5c7.33301 0 13.666 0.5 18.999 1.5s11.333 2.83301 18 5.5v-52c-4.66699 -2 -11 -3.66699 -19 -5s-15 -2 -21 -2
c-20.667 0 -37.667 2.33301 -51 7s-23.833 11.667 -31.5 21s-13 21 -16 35s-4.5 30 -4.5 48v133h-39v46z" />
    <glyph glyph-name="Utilde" unicode="&#x168;" horiz-adv-x="350" 
d="M120 113c0 -19.333 3.66602 -35.333 10.999 -48s22 -19 44 -19s36.5 6.33301 43.5 19s10.5 28.667 10.5 48v587h63v-587c0 -17.333 -1.83301 -33.5 -5.5 -48.5s-10 -28 -19 -39s-21 -19.667 -36 -26s-33.833 -9.5 -56.5 -9.5c-23.333 0 -42.666 3 -57.999 9
s-27.5 14.5 -36.5 25.5s-15.167 24 -18.5 39s-5 31.5 -5 49.5v587h63v-587zM222.999 750c-12.667 0 -23.0029 2.16504 -31.0029 6.49805s-15 9.16602 -21 14.499s-12.167 10.166 -18.5 14.499s-13.833 6.5 -22.5 6.5c-10.667 0 -18 -2.66699 -22 -8s-6 -13.333 -6 -24h-38
c0 26.667 4.33301 46.834 13 60.501s25.334 20.5 50.001 20.5c12.667 0 22.834 -2.16699 30.501 -6.5s14.667 -9.16602 21 -14.499s12.5 -10.166 18.5 -14.499s13.667 -6.5 23 -6.5c10.667 0 18 2.66699 22 8s6 13.333 6 24h38c0 -27.333 -4.66699 -47.666 -14 -60.999
s-25.666 -20 -48.999 -20z" />
    <glyph glyph-name="utilde" unicode="&#x169;" 
d="M275 500l0.000976562 -500h-35l-16 32c-14.667 -28 -39.667 -42 -75 -42s-60.333 9.5 -75 28.5s-22 47.833 -22 86.5v395h60v-395c0 -19.333 3.66699 -34.666 11 -45.999s20.666 -17 39.999 -17s32.833 5.66699 40.5 17s11.5 26.666 11.5 45.999v395h60zM211.001 560
c-12.667 0 -23.0029 2.16504 -31.0029 6.49805s-15 9.16602 -21 14.499s-12.167 10.166 -18.5 14.499s-13.833 6.5 -22.5 6.5c-10.667 0 -18 -2.66699 -22 -8s-6 -13.333 -6 -24h-38c0 26.667 4.33301 46.834 13 60.501s25.334 20.5 50.001 20.5
c12.667 0 22.834 -2.16699 30.501 -6.5s14.667 -9.16602 21 -14.499s12.5 -10.166 18.5 -14.499s13.667 -6.5 23 -6.5c10.667 0 18 2.66699 22 8s6 13.333 6 24h38c0 -27.333 -4.66699 -47.666 -14 -60.999s-25.666 -20 -48.999 -20z" />
    <glyph glyph-name="Umacron" unicode="&#x16a;" horiz-adv-x="350" 
d="M120 113c0 -19.333 3.66602 -35.333 10.999 -48s22 -19 44 -19s36.5 6.33301 43.5 19s10.5 28.667 10.5 48v587h63v-587c0 -17.333 -1.83301 -33.5 -5.5 -48.5s-10 -28 -19 -39s-21 -19.667 -36 -26s-33.833 -9.5 -56.5 -9.5c-23.333 0 -42.666 3 -57.999 9
s-27.5 14.5 -36.5 25.5s-15.167 24 -18.5 39s-5 31.5 -5 49.5v587h63v-587zM89.999 796h170v-46h-170v46z" />
    <glyph glyph-name="umacron" unicode="&#x16b;" 
d="M275 500l0.000976562 -500h-35l-16 32c-14.667 -28 -39.667 -42 -75 -42s-60.333 9.5 -75 28.5s-22 47.833 -22 86.5v395h60v-395c0 -19.333 3.66699 -34.666 11 -45.999s20.666 -17 39.999 -17s32.833 5.66699 40.5 17s11.5 26.666 11.5 45.999v395h60zM78.001 639h170
v-46h-170v46z" />
    <glyph glyph-name="Ubreve" unicode="&#x16c;" horiz-adv-x="350" 
d="M120 113c0 -19.333 3.66602 -35.333 10.999 -48s22 -19 44 -19s36.5 6.33301 43.5 19s10.5 28.667 10.5 48v587h63v-587c0 -17.333 -1.83301 -33.5 -5.5 -48.5s-10 -28 -19 -39s-21 -19.667 -36 -26s-33.833 -9.5 -56.5 -9.5c-23.333 0 -42.666 3 -57.999 9
s-27.5 14.5 -36.5 25.5s-15.167 24 -18.5 39s-5 31.5 -5 49.5v587h63v-587zM252.999 836c0 -33.333 -6.16699 -58.5 -18.5 -75.5s-32.5 -25.5 -60.5 -25.5s-48 8.5 -60 25.5s-18 42.167 -18 75.5h38c0 -18.667 3 -32.5 9 -41.5s16.333 -13.5 31 -13.5s25 4.5 31 13.5
s9 22.833 9 41.5h39z" />
    <glyph glyph-name="ubreve" unicode="&#x16d;" 
d="M275 500l0.000976562 -500h-35l-16 32c-14.667 -28 -39.667 -42 -75 -42s-60.333 9.5 -75 28.5s-22 47.833 -22 86.5v395h60v-395c0 -19.333 3.66699 -34.666 11 -45.999s20.666 -17 39.999 -17s32.833 5.66699 40.5 17s11.5 26.666 11.5 45.999v395h60zM242.001 658
c0 -33.333 -6.16699 -58.5 -18.5 -75.5s-32.5 -25.5 -60.5 -25.5s-48 8.5 -60 25.5s-18 42.167 -18 75.5h38c0 -18.667 3 -32.5 9 -41.5s16.333 -13.5 31 -13.5s25 4.5 31 13.5s9 22.833 9 41.5h39z" />
    <glyph glyph-name="Uring" unicode="&#x16e;" horiz-adv-x="350" 
d="M120 113c0 -19.333 3.66602 -35.333 10.999 -48s22 -19 44 -19s36.5 6.33301 43.5 19s10.5 28.667 10.5 48v587h63v-587c0 -17.333 -1.83301 -33.5 -5.5 -48.5s-10 -28 -19 -39s-21 -19.667 -36 -26s-33.833 -9.5 -56.5 -9.5c-23.333 0 -42.666 3 -57.999 9
s-27.5 14.5 -36.5 25.5s-15.167 24 -18.5 39s-5 31.5 -5 49.5v587h63v-587zM242.999 808c0 -23.333 -5.33301 -41.666 -16 -54.999s-28 -20 -52 -20s-41.333 6.66699 -52 20s-16 31.666 -16 54.999s5.33301 42 16 56s28 21 52 21s41.333 -7 52 -21s16 -32.667 16 -56z
M203.999 808c0 13.333 -2.33301 23.833 -7 31.5s-12 11.5 -22 11.5s-17.333 -3.83301 -22 -11.5s-7 -18.167 -7 -31.5c0 -12.667 2.33301 -22.667 7 -30s12 -11 22 -11s17.333 3.66699 22 11s7 17.333 7 30z" />
    <glyph glyph-name="uring" unicode="&#x16f;" 
d="M275 500l0.000976562 -500h-35l-16 32c-14.667 -28 -39.667 -42 -75 -42s-60.333 9.5 -75 28.5s-22 47.833 -22 86.5v395h60v-395c0 -19.333 3.66699 -34.666 11 -45.999s20.666 -17 39.999 -17s32.833 5.66699 40.5 17s11.5 26.666 11.5 45.999v395h60zM231.001 622
c0 -23.333 -5.33301 -41.666 -16 -54.999s-28 -20 -52 -20s-41.333 6.66699 -52 20s-16 31.666 -16 54.999s5.33301 42 16 56s28 21 52 21s41.333 -7 52 -21s16 -32.667 16 -56zM192.001 622c0 13.333 -2.33301 23.833 -7 31.5s-12 11.5 -22 11.5
s-17.333 -3.83301 -22 -11.5s-7 -18.167 -7 -31.5c0 -12.667 2.33301 -22.667 7 -30s12 -11 22 -11s17.333 3.66699 22 11s7 17.333 7 30z" />
    <glyph glyph-name="Uhungarumlaut" unicode="&#x170;" horiz-adv-x="350" 
d="M120 113c0 -19.333 3.66602 -35.333 10.999 -48s22 -19 44 -19s36.5 6.33301 43.5 19s10.5 28.667 10.5 48v587h63v-587c0 -17.333 -1.83301 -33.5 -5.5 -48.5s-10 -28 -19 -39s-21 -19.667 -36 -26s-33.833 -9.5 -56.5 -9.5c-23.333 0 -42.666 3 -57.999 9
s-27.5 14.5 -36.5 25.5s-15.167 24 -18.5 39s-5 31.5 -5 49.5v587h63v-587zM185.999 877l-39 -127h-43l23 127h59zM290.999 877l-49 -127h-43l33 127h59z" />
    <glyph glyph-name="uhungarumlaut" unicode="&#x171;" 
d="M275 500l0.000976562 -500h-35l-16 32c-14.667 -28 -39.667 -42 -75 -42s-60.333 9.5 -75 28.5s-22 47.833 -22 86.5v395h60v-395c0 -19.333 3.66699 -34.666 11 -45.999s20.666 -17 39.999 -17s32.833 5.66699 40.5 17s11.5 26.666 11.5 45.999v395h60zM174.001 677
l-39 -127h-43l23 127h59zM279.001 677l-49 -127h-43l33 127h59z" />
    <glyph glyph-name="Uogonek" unicode="&#x172;" horiz-adv-x="350" 
d="M230 -115l0.000976562 -55h-12c-28.667 0 -49.834 6 -63.501 18s-20.5 28.667 -20.5 50c0 18 4.16699 35 12.5 51s19.166 29.667 32.499 41h-4c-23.333 0 -42.666 3 -57.999 9s-27.5 14.5 -36.5 25.5s-15.167 24 -18.5 39s-5 31.5 -5 49.5v587h63v-587
c0 -19.333 3.66699 -35.333 11 -48s22 -19 44 -19s36.5 6.33301 43.5 19s10.5 28.667 10.5 48v587h63v-587c0 -27.333 -4.66699 -51.333 -14 -72s-26.333 -35 -51 -43c-14.667 -12 -25.667 -25 -33 -39s-11 -28 -11 -42c0 -21.333 11.667 -32 35 -32h12z" />
    <glyph glyph-name="uogonek" unicode="&#x173;" 
d="M275 -115l0.00292969 -55.002h-12c-28.667 0 -49.834 6 -63.501 18s-20.5 28.667 -20.5 50c0 20.667 5.66699 39.834 17 57.501s25.666 32.834 42.999 45.501l-15 31c-14.667 -28 -39.667 -42 -75 -42s-60.333 9.5 -75 28.5s-22 47.833 -22 86.5v395h60v-395
c0 -19.333 3.66699 -34.666 11 -45.999s20.666 -17 39.999 -17s32.833 5.66699 40.5 17s11.5 26.666 11.5 45.999v395h60v-500c-15.333 -12 -27 -25.167 -35 -39.5s-12 -28.833 -12 -43.5c0 -21.333 11.667 -32 35 -32h12z" />
    <glyph glyph-name="Wcircumflex" unicode="&#x174;" horiz-adv-x="536" 
d="M267 574l-73 -574h-73l-89 700h64l62 -579l76 579h66l76 -579l62 579h64l-89 -700h-72zM293 877l56 -127h-44l-38 74l-37 -74h-44l55 127h52z" />
    <glyph glyph-name="wcircumflex" unicode="&#x175;" horiz-adv-x="469" 
d="M235 400l-61 -400h-68l-80 500h62l54 -413l30.5 206l31.5 207h62l30.5 -207l31.5 -206l54 413h61l-79 -500h-69zM259 677l56 -127h-44l-38 74l-37 -74h-44l55 127h52z" />
    <glyph glyph-name="Ycircumflex" unicode="&#x176;" horiz-adv-x="302" 
d="M119 0v291l-97 409h66l62 -318l63 318h66l-97 -409v-291h-63zM176 877l56 -127h-44l-38 74l-37 -74h-44l55 127h52z" />
    <glyph glyph-name="ycircumflex" unicode="&#x177;" horiz-adv-x="301" 
d="M56 -170c-6 0 -12.833 0.5 -20.5 1.5s-13.834 2.16699 -18.501 3.5v54c11.333 -4.66699 24.333 -7 39 -7c29.333 0 48 19.333 56 58l11 59l-98 501h62l65 -391l64 391h62l-108 -562c-7.33301 -38 -19.166 -65.5 -35.499 -82.5s-42.5 -25.5 -78.5 -25.5zM175 677l56 -127
h-44l-38 74l-37 -74h-44l55 127h52z" />
    <glyph glyph-name="Ydieresis" unicode="&#x178;" horiz-adv-x="302" 
d="M119 0v291l-97 409h66l62 -318l63 318h66l-97 -409v-291h-63zM127 824v-74h-61v74h61zM235 824v-74h-61v74h61z" />
    <glyph glyph-name="Zacute" unicode="&#x179;" horiz-adv-x="277" 
d="M32 0v40l141 599h-141v61h209v-40l-141 -600h144v-60h-212zM208 877l-54 -127h-43l38 127h59z" />
    <glyph glyph-name="zacute" unicode="&#x17a;" horiz-adv-x="262" 
d="M32 0v37l128 410h-123v53h187v-38l-127 -409h132v-53h-197zM206 677l-54 -127h-43l38 127h59z" />
    <glyph glyph-name="Zdotaccent" unicode="&#x17b;" horiz-adv-x="277" 
d="M32 0v40l141 599h-141v61h209v-40l-141 -600h144v-60h-212zM169 824v-74h-61v74h61z" />
    <glyph glyph-name="zdotaccent" unicode="&#x17c;" horiz-adv-x="262" 
d="M32 0v37l128 410h-123v53h187v-38l-127 -409h132v-53h-197zM160 659v-74h-61v74h61z" />
    <glyph glyph-name="Zcaron" unicode="&#x17d;" horiz-adv-x="277" 
d="M32 0v40l141 599h-141v61h209v-40l-141 -600h144v-60h-212zM112 750l-55 127h44l37 -74l38 74h44l-56 -127h-52z" />
    <glyph glyph-name="zcaron" unicode="&#x17e;" horiz-adv-x="262" 
d="M32 0v37l128 410h-123v53h187v-38l-127 -409h132v-53h-197zM104 550l-55 127h44l37 -74l38 74h44l-56 -127h-52z" />
    <glyph glyph-name="florin" unicode="&#x192;" horiz-adv-x="229" 
d="M68 449l-44.999 -0.000976562v51h45v101c0 20 1.5 37.333 4.5 52s8.5 27 16.5 37s19 17.5 33 22.5s31.667 7.5 53 7.5c14.667 0 27.667 -2 39 -6v-53c-9.33301 4.66699 -22 7 -38 7c-18.667 0 -31.334 -4.66699 -38.001 -14s-10 -24.666 -10 -45.999v-108h73v-51h-73
v-461c0 -20 -1.5 -37.5 -4.5 -52.5s-8.5 -27.5 -16.5 -37.5s-18.833 -17.5 -32.5 -22.5s-31.167 -7.5 -52.5 -7.5c-14.667 0 -27.334 2 -38.001 6v52c10 -4 22 -6 36 -6c18.667 0 31.334 4.5 38.001 13.5s10 24.167 10 45.5v470z" />
    <glyph glyph-name="pi" unicode="&#x3c0;" horiz-adv-x="342" 
d="M317 448h-42v-448h-60v448h-89v-448h-60v448h-42v52h293v-52z" />
    <glyph glyph-name="Bdotaccent" unicode="&#x1e02;" horiz-adv-x="353" 
d="M62 700l113.999 -0.00195312c24 0 43.667 -2.33301 59 -7s27.5 -11.5 36.5 -20.5s15.167 -20.333 18.5 -34s5 -29.5 5 -47.5v-147c0 -23.333 -4.16699 -42.333 -12.5 -57s-22.166 -25.667 -41.499 -33c21.333 -7.33301 36.5 -18.666 45.5 -33.999
s13.5 -34.666 13.5 -57.999v-146c0 -18 -1.66699 -34.167 -5 -48.5s-9.33301 -26.5 -18 -36.5s-20.667 -17.667 -36 -23s-35 -8 -59 -8h-120v700zM177.999 59.998c23.333 0 39 4.83301 47 14.5s12 24.167 12 43.5v146c0 18 -4.16699 32.5 -12.5 43.5
s-23.833 16.5 -46.5 16.5h-53v-264h53zM124.999 638.998v-256.999h49c22.667 0 38.167 5.5 46.5 16.5s12.5 25.5 12.5 43.5v140c0 19.333 -4.16699 33.666 -12.5 42.999s-23.5 14 -45.5 14h-50zM206.999 823.999v-74h-61v74h61z" />
    <glyph glyph-name="bdotaccent" unicode="&#x1e03;" horiz-adv-x="323" 
d="M52 0v709.999h60v-236c6.66699 10.667 15.834 19.334 27.501 26.001s25.167 10 40.5 10c35.333 0 60 -9.5 74 -28.5s21 -48.167 21 -87.5v-289c0 -38.667 -7.16699 -67.5 -21.5 -86.5s-39.5 -28.5 -75.5 -28.5c-34.667 0 -59.334 13.667 -74.001 41l-16 -31h-36z
M112 105.999c0 -19.333 4 -34.834 12 -46.501s21.667 -17.5 41 -17.5c18.667 0 31.667 5.83301 39 17.5s11 27.167 11 46.5v288c0 19.333 -3.66699 34.833 -11 46.5s-20.333 17.5 -39 17.5c-19.333 0 -33 -6.16699 -41 -18.5s-12 -28.166 -12 -47.499v-286zM215 658.998v-74
h-61v74h61z" />
    <glyph glyph-name="Ddotaccent" unicode="&#x1e0a;" horiz-adv-x="358" 
d="M177 60c23.333 0 39.166 5.33398 47.499 16.001s12.5 25.667 12.5 45v458c0 19.333 -4.16699 34.166 -12.5 44.499s-24.166 15.5 -47.499 15.5h-52v-579h52zM62 700.001h116c24 0 43.833 -3 59.5 -9s28.167 -14.167 37.5 -24.5s15.833 -23 19.5 -38s5.5 -31.5 5.5 -49.5
v-458c0 -18 -1.83301 -34.5 -5.5 -49.5s-10 -27.667 -19 -38s-21.167 -18.5 -36.5 -24.5s-35 -9 -59 -9h-118v700zM209 824.001v-74h-61v74h61z" />
    <glyph glyph-name="ddotaccent" unicode="&#x1e0b;" 
d="M239 0l-16 31.001c-14.667 -27.333 -39.334 -41 -74.001 -41c-36 0 -61.167 9.5 -75.5 28.5s-21.5 47.833 -21.5 86.5v289c0 39.333 7 68.5 21 87.5s38.667 28.5 74 28.5c15.333 0 28.833 -3.33301 40.5 -10s20.834 -15.334 27.501 -26.001v236h60v-710h-36zM215 392.001
c0 19.333 -4 35.167 -12 47.5s-21.667 18.5 -41 18.5c-18.667 0 -31.667 -5.83301 -39 -17.5s-11 -27.167 -11 -46.5v-288c0 -19.333 3.66699 -34.833 11 -46.5s20.333 -17.5 39 -17.5c19.333 0 33 5.83301 41 17.5s12 27.167 12 46.5v286zM165 659.002v-74h-61v74h61z" />
    <glyph glyph-name="Fdotaccent" unicode="&#x1e1e;" horiz-adv-x="288" 
d="M62 0v700h193v-61h-130v-257h112v-58h-112v-324h-63zM174 824v-74h-61v74h61z" />
    <glyph glyph-name="fdotaccent" unicode="&#x1e1f;" horiz-adv-x="231" 
d="M174 720c14.667 0 27.667 -2 39 -6v-53c-9.33301 4.66699 -21.666 7 -36.999 7c-18.667 0 -31.334 -4.5 -38.001 -13.5s-10 -24.5 -10 -46.5v-108h73v-53h-73v-447h-60v447h-46v53h46v108c0 36.667 7.16699 64.5 21.5 83.5s42.5 28.5 84.5 28.5zM165 859v-74h-61v74h61z
" />
    <glyph glyph-name="Mdotaccent" unicode="&#x1e40;" horiz-adv-x="480" 
d="M142 700l96.998 -595.002l98 595h80v-700h-60v239c0 18 0.333008 41.833 1 71.5s1.5 61.334 2.5 95.001s1.83301 66.667 2.5 99s1.33398 60.166 2.00098 83.499l-95 -588h-61l-95 588c0.666992 -23.333 1.33398 -51.166 2.00098 -83.499s1.5 -65.166 2.5 -98.499
s1.83301 -65 2.5 -95s1 -54 1 -72v-239h-60v700h80zM269.998 823.998v-74h-61v74h61z" />
    <glyph glyph-name="mdotaccent" unicode="&#x1e41;" horiz-adv-x="487" 
d="M214 395c0 17.333 -3.33496 32.165 -10.002 44.498s-19.667 18.5 -39 18.5c-18.667 0 -32.167 -5.66699 -40.5 -17s-12.5 -26.666 -12.5 -45.999v-395h-60v500h36l16 -32c16.667 28 42 42 76 42c20.667 0 37.334 -3.66699 50.001 -11s22.334 -17.666 29.001 -30.999
c7.33301 12 18 22 32 30s31 12 51 12c34.667 0 59 -9.66699 73 -29s21 -47 21 -83v-398h-60v395c0 18 -3.33301 33 -10 45s-19.667 18 -39 18c-18 0 -31.333 -5.5 -40 -16.5s-13 -26.167 -13 -45.5v-396h-60v395zM272.998 658.999v-74h-61v74h61z" />
    <glyph glyph-name="Pdotaccent" unicode="&#x1e56;" horiz-adv-x="334" 
d="M62 700h114c24 0 43.667 -3 59 -9s27.5 -14.167 36.5 -24.5s15.333 -23 19 -38s5.5 -31.5 5.5 -49.5v-158c0 -34.667 -9.16699 -63.167 -27.5 -85.5s-49.833 -33.5 -94.5 -33.5h-49v-302h-63v700zM173 360c23.333 0 39.167 5.33398 47.5 16.001s12.5 25.667 12.5 45v158
c0 19.333 -4.5 34.166 -13.5 44.499s-24.5 15.5 -46.5 15.5h-48v-279h48zM197.001 824.001v-74h-61v74h61z" />
    <glyph glyph-name="pdotaccent" unicode="&#x1e57;" 
d="M88 500l16 -32.001c14.667 28 39.334 42 74.001 42c36 0 61.167 -9.83301 75.5 -29.5s21.5 -48.167 21.5 -85.5v-289c0 -39.333 -7.16699 -68.5 -21.5 -87.5s-38.833 -28.5 -73.5 -28.5c-15.333 0 -28.833 3.33301 -40.5 10s-20.834 15.334 -27.501 26.001v-186h-60v660
h36zM112 131.999c0 -12.667 0.666992 -24.5 2 -35.5s3.83301 -20.5 7.5 -28.5s9 -14.333 16 -19s16.167 -7 27.5 -7c18.667 0 31.667 5.83301 39 17.5s11 27.167 11 46.5v288c0 19.333 -3.66699 34.833 -11 46.5s-20.333 17.5 -39 17.5c-19.333 0 -33 -5.83301 -41 -17.5
s-12 -27.5 -12 -47.5v-261zM190 658.999v-74h-61v74h61z" />
    <glyph glyph-name="Sdotaccent" unicode="&#x1e60;" horiz-adv-x="329" 
d="M218 198c0 34 -4.16895 60.999 -12.502 80.999s-18.833 36.5 -31.5 49.5s-26.5 24.167 -41.5 33.5s-28.833 20.5 -41.5 33.5s-23.167 29.5 -31.5 49.5s-12.5 47.333 -12.5 82v60c0 18 1.66699 34.5 5 49.5s9.33301 28 18 39s20.667 19.5 36 25.5s34.666 9 57.999 9
s42.666 -3 57.999 -9s27.333 -14.5 36 -25.5s14.667 -24 18 -39s5 -31.5 5 -49.5v-77h-63v77c0 18 -3.66699 33.5 -11 46.5s-21.666 19.5 -42.999 19.5c-22 0 -36.5 -6.16699 -43.5 -18.5s-10.5 -28.166 -10.5 -47.499v-59c0 -28.667 4.16699 -51.334 12.5 -68.001
s18.833 -30.5 31.5 -41.5s26.5 -21.333 41.5 -31s28.833 -22 41.5 -37s23.167 -34.167 31.5 -57.5s12.5 -54.666 12.5 -93.999v-86c0 -18 -1.66699 -34.5 -5 -49.5s-9.33301 -28 -18 -39s-20.667 -19.5 -36 -25.5s-34.666 -9 -57.999 -9s-42.666 3 -57.999 9
s-27.333 14.5 -36 25.5s-14.667 24 -18 39s-5 31.5 -5 49.5v87h63v-87c0 -18.667 3.83301 -34.5 11.5 -47.5s21.834 -19.5 42.501 -19.5c22 0 36.5 6.33301 43.5 19s10.5 28.667 10.5 48v85zM194.998 823.999v-74h-61v74h61z" />
    <glyph glyph-name="sdotaccent" unicode="&#x1e61;" horiz-adv-x="301" 
d="M42 395c0 17.333 1.66797 33.168 5.00098 47.501s9.16602 26.5 17.499 36.5s19.5 17.667 33.5 23s31.333 8 52 8c42 0 70.5 -10.333 85.5 -31s22.5 -48.667 22.5 -84v-57h-59v57c0 22.667 -3.83301 38.834 -11.5 48.501s-20.167 14.5 -37.5 14.5s-29.833 -5 -37.5 -15
s-11.5 -26 -11.5 -48v-19c0 -20.667 3.83301 -37.334 11.5 -50.001s17.334 -23.5 29.001 -32.5s24.334 -17.167 38.001 -24.5s26.334 -16 38.001 -26s21.334 -22.833 29.001 -38.5s11.5 -35.834 11.5 -60.501v-40c0 -17.333 -1.66699 -33 -5 -47s-9 -26 -17 -36
s-19 -17.667 -33 -23s-31.667 -8 -53 -8s-39 2.66699 -53 8s-25 13 -33 23s-13.667 22 -17 36s-5 29.667 -5 47v68h59v-68c0 -22.667 3.83301 -38.667 11.5 -48s20.167 -14 37.5 -14s29.833 4.83301 37.5 14.5s11.5 25.5 11.5 47.5v38c0 20 -3.83301 36.167 -11.5 48.5
s-17.334 22.833 -29.001 31.5s-24.334 16.667 -38.001 24s-26.334 16.333 -38.001 27s-21.334 24 -29.001 40s-11.5 37 -11.5 63v19zM180.001 659.002v-74h-61v74h61z" />
    <glyph glyph-name="Tdotaccent" unicode="&#x1e6a;" horiz-adv-x="275" 
d="M169 0h-63v639h-84v61h230v-61h-83v-639zM168 824v-74h-61v74h61z" />
    <glyph glyph-name="tdotaccent" unicode="&#x1e6b;" horiz-adv-x="242" 
d="M22 500l49 -0.000976562v131c10.667 3.33301 20.834 6 30.501 8s19.5 4.66699 29.5 8v-147h79v-53h-79v-346c0 -20.667 3.33301 -35.667 10 -45s18.667 -14 36 -14c7.33301 0 13.666 0.5 18.999 1.5s11.333 2.83301 18 5.5v-51c-4.66699 -2 -11 -3.83301 -19 -5.5
s-15 -2.5 -21 -2.5c-40 0 -67.167 9.33301 -81.5 28s-21.5 46.334 -21.5 83.001v346h-49v53zM131 767.999v-74h-61v74h61z" />
    <glyph glyph-name="Wgrave" unicode="&#x1e80;" horiz-adv-x="536" 
d="M267 574l-73 -574h-73l-89 700h64l62 -579l76 579h66l76 -579l62 579h64l-89 -700h-72zM249 877l37 -127h-42l-55 127h60z" />
    <glyph glyph-name="wgrave" unicode="&#x1e81;" horiz-adv-x="469" 
d="M235 400l-61 -400h-68l-80 500h62l54 -413l30.5 206l31.5 207h62l30.5 -207l31.5 -206l54 413h61l-79 -500h-69zM215 677l37 -127h-42l-55 127h60z" />
    <glyph glyph-name="Wacute" unicode="&#x1e82;" horiz-adv-x="536" 
d="M267 574l-73 -574h-73l-89 700h64l62 -579l76 579h66l76 -579l62 579h64l-89 -700h-72zM339 877l-54 -127h-43l38 127h59z" />
    <glyph glyph-name="wacute" unicode="&#x1e83;" horiz-adv-x="469" 
d="M235 400l-61 -400h-68l-80 500h62l54 -413l30.5 206l31.5 207h62l30.5 -207l31.5 -206l54 413h61l-79 -500h-69zM314 677l-54 -127h-43l38 127h59z" />
    <glyph glyph-name="Wdieresis" unicode="&#x1e84;" horiz-adv-x="536" 
d="M267 574l-73 -574h-73l-89 700h64l62 -579l76 579h66l76 -579l62 579h64l-89 -700h-72zM244 824v-74h-61v74h61zM352 824v-74h-61v74h61z" />
    <glyph glyph-name="wdieresis" unicode="&#x1e85;" horiz-adv-x="469" 
d="M235 400l-61 -400h-68l-80 500h62l54 -413l30.5 206l31.5 207h62l30.5 -207l31.5 -206l54 413h61l-79 -500h-69zM210 659v-74h-61v74h61zM318 659v-74h-61v74h61z" />
    <glyph glyph-name="Ygrave" unicode="&#x1ef2;" horiz-adv-x="302" 
d="M119 0v291l-97 409h66l62 -318l63 318h66l-97 -409v-291h-63zM137 877l37 -127h-42l-55 127h60z" />
    <glyph glyph-name="ygrave" unicode="&#x1ef3;" horiz-adv-x="301" 
d="M56 -170c-6 0 -12.833 0.5 -20.5 1.5s-13.834 2.16699 -18.501 3.5v54c11.333 -4.66699 24.333 -7 39 -7c29.333 0 48 19.333 56 58l11 59l-98 501h62l65 -391l64 391h62l-108 -562c-7.33301 -38 -19.166 -65.5 -35.499 -82.5s-42.5 -25.5 -78.5 -25.5zM135 677l37 -127
h-42l-55 127h60z" />
    <glyph glyph-name="endash" unicode="&#x2013;" horiz-adv-x="350" 
d="M39 303h270v-46h-270v46z" />
    <glyph glyph-name="emdash" unicode="&#x2014;" horiz-adv-x="510" 
d="M39 297h430v-34h-430v34z" />
    <glyph glyph-name="quoteleft" unicode="&#x2018;" horiz-adv-x="148" 
d="M108 710v-203h-36l-35 203h71z" />
    <glyph glyph-name="quoteright" unicode="&#x2019;" horiz-adv-x="145" 
d="M110 710l-35 -203h-36v203h71z" />
    <glyph glyph-name="quotesinglbase" unicode="&#x201a;" horiz-adv-x="168" 
d="M120 106l-35 -203h-36v203h71z" />
    <glyph glyph-name="quotedblleft" unicode="&#x201c;" horiz-adv-x="260" 
d="M110 710v-203h-36l-35 203h71zM219 710v-203h-36l-34 203h70z" />
    <glyph glyph-name="quotedblright" unicode="&#x201d;" horiz-adv-x="260" 
d="M219 710l-34 -203h-36v203h70zM110 710l-35 -203h-36v203h71z" />
    <glyph glyph-name="quotedblbase" unicode="&#x201e;" horiz-adv-x="276" 
d="M227 106l-34 -203h-36v203h70zM118 106l-35 -203h-36v203h71z" />
    <glyph glyph-name="dagger" unicode="&#x2020;" horiz-adv-x="238" 
d="M39 612h62v98h34v-98h62v-32h-62v-232h-34v232h-62v32z" />
    <glyph glyph-name="daggerdbl" unicode="&#x2021;" horiz-adv-x="238" 
d="M39 477h62v104h-62v31h62v98h34v-98h62v-31h-62v-104h62v-32h-62v-97h-34v97h-62v32z" />
    <glyph glyph-name="bullet" unicode="&#x2022;" horiz-adv-x="250" 
d="M39 283c0 23.333 8.33301 43.333 25 60s36.667 25 60 25s43.333 -8.33301 60 -25s25 -36.667 25 -60s-8.33301 -43.333 -25 -60s-36.667 -25 -60 -25s-43.333 8.33301 -60 25s-25 36.667 -25 60z" />
    <glyph glyph-name="perthousand" unicode="&#x2030;" horiz-adv-x="573" 
d="M130 435c-31.333 0 -52.5 8.5 -63.5 25.5s-16.5 43.167 -16.5 78.5v67c0 35.333 5.5 61.5 16.5 78.5s32.167 25.5 63.5 25.5s52.5 -8.5 63.5 -25.5s16.5 -43.167 16.5 -78.5v-67c0 -35.333 -5.5 -61.5 -16.5 -78.5s-32.167 -25.5 -63.5 -25.5zM320 -10
c-31.333 0 -52.333 8.5 -63 25.5s-16 43.167 -16 78.5v67c0 35.333 5.33301 61.5 16 78.5s31.667 25.5 63 25.5c30 0 51 -10.333 63 -31c10.667 20.667 31.667 31 63 31s52.333 -8.5 63 -25.5s16 -43.167 16 -78.5v-67c0 -35.333 -5.33301 -61.5 -16 -78.5
s-31.667 -25.5 -63 -25.5s-52.333 10.333 -63 31c-12 -20.667 -33 -31 -63 -31zM130 671c-14.667 0 -24.5 -4.5 -29.5 -13.5s-7.5 -25.833 -7.5 -50.5v-69c0 -24.667 2.5 -41.5 7.5 -50.5s14.833 -13.5 29.5 -13.5s24.5 4.5 29.5 13.5s7.5 25.833 7.5 50.5v69
c0 24.667 -2.5 41.5 -7.5 50.5s-14.833 13.5 -29.5 13.5zM321 226c-14.667 0 -24.5 -4.5 -29.5 -13.5s-7.5 -25.833 -7.5 -50.5v-69c0 -24.667 2.5 -41.5 7.5 -50.5s14.833 -13.5 29.5 -13.5s24.5 4.5 29.5 13.5s7.5 25.833 7.5 50.5v69c0 24.667 -2.5 41.5 -7.5 50.5
s-14.833 13.5 -29.5 13.5zM445 226c-14.667 0 -24.5 -4.5 -29.5 -13.5s-7.5 -25.833 -7.5 -50.5v-69c0 -24.667 2.5 -41.5 7.5 -50.5s14.833 -13.5 29.5 -13.5s24.5 4.5 29.5 13.5s7.5 25.833 7.5 50.5v69c0 24.667 -2.5 41.5 -7.5 50.5s-14.833 13.5 -29.5 13.5zM101 0h-44
l293 700h44z" />
    <glyph glyph-name="guilsinglleft" unicode="&#x2039;" horiz-adv-x="246" 
d="M145 435h61l-105 -185l105 -185h-61l-106 185z" />
    <glyph glyph-name="guilsinglright" unicode="&#x203a;" horiz-adv-x="246" 
d="M206 250l-106 -185h-61l105 185l-105 185h61z" />
    <glyph glyph-name="Euro" unicode="&#x20ac;" horiz-adv-x="374" 
d="M79 427l-0.00195312 160c0 18 1.83301 34.5 5.5 49.5s10 28 19 39s21 19.5 36 25.5s34.167 9 57.5 9c44 0 74.5 -11.5 91.5 -34.5s25.5 -52.5 25.5 -88.5v-77h-62v77c0 18.667 -3.83301 34.334 -11.5 47.001s-22.167 19 -43.5 19s-35.833 -6.16699 -43.5 -18.5
s-11.5 -28.166 -11.5 -47.499v-160h111c-1.33301 -6.66699 -2.66602 -13 -3.99902 -19l-4 -18h-103v-72h87c-1.33301 -6.66699 -2.66602 -13 -3.99902 -19l-4 -18h-79v-169c0 -18.667 3.83301 -34.334 11.5 -47.001s22.167 -19 43.5 -19s35.833 6.16699 43.5 18.5
s11.5 28.166 11.5 47.499v88h62v-88c0 -36 -8.5 -65.333 -25.5 -88s-47.5 -34 -91.5 -34c-23.333 0 -42.5 3 -57.5 9s-27 14.333 -36 25s-15.333 23.5 -19 38.5s-5.5 31.5 -5.5 49.5v169h-50v37h50v72h-50v37h50z" />
    <glyph glyph-name="trademark" unicode="&#x2122;" horiz-adv-x="344" 
d="M101 500h-24v177h-38v23h99v-23h-37v-177zM223 544l-33 100v-144h-24v200h25l39 -116l39 116h25v-200h-23v144l-33 -100h-15z" />
    <glyph glyph-name="partialdiff" unicode="&#x2202;" horiz-adv-x="336" 
d="M166 354c-19.333 0 -33.167 -5.5 -41.5 -16.5s-12.5 -26.167 -12.5 -45.5v-180c0 -20 3.83301 -36 11.5 -48s22.167 -18 43.5 -18s35.833 6 43.5 18s11.5 28 11.5 48v194c-5.33301 32 -24 48 -56 48zM221.999 380c-0.666992 34.667 -3.33301 66.334 -8 95.001
s-12 55.5 -22 80.5s-22.667 49.167 -38 72.5s-33.333 47.333 -54 72h70c21.333 -25.333 39.333 -50.333 54 -75s26.5 -50.334 35.5 -77.001s15.5 -55.167 19.5 -85.5s6 -63.833 6 -100.5v-250c0 -37.333 -8.5 -67 -25.5 -89s-47.833 -33 -92.5 -33s-75.5 11 -92.5 33
s-25.5 51.667 -25.5 89v180c0 38 7.5 67 22.5 87s41.167 30 78.5 30c14.667 0 28 -2.5 40 -7.5s22.667 -12.167 32 -21.5z" />
    <glyph glyph-name="minus" unicode="&#x2212;" horiz-adv-x="360" 
d="M309 303v-46h-260v46h260z" />
    <glyph glyph-name="integral" unicode="&#x222b;" horiz-adv-x="230" 
d="M124 1c0 -18 -1.5 -33.8311 -4.5 -47.498s-8.5 -25.334 -16.5 -35.001s-18.833 -16.834 -32.5 -21.501s-31.167 -7 -52.5 -7c-6.66699 0 -13.5 0.5 -20.5 1.5s-13.167 2.5 -18.5 4.5v52c10 -4 22.333 -6 37 -6c18.667 0 31.334 4.5 38.001 13.5s10 24.167 10 45.5v607
c0 18 1.5 34 4.5 48s8.5 25.667 16.5 35s19 16.5 33 21.5s31.667 7.5 53 7.5c14.667 0 27.667 -2 39 -6v-53c-9.33301 4.66699 -22 7 -38 7c-18.667 0 -31.334 -4.5 -38.001 -13.5s-10 -24.5 -10 -46.5v-607z" />
    <glyph glyph-name="approxequal" unicode="&#x2248;" horiz-adv-x="360" 
d="M49 371c7.33301 7.33301 16.833 13.5 28.5 18.5s23.834 7.5 36.501 7.5c16 0 28.667 -2 38 -6s18.166 -8.33301 26.499 -13s17.333 -9 27 -13s22.5 -6 38.5 -6c12.667 0 24.834 2.83301 36.501 8.5s21.167 12.167 28.5 19.5v-46
c-7.33301 -7.33301 -16.833 -13.833 -28.5 -19.5s-23.834 -8.5 -36.501 -8.5c-16 0 -28.833 2 -38.5 6s-18.667 8.33301 -27 13s-17.166 9 -26.499 13s-22 6 -38 6c-12.667 0 -24.834 -2.5 -36.501 -7.5s-21.167 -11.167 -28.5 -18.5v46zM49 219
c7.33301 7.33301 16.833 13.5 28.5 18.5s23.834 7.5 36.501 7.5c16 0 28.667 -2 38 -6s18.166 -8.33301 26.499 -13s17.333 -9 27 -13s22.5 -6 38.5 -6c12.667 0 24.834 2.83301 36.501 8.5s21.167 12.167 28.5 19.5v-46c-7.33301 -7.33301 -16.833 -13.833 -28.5 -19.5
s-23.834 -8.5 -36.501 -8.5c-16 0 -28.833 2 -38.5 6s-18.667 8.33301 -27 13s-17.166 9 -26.499 13s-22 6 -38 6c-12.667 0 -24.834 -2.5 -36.501 -7.5s-21.167 -11.167 -28.5 -18.5v46z" />
    <glyph glyph-name="notequal" unicode="&#x2260;" horiz-adv-x="360" 
d="M215 333l-32 -106h126v-46h-140l-41 -135h-40l40 135h-79v46h93l33 106h-126v46h140l20.5 67.5l20.5 67.5h41l-42 -135h80v-46h-94z" />
    <glyph glyph-name="lessequal" unicode="&#x2264;" horiz-adv-x="268" 
d="M218 136v-46h-171v46h171zM159 483h57l-120 -145l120 -145h-57l-120 145z" />
    <glyph glyph-name="greaterequal" unicode="&#x2265;" horiz-adv-x="268" 
d="M220 136v-46h-171v46h171zM228 338l-120 -145h-57l120 145l-120 145h57z" />
    <glyph glyph-name=".null" horiz-adv-x="0" 
 />
    <glyph glyph-name="nonmarkingreturn" horiz-adv-x="175" 
 />
    <glyph glyph-name="s.smcp" horiz-adv-x="320" 
d="M211 168c0 27.333 -3.99805 49.165 -11.998 65.498s-18.167 30 -30.5 41s-25.5 20.833 -39.5 29.5s-27.167 18.834 -39.5 30.501s-22.5 26.167 -30.5 43.5s-12 40.666 -12 69.999v42c0 15.333 1.66699 29.833 5 43.5s9.16602 25.667 17.499 36s19.666 18.5 33.999 24.5
s32.833 9 55.5 9s41.334 -3 56.001 -9s26.167 -14.167 34.5 -24.5s14.166 -22.333 17.499 -36s5 -28.167 5 -43.5v-57h-61v57c0 15.333 -3.5 29 -10.5 41s-20.833 18 -41.5 18c-21.333 0 -35.333 -5.83301 -42 -17.5s-10 -25.5 -10 -41.5v-41c0 -23.333 4 -41.833 12 -55.5
s18.167 -25.334 30.5 -35.001s25.666 -18.667 39.999 -27s27.666 -19 39.999 -32s22.5 -29.667 30.5 -50s12 -47.166 12 -80.499v-64c0 -15.333 -1.66699 -29.833 -5 -43.5s-9.16602 -25.834 -17.499 -36.501s-19.833 -19 -34.5 -25s-33.334 -9 -56.001 -9
s-41.167 3 -55.5 9s-25.666 14.333 -33.999 25s-14.166 22.834 -17.499 36.501s-5 28.167 -5 43.5v65h60v-65c0 -15.333 3.83301 -29.166 11.5 -41.499s21.167 -18.5 40.5 -18.5c21.333 0 35.333 5.83301 42 17.5s10 25.834 10 42.501v63z" />
    <glyph glyph-name="q.smcp" horiz-adv-x="331" 
d="M237 -83c-34 0 -58.5 6.83203 -73.5 20.499s-23.167 32.167 -24.5 55.5c-17.333 2 -31.5 6.16699 -42.5 12.5s-19.833 14.5 -26.5 24.5s-11.334 21.167 -14.001 33.5s-4 25.5 -4 39.5v387c0 15.333 1.83301 29.833 5.5 43.5s9.66699 25.667 18 36s19.833 18.5 34.5 24.5
s33 9 55 9s40.333 -3 55 -9s26.167 -14.167 34.5 -24.5s14.333 -22.333 18 -36s5.5 -28.167 5.5 -43.5v-387c0 -14 -1.33301 -27.167 -4 -39.5s-7.33398 -23.5 -14.001 -33.5s-15.667 -18.167 -27 -24.5s-25.333 -10.5 -42 -12.5
c0.666992 -13.333 4.33398 -22.666 11.001 -27.999s18.334 -8 35.001 -8h21l-9 -40h-12zM165 43.999c20.667 0 34.667 5.83301 42 17.5s11 25.5 11 41.5v387c0 16 -3.66699 29.833 -11 41.5s-21.333 17.5 -42 17.5s-34.667 -5.83301 -42 -17.5s-11 -25.5 -11 -41.5v-387
c0 -16 3.66699 -29.833 11 -41.5s21.333 -17.5 42 -17.5z" />
    <glyph glyph-name="p.smcp" horiz-adv-x="325" 
d="M62 595h109.999c22.667 0 41.5 -3 56.5 -9s26.833 -14 35.5 -24s14.667 -21.833 18 -35.5s5 -28.167 5 -43.5v-125c0 -14.667 -2.16699 -28.667 -6.5 -42s-11.166 -25 -20.499 -35s-21.333 -18 -36 -24s-32.667 -9 -54 -9h-47v-248h-61v595zM168.999 301
c22.667 0 38 5.5 46 16.5s12 24.5 12 40.5v125c0 16 -4.33301 29 -13 39s-23.667 15 -45 15h-46v-236h46z" />
    <glyph glyph-name="n.smcp" horiz-adv-x="379" 
d="M115 464l4 -134.501c1.33301 -43.667 2 -89.5 2 -137.5v-192h-59v595h60l141 -465l-4 136.5c-1.33301 43.667 -2 88.834 -2 135.501v193h59v-595h-60l-141 464v0z" />
    <glyph glyph-name="m.smcp" horiz-adv-x="466" 
d="M139 595l92.998 -506.003l94 506h77v-595h-57v203c0 14.667 0.333008 34.834 1 60.501l2 81l2 84.5c0.666992 28 1.33398 51.667 2.00098 71l-91 -500h-58l-92 500c0.666992 -20 1.33398 -43.833 2.00098 -71.5s1.5 -55.667 2.5 -84s1.83301 -55.166 2.5 -80.499
s1 -45.666 1 -60.999v-203h-58v595h77z" />
    <glyph glyph-name="l.smcp" horiz-adv-x="251" 
d="M62 595h61v-538h105v-57h-166v595z" />
    <glyph glyph-name="k.smcp" horiz-adv-x="325" 
d="M123 325l111 270h67l-129 -295l135 -300h-66l-118 275v-275h-61v595h61v-270z" />
    <glyph glyph-name="j.smcp" horiz-adv-x="313" 
d="M98 103c0 -15.333 3.33398 -28.833 10.001 -40.5s19.667 -17.5 39 -17.5s32.166 5.5 38.499 16.5s9.5 24.833 9.5 41.5v492h60v-492c0 -15.333 -1.66699 -29.833 -5 -43.5s-9 -25.5 -17 -35.5s-19 -18 -33 -24s-31.667 -9 -53 -9s-39 3 -53 9s-25.167 14 -33.5 24
s-14.333 21.833 -18 35.5s-5.5 28.167 -5.5 43.5v67h61v-67z" />
    <glyph glyph-name="g.smcp" horiz-adv-x="341" 
d="M170 327h113v-223c0 -15.333 -1.83301 -29.833 -5.5 -43.5s-9.66699 -25.667 -18 -36s-19.833 -18.5 -34.5 -24.5s-33 -9 -55 -9s-40.333 3 -55 9s-26.167 14.167 -34.5 24.5s-14.333 22.333 -18 36s-5.5 28.167 -5.5 43.5v387c0 15.333 1.83301 29.833 5.5 43.5
s9.66699 25.5 18 35.5s19.833 18 34.5 24s33 9 55 9c21.333 0 39.166 -3 53.499 -9s25.833 -14 34.5 -24s14.834 -21.833 18.501 -35.5s5.5 -28.167 5.5 -43.5v-58h-59v58c0 14.667 -4 28 -12 40s-21.667 18 -41 18c-20.667 0 -34.667 -5.66699 -42 -17s-11 -25 -11 -41
v-387c0 -15.333 4 -29 12 -41s21.667 -18 41 -18c20.667 0 34.667 5.66699 42 17s11 25.333 11 42v169h-53v54z" />
    <glyph glyph-name="f.smcp" horiz-adv-x="281" 
d="M62 0v595h186v-58h-125v-210h107v-54h-107v-273h-61z" />
    <glyph glyph-name="d.smcp" horiz-adv-x="349" 
d="M173 57c22.667 0 37.834 5.16699 45.501 15.5s11.5 23.5 11.5 39.5v371c0 16 -3.83301 29 -11.5 39s-22.834 15 -45.501 15h-50v-480h50zM62 595h111.999c22.667 0 41.667 -3 57 -9s27.333 -14 36 -24s14.834 -21.833 18.501 -35.5s5.5 -28.167 5.5 -43.5v-371
c0 -15.333 -1.66699 -29.833 -5 -43.5s-9.33301 -25.5 -18 -35.5s-20.5 -18 -35.5 -24s-33.833 -9 -56.5 -9h-114v595z" />
    <glyph glyph-name="c.smcp" horiz-adv-x="320" 
d="M219 170h57.999v-67c0 -15.333 -1.83301 -29.833 -5.5 -43.5s-9.83398 -25.5 -18.501 -35.5s-20.167 -18 -34.5 -24s-32.166 -9 -53.499 -9c-22 0 -40.333 3 -55 9s-26.167 14 -34.5 24s-14.333 21.833 -18 35.5s-5.5 28.167 -5.5 43.5v388
c0 15.333 1.83301 29.833 5.5 43.5s9.66699 25.5 18 35.5s19.833 18 34.5 24s33 9 55 9c21.333 0 39.166 -3 53.499 -9s25.833 -14 34.5 -24s14.834 -21.833 18.501 -35.5s5.5 -28.167 5.5 -43.5v-58h-58v58c0 15.333 -4.16699 28.833 -12.5 40.5s-22.166 17.5 -41.499 17.5
c-20.667 0 -34.667 -5.66699 -42 -17s-11 -25 -11 -41v-388c0 -15.333 4 -28.833 12 -40.5s21.667 -17.5 41 -17.5c20 0 34 5.83301 42 17.5s12 25.167 12 40.5v67z" />
    <glyph glyph-name="b.smcp" horiz-adv-x="344" 
d="M62 595l110.001 -0.00195312c22.667 0 41.334 -2.33301 56.001 -7s26.334 -11.167 35.001 -19.5s14.667 -18.666 18 -30.999s5 -26.166 5 -41.499v-115c0 -19.333 -3.83301 -36 -11.5 -50s-21.167 -24 -40.5 -30c21.333 -6 36.166 -16.167 44.499 -30.5
s12.5 -31.5 12.5 -51.5v-114c0 -15.333 -1.5 -29.5 -4.5 -42.5s-8.83301 -24.167 -17.5 -33.5s-20.334 -16.5 -35.001 -21.5s-33.334 -7.5 -56.001 -7.5h-116v595zM174.001 56.998c22 0 36.833 4.16797 44.5 12.501s11.5 20.5 11.5 36.5v116c0 15.333 -4 27.666 -12 36.999
s-22.667 14 -44 14h-51v-216h51zM123.001 536.999l0.000976562 -209.999h47c21.333 0 36.166 4.66699 44.499 14s12.5 21.666 12.5 36.999v111c0 16 -4 28 -12 36s-22.667 12 -44 12h-48z" />
    <glyph glyph-name="at.case" horiz-adv-x="523" 
d="M261 -20c-41.333 0 -75.666 6.16699 -102.999 18.5s-49 29.166 -65 50.499s-27.333 46.166 -34 74.499s-10 58.5 -10 90.5v271c0 32.667 3.33301 63.167 10 91.5s18.167 53.166 34.5 74.499s38.166 38.166 65.499 50.499s61.333 18.5 102 18.5s74.5 -6.16699 101.5 -18.5
s48.667 -29.166 65 -50.499s27.833 -46.166 34.5 -74.499s10 -58.833 10 -91.5v-271c0 -32 -3.33301 -62.167 -10 -90.5s-18 -53.166 -34 -74.499s-37.5 -38.166 -64.5 -50.499s-61.167 -18.5 -102.5 -18.5zM261 21c34 0 61.832 5.16699 83.499 15.5s38.667 24.333 51 42
s21 38.167 26 61.5s7.5 48 7.5 74v271c0 26 -2.5 50.667 -7.5 74s-13.833 44 -26.5 62s-29.834 32.167 -51.501 42.5s-49.167 15.5 -82.5 15.5c-34 0 -61.833 -5.16699 -83.5 -15.5s-38.667 -24.5 -51 -42.5s-21 -38.667 -26 -62s-7.5 -48 -7.5 -74v-271
c0 -26 2.33301 -50.667 7 -74s13.334 -43.833 26.001 -61.5s29.834 -31.667 51.501 -42s49.5 -15.5 83.5 -15.5zM167.999 291c0 16 2.16406 29.9971 6.49707 41.9971s11.5 22.833 21.5 32.5s23.667 18.334 41 26.001s39 15.167 65 22.5v57c0 15.333 -3.5 27.5 -10.5 36.5
s-17.167 13.5 -30.5 13.5c-16 0 -27 -4.5 -33 -13.5s-9 -21.167 -9 -36.5v-22h-47v23c0 27.333 6.33301 49.166 19 65.499s36 24.5 70 24.5c17.333 0 31.666 -2.16699 42.999 -6.5s20.333 -10.5 27 -18.5s11.334 -17.667 14.001 -29s4 -23.666 4 -36.999v-324h-34
c-1.33301 4.66699 -3.16602 8.83398 -5.49902 12.501s-4.16602 7.83398 -5.49902 12.501c-10.667 -22.667 -30 -34 -58 -34c-29.333 0 -49.666 7.83301 -60.999 23.5s-17 38.167 -17 67.5v62zM301.996 377.997c-18.667 -6 -33.667 -11.999 -45 -17.999
s-20.166 -12.833 -26.499 -20.5s-10.5 -16.334 -12.5 -26.001s-3 -20.834 -3 -33.501v-51c0 -15.333 3.5 -27.666 10.5 -36.999s18.5 -14 34.5 -14c15.333 0 26.166 5.16699 32.499 15.5s9.5 22.5 9.5 36.5v148z" />
    <glyph glyph-name="e.smcp" horiz-adv-x="296" 
d="M123 57h130v-57h-191v595h191v-58h-130v-210h112v-54h-112v-216z" />
    <glyph glyph-name="i.smcp" horiz-adv-x="186" 
d="M62 595h61v-595h-61v595z" />
    <glyph glyph-name="y.smcp" horiz-adv-x="292" 
d="M115 0v247l-93 348h63l60 -268l60 268h64l-93 -348v-247h-61z" />
    <glyph glyph-name="a.smcp" horiz-adv-x="303" 
d="M114 595h75l92 -595h-62l-18 131h-99l-18 -131h-62zM151 516l-43 -331h87z" />
    <glyph glyph-name="h.smcp" horiz-adv-x="355" 
d="M123 0h-61v595h61v-268h108v268h61v-595h-61v273h-108v-273z" />
    <glyph glyph-name="t.smcp" horiz-adv-x="266" 
d="M163 0h-60v537h-81v58h221v-58h-80v-537z" />
    <glyph glyph-name="r.smcp" horiz-adv-x="338" 
d="M62 595l111.001 -0.00292969c22.667 0 41.5 -3 56.5 -9s26.667 -14 35 -24s14.166 -21.667 17.499 -35s5 -27.666 5 -42.999v-122c0 -25.333 -5.33301 -47.666 -16 -66.999s-30 -31.666 -58 -36.999l106 -258h-67l-98 255h-31v-255h-61v595zM169.001 307.997
c22.667 0 38 5 46 15s12 23 12 39v122c0 16 -4.33301 28.833 -13 38.5s-23.667 14.5 -45 14.5h-46v-229h46z" />
    <glyph glyph-name="o.smcp" horiz-adv-x="331" 
d="M165 45c20.667 0 34.667 5.83301 42 17.5s11 25.5 11 41.5v386c0 16 -3.66699 29.833 -11 41.5s-21.333 17.5 -42 17.5s-34.667 -5.83301 -42 -17.5s-11 -25.5 -11 -41.5v-386c0 -16 3.66699 -29.833 11 -41.5s21.333 -17.5 42 -17.5zM165 603c22 0 40.333 -3 55 -9
s26.167 -14.167 34.5 -24.5s14.333 -22.333 18 -36s5.5 -28.167 5.5 -43.5v-386c0 -15.333 -1.83301 -29.833 -5.5 -43.5s-9.66699 -25.667 -18 -36s-19.833 -18.5 -34.5 -24.5s-33 -9 -55 -9s-40.333 3 -55 9s-26.167 14.167 -34.5 24.5s-14.333 22.333 -18 36
s-5.5 28.167 -5.5 43.5v386c0 15.333 1.83301 29.833 5.5 43.5s9.66699 25.667 18 36s19.833 18.5 34.5 24.5s33 9 55 9z" />
    <glyph glyph-name="u.smcp" horiz-adv-x="340" 
d="M117 105c0 -16 3.5 -29.999 10.5 -41.999s21.167 -18 42.5 -18s35.333 6 42 18s10 26 10 42v490h60v-490c0 -14.667 -1.83301 -28.834 -5.5 -42.501s-9.83398 -25.834 -18.501 -36.501s-20.167 -19.167 -34.5 -25.5s-32.166 -9.5 -53.499 -9.5
c-22.667 0 -41.334 3 -56.001 9s-26.167 14.333 -34.5 25s-14.166 22.834 -17.499 36.501s-5 28.167 -5 43.5v490h60v-490z" />
    <glyph glyph-name="v.smcp" horiz-adv-x="313" 
d="M191 0h-70l-94 595h62l67 -489l67 489h62z" />
    <glyph glyph-name="question.smcp" horiz-adv-x="323" 
d="M139 195l0.000976562 16.9951c0 29.333 1.83301 52.666 5.5 69.999s8.16699 31.333 13.5 42s11 19.334 17 26.001s11.667 13.834 17 21.501s9.83301 17 13.5 28s5.5 26.167 5.5 45.5v44c0 18 -3.66699 32.333 -11 43s-20.333 16 -39 16c-21.333 0 -35 -5 -41 -15
s-9 -24.667 -9 -44v-51h-60v51c0 16 1.5 31 4.5 45s8.5 26 16.5 36s19.167 18 33.5 24s32.833 9 55.5 9s41.167 -3 55.5 -9s25.5 -14 33.5 -24s13.5 -22 16.5 -36s4.5 -29 4.5 -45v-43c0 -25.333 -2 -45.166 -6 -59.499s-9.16699 -26.166 -15.5 -35.499
s-13.166 -17.666 -20.499 -24.999s-14.333 -16 -21 -26s-12.334 -23.167 -17.001 -39.5s-7.33398 -38.166 -8.00098 -65.499h-44zM199.001 76.9951v-77h-72v77h72z" />
    <glyph glyph-name="questiondown.smcp" horiz-adv-x="327" 
d="M187 400l-0.000976562 -16.998c0 -29.333 -1.83301 -52.666 -5.5 -69.999s-8.16699 -31.333 -13.5 -42s-11 -19.334 -17 -26.001s-11.667 -13.834 -17 -21.501s-9.83301 -17 -13.5 -28s-5.5 -26.167 -5.5 -45.5v-44c0 -18 3.66699 -32.333 11 -43s20.333 -16 39 -16
c21.333 0 35 5 41 15s9 24.667 9 44v51h60v-51c0 -16 -1.5 -31 -4.5 -45s-8.5 -26 -16.5 -36s-19.167 -18 -33.5 -24s-32.833 -9 -55.5 -9s-41.167 3 -55.5 9s-25.5 14 -33.5 24s-13.5 22 -16.5 36s-4.5 29 -4.5 45v43c0 24.667 2 44.334 6 59.001s9.16699 26.667 15.5 36
s13.166 17.666 20.499 24.999s14.333 16 21 26s12.334 23.167 17.001 39.5s7.33398 38.166 8.00098 65.499h44zM126.999 518.002v77h72v-77h-72z" />
    <glyph glyph-name="one.smcp" horiz-adv-x="255" 
d="M158 57h59.001v-57h-178v57h59v437h-61v40c27.333 0 46.166 6 56.499 18s15.5 26.333 15.5 43h49v-538z" />
    <glyph glyph-name="two.smcp" horiz-adv-x="311" 
d="M107 57l165.998 -0.00195312v-57h-226v85c0 33.333 4 62 12 86s18 44.833 30 62.5s25 33.667 39 48s27 29 39 44s22 31.167 30 48.5s12 38.333 12 63v55c0 15.333 -3.66699 28.666 -11 39.999s-20.666 17 -39.999 17s-32.666 -5.66699 -39.999 -17
s-11 -24.666 -11 -39.999v-59h-60v59c0 14.667 1.66699 28.834 5 42.501s9.33301 25.5 18 35.5s20 18 34 24s32 9 54 9s40.167 -3 54.5 -9s25.833 -14 34.5 -24s14.667 -21.833 18 -35.5s5 -27.834 5 -42.501v-54c0 -29.333 -4 -54.166 -12 -74.499s-18 -38.666 -30 -54.999
s-25.167 -31.5 -39.5 -45.5s-27.5 -29 -39.5 -45s-22 -34.333 -30 -55s-12 -45.667 -12 -75v-31z" />
    <glyph glyph-name="three.smcp" 
d="M125 327l32.0039 0.00195312c19.333 0 32.333 4.5 39 13.5s10 21.167 10 36.5v118c0 15.333 -3.83301 28.166 -11.5 38.499s-20.5 15.5 -38.5 15.5c-18.667 0 -31.5 -5.16699 -38.5 -15.5s-10.5 -23.166 -10.5 -38.499v-62h-58v62c0 31.333 7.66699 57.166 23 77.499
s43.333 30.5 84 30.5c21.333 0 39.166 -2.83301 53.499 -8.5s25.666 -13.334 33.999 -23.001s14.166 -21.167 17.499 -34.5s5 -27.333 5 -42v-113c0 -19.333 -4 -36 -12 -50s-21 -24.333 -39 -31c19.333 -6 33.333 -16.167 42 -30.5s13 -31.166 13 -50.499v-119
c0 -15.333 -1.66699 -29.666 -5 -42.999s-9.33301 -25 -18 -35s-20.334 -17.833 -35.001 -23.5s-33 -8.5 -55 -8.5s-40.167 2.83301 -54.5 8.5s-25.5 13.5 -33.5 23.5s-13.667 21.667 -17 35s-5 27.666 -5 42.999v69h60v-69c0 -16.667 3.66699 -30.167 11 -40.5
s20.333 -15.5 39 -15.5c21.333 0 35.333 5.33301 42 16s10 24 10 40v121c0 13.333 -4 25.166 -12 35.499s-21.333 15.5 -40 15.5h-32v54z" />
    <glyph glyph-name="four.smcp" horiz-adv-x="314" 
d="M182 129h-155v59l135 407h81v-413h43v-53h-43v-129h-61v129zM182 182l0.000976562 111c0 39.333 0.166992 77 0.5 113s0.166016 75.333 -0.500977 118l-105 -342h105z" />
    <glyph glyph-name="five.smcp" horiz-adv-x="331" 
d="M168 314c-24.667 0 -44.999 -10.001 -60.999 -30.001h-48l17 311h193v-58h-139l-11 -199c8.66699 6.66699 18 12.334 28 17.001s21.667 7 35 7c35.333 0 60.166 -8.33301 74.499 -25s21.5 -41.667 21.5 -75v-158c0 -15.333 -1.83301 -29.833 -5.5 -43.5
s-9.66699 -25.667 -18 -36s-19.833 -18.5 -34.5 -24.5s-33 -9 -55 -9s-40.333 3 -55 9s-26.167 14.167 -34.5 24.5s-14.333 22.333 -18 36s-5.5 28.167 -5.5 43.5v66h60v-66c0 -16 3.66699 -29.833 11 -41.5s21.333 -17.5 42 -17.5s34.667 5.83301 42 17.5s11 25.5 11 41.5
v158c0 15.333 -3.5 27.833 -10.5 37.5s-20.167 14.5 -39.5 14.5z" />
    <glyph glyph-name="w.smcp" horiz-adv-x="516" 
d="M257 486l-70 -486h-70l-85 595h61l60 -490l73 490h63l73 -490l59 490h62l-86 -595h-69z" />
    <glyph glyph-name="six.smcp" horiz-adv-x="336" 
d="M170 549c-19.333 0 -33 -5.33301 -41 -16s-12 -25 -12 -43v-166c9.33301 8 19.833 14.5 31.5 19.5s24.167 7.5 37.5 7.5c36 0 61.167 -9.16699 75.5 -27.5s21.5 -43.5 21.5 -75.5v-144c0 -16 -1.83301 -30.833 -5.5 -44.5s-10 -25.5 -19 -35.5s-20.667 -18 -35 -24
s-32.166 -9 -53.499 -9s-39.333 3 -54 9s-26.334 14 -35.001 24s-14.834 21.833 -18.501 35.5s-5.5 28.5 -5.5 44.5v386c0 16 1.83301 30.833 5.5 44.5s9.83398 25.5 18.501 35.5s20.334 18 35.001 24s32.667 9 54 9s39.166 -3 53.499 -9s26 -14 35 -24
s15.333 -21.833 19 -35.5s5.5 -28.5 5.5 -44.5v-57h-60v57c0 18 -4 32.333 -12 43s-21.667 16 -41 16zM171 301c-12.667 0 -23.5 -2.66797 -32.5 -8.00098s-16.167 -11.666 -21.5 -18.999v-170c0 -17.333 3.83301 -31.5 11.5 -42.5s21.5 -16.5 41.5 -16.5
s33.833 5.5 41.5 16.5s11.5 25.167 11.5 42.5v144c0 16 -4.16699 28.833 -12.5 38.5s-21.5 14.5 -39.5 14.5z" />
    <glyph glyph-name="x.smcp" horiz-adv-x="306" 
d="M153 379l59 216h64l-93 -286l100 -309h-64l-66 237l-67 -237h-64l99 309l-92 286h64z" />
    <glyph glyph-name="z.smcp" horiz-adv-x="274" 
d="M37 0v40l136 497h-136v58h201v-40l-135 -498h138v-57h-204z" />
    <glyph glyph-name="seven.smcp" horiz-adv-x="265" 
d="M89 0c0 51.333 1.49805 99.668 4.49805 145.001s8.16699 89.5 15.5 132.5s17 85.667 29 128s27.333 86.166 46 131.499h-162v58h220v-49c-12 -33.333 -22.5 -64 -31.5 -92s-16.667 -55 -23 -81s-11.666 -51.833 -15.999 -77.5s-7.66602 -53 -9.99902 -82
s-4 -60.833 -5 -95.5s-1.5 -74 -1.5 -118h-66z" />
    <glyph glyph-name="eight.smcp" horiz-adv-x="331" 
d="M165 603c21.333 0 39.1699 -2.83301 53.5029 -8.5s25.666 -13.5 33.999 -23.5s14.166 -21.667 17.499 -35s5 -27.333 5 -42v-110c0 -19.333 -4.16699 -36.333 -12.5 -51s-21.5 -25.334 -39.5 -32.001c21.333 -7.33301 35.833 -18.833 43.5 -34.5
s11.5 -34.834 11.5 -57.501v-105c0 -15.333 -1.83301 -29.833 -5.5 -43.5s-9.66699 -25.667 -18 -36s-19.833 -18.5 -34.5 -24.5s-33 -9 -55 -9s-40.333 3 -55 9s-26.167 14.167 -34.5 24.5s-14.333 22.333 -18 36s-5.5 28.167 -5.5 43.5v105
c0 22.667 3.83301 41.834 11.5 57.501s22.167 27.167 43.5 34.5c-18 6.66699 -30.833 17.334 -38.5 32.001s-11.5 31.667 -11.5 51v110c0 14.667 1.66699 28.667 5 42s9.16602 25 17.499 35s19.333 17.833 33 23.5s31.167 8.5 52.5 8.5zM165.004 45c22 0 36.333 6.5 43 19.5
s10 28.167 10 45.5v104c0 16.667 -3.16699 31.5 -9.5 44.5s-20.833 19.5 -43.5 19.5c-11.333 0 -20.5 -1.83301 -27.5 -5.5s-12.333 -8.5 -16 -14.5s-6.16699 -12.833 -7.5 -20.5s-2 -15.5 -2 -23.5v-104c0 -17.333 3.33301 -32.5 10 -45.5s21 -19.5 43 -19.5zM165.004 549
c-20 0 -33.167 -5.83301 -39.5 -17.5s-9.5 -25.834 -9.5 -42.501v-106c0 -15.333 3 -29.166 9 -41.499s19.333 -18.5 40 -18.5s34.167 6.16699 40.5 18.5s9.5 26.166 9.5 41.499v106c0 16.667 -3.16699 30.834 -9.5 42.501s-19.833 17.5 -40.5 17.5z" />
    <glyph glyph-name="nine.smcp" horiz-adv-x="331" 
d="M165 46c19.333 0 33 5 41 15s12 24.333 12 43v178c-9.33301 -7.33301 -19.833 -13.5 -31.5 -18.5s-24.167 -7.5 -37.5 -7.5c-36 0 -61.167 8.83301 -75.5 26.5s-21.5 42.5 -21.5 74.5v134c0 16 1.83301 30.833 5.5 44.5s10 25.5 19 35.5s20.667 17.833 35 23.5
s32.166 8.5 53.499 8.5s39.333 -2.83301 54 -8.5s26.334 -13.5 35.001 -23.5s14.834 -21.833 18.501 -35.5s5.5 -28.5 5.5 -44.5v-387c0 -16 -1.83301 -30.833 -5.5 -44.5s-9.83398 -25.5 -18.501 -35.5s-20.334 -18 -35.001 -24s-32.667 -9 -54 -9s-39.166 3 -53.499 9
s-26 14 -35 24s-15.333 21.833 -19 35.5s-5.5 28.5 -5.5 44.5v66h60v-66c0 -18.667 4 -33 12 -43s21.667 -15 41 -15zM164 305c12.667 0 23.5 2.66797 32.5 8.00098s16.167 11.666 21.5 18.999v159c0 17.333 -3.83301 31.5 -11.5 42.5s-21.5 16.5 -41.5 16.5
s-33.833 -5.5 -41.5 -16.5s-11.5 -25.167 -11.5 -42.5v-134c0 -16 4.16699 -28.667 12.5 -38s21.5 -14 39.5 -14z" />
    <glyph glyph-name="zero.smcp" horiz-adv-x="331" 
d="M165 45c20.667 0 34.667 5.83301 42 17.5s11 25.5 11 41.5v386c0 16 -3.66699 29.833 -11 41.5s-21.333 17.5 -42 17.5s-34.667 -5.83301 -42 -17.5s-11 -25.5 -11 -41.5v-386c0 -16 3.66699 -29.833 11 -41.5s21.333 -17.5 42 -17.5zM165 603c22 0 40.333 -3 55 -9
s26.167 -14.167 34.5 -24.5s14.333 -22.333 18 -36s5.5 -28.167 5.5 -43.5v-386c0 -15.333 -1.83301 -29.833 -5.5 -43.5s-9.66699 -25.667 -18 -36s-19.833 -18.5 -34.5 -24.5s-33 -9 -55 -9s-40.333 3 -55 9s-26.167 14.167 -34.5 24.5s-14.333 22.333 -18 36
s-5.5 28.167 -5.5 43.5v386c0 15.333 1.83301 29.833 5.5 43.5s9.66699 25.667 18 36s19.833 18.5 34.5 24.5s33 9 55 9z" />
    <glyph glyph-name="dollar.smcp" horiz-adv-x="326" 
d="M59 428c0 28 5.99902 51.334 17.999 70.001s34 29.667 66 33v64h39v-64c32.667 -3.33301 54.667 -14.333 66 -33s17 -42 17 -70v-43h-56v44c0 19.333 -4 33.166 -12 41.499s-19.667 12.5 -35 12.5c-16 0 -27.833 -4.16699 -35.5 -12.5s-11.5 -22.166 -11.5 -41.499v-17
c0 -16.667 3.66699 -30.167 11 -40.5s16.666 -19 27.999 -26s23.333 -13.5 36 -19.5s24.667 -13.5 36 -22.5s20.666 -20 27.999 -33s11 -30.167 11 -51.5v-35c0 -28 -5.66699 -51.333 -17 -70s-33.333 -29.667 -66 -33v-81h-39v81
c-33.333 3.33301 -55.666 14.333 -66.999 33s-17 42 -17 70v52h56v-45c0 -22.667 3 -38.667 9 -48s18.667 -14 38 -14c16.667 0 28.667 4.16699 36 12.5s11 22.166 11 41.499v35c0 16 -3.66699 28.833 -11 38.5s-16.666 18 -27.999 25s-23.333 13.667 -36 20
s-24.667 14 -36 23s-20.666 20.333 -27.999 34s-11 31.5 -11 53.5v16z" />
    <glyph glyph-name="ampersand.smcp" horiz-adv-x="380" 
d="M340 274l-55.001 0.00195312v-171c0 -14 4.83301 -25.5 14.5 -34.5s22.834 -13.5 39.501 -13.5v-55c-40.667 0 -68.334 11.333 -83.001 34c-6.66699 -13.333 -17 -23.833 -31 -31.5s-32.667 -11.5 -56 -11.5c-21.333 0 -39 2.83301 -53 8.5s-25.333 13.5 -34 23.5
s-14.667 21.667 -18 35s-5 28 -5 44v110c0 21.333 3.83301 39.666 11.5 54.999s21.5 26.666 41.5 33.999c-20 6.66699 -33.833 17.5 -41.5 32.5s-11.5 33.5 -11.5 55.5v101c0 15.333 1.66699 29.833 5 43.5s9.33301 25.667 18 36s20.334 18.5 35.001 24.5s33 9 55 9
c20.667 0 38.167 -3 52.5 -9s26 -14.167 35 -24.5s15.333 -22.333 19 -36s5.5 -28.167 5.5 -43.5v-57h-59v57c0 15.333 -4 29 -12 41s-21.667 18 -41 18c-20.667 0 -34.667 -5.83301 -42 -17.5s-11 -25.5 -11 -41.5v-113c0 -15.333 4.16699 -27.5 12.5 -36.5
s22.833 -13.5 43.5 -13.5h165v-53zM171.999 45.002c20.667 0 34.667 5.66797 42 17.001s11 27.666 11 48.999v163h-50c-22 0 -36.833 -5.5 -44.5 -16.5s-11.5 -27.833 -11.5 -50.5v-96c0 -22 4 -38.5 12 -49.5s21.667 -16.5 41 -16.5z" />
    <glyph glyph-name="cent.smcp" horiz-adv-x="332" 
d="M272 240l-0.00195312 -55.998c0 -28 -6.16699 -51.833 -18.5 -71.5s-35.166 -30.834 -68.499 -33.501v-79h-39v79c-34 3.33301 -57 14.666 -69 33.999s-18 43 -18 71v244c0 27.333 6 50.5 18 69.5s35 30.167 69 33.5v64h39v-64c16.667 -1.33301 30.667 -5 42 -11
s20.333 -13.5 27 -22.5s11.334 -19.5 14.001 -31.5s4 -24.667 4 -38v-47h-57v47c0 17.333 -3.5 30.833 -10.5 40.5s-19.833 14.5 -38.5 14.5s-31.667 -4.83301 -39 -14.5s-11 -23.167 -11 -40.5v-244c0 -17.333 3.66699 -30.833 11 -40.5s20.333 -14.5 39 -14.5
s31.5 4.83301 38.5 14.5s10.5 23.167 10.5 40.5v56h57z" />
    <glyph glyph-name="sterling.smcp" horiz-adv-x="371" 
d="M40 320h56.0029v170c0 15.333 1.66699 29.833 5 43.5s9.16602 25.667 17.499 36s19.833 18.5 34.5 24.5s33.334 9 56.001 9c21.333 0 39.166 -3 53.499 -9s25.666 -14.167 33.999 -24.5s14.333 -22.333 18 -36s5.5 -28.167 5.5 -43.5v-57h-59v57
c0 16 -3.33301 29.833 -10 41.5s-20.667 17.5 -42 17.5s-35.5 -5.83301 -42.5 -17.5s-10.5 -25.5 -10.5 -41.5v-170h74v-35h-74v-175c0 -16.667 4 -29.667 12 -39s22.667 -14 44 -14h109v-57h-109c-22.667 0 -41 3.66699 -55 11s-24.667 17 -32 29
c-7.33301 -12 -18 -21.667 -32 -29s-32 -11 -54 -11v57c21.333 0 36.166 4.66699 44.499 14s12.5 22.333 12.5 39v175h-56v35z" />
    <glyph glyph-name="exclam.smcp" horiz-adv-x="178" 
d="M125 77v-77h-72v77h72zM126 595l-15 -400h-43l-16 400h74z" />
    <glyph glyph-name="Euro.smcp" horiz-adv-x="362" 
d="M77 363v127c0 15.333 1.83301 29.833 5.5 43.5s9.66699 25.667 18 36s19.833 18.5 34.5 24.5s33 9 55 9c20.667 0 38.167 -3 52.5 -9s26 -14.167 35 -24.5s15.333 -22.333 19 -36s5.5 -28.167 5.5 -43.5v-57h-59v57c0 15.333 -3.83301 29 -11.5 41s-21.5 18 -41.5 18
c-20.667 0 -34.667 -5.83301 -42 -17.5s-11 -25.5 -11 -41.5v-127h107l-4 -16l-4 -16h-99v-61h84l-4 -15.5l-4 -15.5h-76v-135c0 -15.333 3.83301 -29 11.5 -41s21.5 -18 41.5 -18c20.667 0 34.667 5.83301 42 17.5s11 25.5 11 41.5v66h59v-66
c0 -15.333 -1.83301 -29.833 -5.5 -43.5s-10 -25.667 -19 -36s-20.667 -18.5 -35 -24.5s-31.833 -9 -52.5 -9c-22 0 -40.333 3 -55 9s-26.167 14.167 -34.5 24.5s-14.333 22.333 -18 36s-5.5 28.167 -5.5 43.5v135h-48v31h48v61h-48v32h48z" />
    <glyph glyph-name="yen.smcp" horiz-adv-x="327" 
d="M132 228v18l-46.5 174.5l-46.5 174.5h64l59 -272l61 272h63l-93 -349v-18h79v-36h-79v-55h79v-36h-79v-101h-61v101h-76v36h76v55h-76v36h76z" />
    <glyph glyph-name="numbersign.smcp" horiz-adv-x="347" 
d="M258 432h62v-37h-64c-1.33301 -32.667 -2.83301 -65.167 -4.5 -97.5s-3.5 -64.833 -5.5 -97.5h62v-38h-65l-8 -162h-37l8 162h-76l-8 -162h-37l8 162h-62v38h65c1.33301 32.667 2.83301 65.167 4.5 97.5s3.5 64.833 5.5 97.5h-63v37h65l9 163h37l-9 -163h76l9 163h37z
M143 395c-2 -32.667 -3.83301 -65.167 -5.5 -97.5s-3.16699 -64.833 -4.5 -97.5h76c2 32.667 3.83301 65.167 5.5 97.5s3.16699 64.833 4.5 97.5h-76z" />
    <glyph glyph-name="percent.smcp" horiz-adv-x="434" 
d="M96 0h-38l279 595h39zM128 350c-30 0 -50.167 7.5 -60.5 22.5s-15.5 37.167 -15.5 66.5v74c0 30 5.16699 52.5 15.5 67.5s30.5 22.5 60.5 22.5c29.333 0 49.166 -7.5 59.499 -22.5s15.5 -37.5 15.5 -67.5v-74c0 -29.333 -5.16699 -51.5 -15.5 -66.5
s-30.166 -22.5 -59.499 -22.5zM306 -9c-30 0 -50.167 7.5 -60.5 22.5s-15.5 37.5 -15.5 67.5v74c0 29.333 5.16699 51.5 15.5 66.5s30.5 22.5 60.5 22.5c29.333 0 49.166 -7.5 59.499 -22.5s15.5 -37.167 15.5 -66.5v-74c0 -30 -5.16699 -52.5 -15.5 -67.5
s-30.166 -22.5 -59.499 -22.5zM128 572c-15.333 0 -25.833 -4.33301 -31.5 -13s-8.5 -23.667 -8.5 -45v-75c0 -21.333 2.83301 -36.5 8.5 -45.5s16.167 -13.5 31.5 -13.5s25.666 4.5 30.999 13.5s8 24.167 8 45.5v75c0 21.333 -2.66699 36.333 -8 45s-15.666 13 -30.999 13z
M306 214c-15.333 0 -25.666 -4.5 -30.999 -13.5s-8 -24.167 -8 -45.5v-75c0 -21.333 2.66699 -36.333 8 -45s15.666 -13 30.999 -13s25.666 4.33301 30.999 13s8 23.667 8 45v75c0 21.333 -2.66699 36.5 -8 45.5s-15.666 13.5 -30.999 13.5z" />
    <glyph glyph-name="exclamdown.smcp" horiz-adv-x="178" 
d="M53 518v77h72v-77h-72zM52 0l16 400h43l15 -400h-74z" />
    <glyph glyph-name="slash.smcp" horiz-adv-x="256" 
d="M181 620h47l-154 -646h-46z" />
    <glyph glyph-name="backslash.smcp" horiz-adv-x="256" 
d="M228 -26h-47l-153 646h46z" />
    <glyph glyph-name="omacron.smcp" horiz-adv-x="331" 
d="M165 45c20.667 0 34.667 5.83301 42 17.5s11 25.5 11 41.5v386c0 16 -3.66699 29.833 -11 41.5s-21.333 17.5 -42 17.5s-34.667 -5.83301 -42 -17.5s-11 -25.5 -11 -41.5v-386c0 -16 3.66699 -29.833 11 -41.5s21.333 -17.5 42 -17.5zM165 603c22 0 40.333 -3 55 -9
s26.167 -14.167 34.5 -24.5s14.333 -22.333 18 -36s5.5 -28.167 5.5 -43.5v-386c0 -15.333 -1.83301 -29.833 -5.5 -43.5s-9.66699 -25.667 -18 -36s-19.833 -18.5 -34.5 -24.5s-33 -9 -55 -9s-40.333 3 -55 9s-26.167 14.167 -34.5 24.5s-14.333 22.333 -18 36
s-5.5 28.167 -5.5 43.5v386c0 15.333 1.83301 29.833 5.5 43.5s9.66699 25.667 18 36s19.833 18.5 34.5 24.5s33 9 55 9zM80 711h170v-46h-170v46z" />
    <glyph glyph-name="oslash.smcp" horiz-adv-x="331" 
d="M111 0c-22.667 8.66699 -38.168 22.335 -46.501 41.002s-12.5 39.667 -12.5 63v386c0 15.333 1.83301 29.833 5.5 43.5s9.66699 25.667 18 36s19.833 18.5 34.5 24.5s33 9 55 9c5.33301 0 10.333 -0.166992 15 -0.5s9 -0.833008 13 -1.5l4 24h28l-5 -32
c22 -8.66699 37.167 -22.334 45.5 -41.001s12.5 -39.334 12.5 -62.001v-386c0 -15.333 -1.83301 -29.833 -5.5 -43.5s-9.66699 -25.667 -18 -36s-19.833 -18.5 -34.5 -24.5s-33 -9 -55 -9c-5.33301 0 -10.166 0.166992 -14.499 0.5s-8.5 0.833008 -12.5 1.5l-3 -23h-28z
M111.999 104.001c0 -7.33301 0.5 -14 1.5 -20s3.16699 -11.667 6.5 -17l66 479c-6 2 -13 3 -21 3c-20.667 0 -34.667 -5.83301 -42 -17.5s-11 -25.5 -11 -41.5v-386zM164.999 45.001c20.667 0 34.667 5.83398 42 17.501s11 25.5 11 41.5v386
c0 13.333 -2.33301 24.666 -7 33.999l-66 -477c3.33301 -0.666992 6.5 -1.16699 9.5 -1.5s6.5 -0.5 10.5 -0.5z" />
    <glyph glyph-name="otilde.smcp" horiz-adv-x="331" 
d="M165 45c20.667 0 34.667 5.83301 42 17.5s11 25.5 11 41.5v386c0 16 -3.66699 29.833 -11 41.5s-21.333 17.5 -42 17.5s-34.667 -5.83301 -42 -17.5s-11 -25.5 -11 -41.5v-386c0 -16 3.66699 -29.833 11 -41.5s21.333 -17.5 42 -17.5zM165 603c22 0 40.333 -3 55 -9
s26.167 -14.167 34.5 -24.5s14.333 -22.333 18 -36s5.5 -28.167 5.5 -43.5v-386c0 -15.333 -1.83301 -29.833 -5.5 -43.5s-9.66699 -25.667 -18 -36s-19.833 -18.5 -34.5 -24.5s-33 -9 -55 -9s-40.333 3 -55 9s-26.167 14.167 -34.5 24.5s-14.333 22.333 -18 36
s-5.5 28.167 -5.5 43.5v386c0 15.333 1.83301 29.833 5.5 43.5s9.66699 25.667 18 36s19.833 18.5 34.5 24.5s33 9 55 9zM213 655c-12.667 0 -23.0029 2.16504 -31.0029 6.49805s-15 9.16602 -21 14.499s-12.167 10.166 -18.5 14.499s-13.833 6.5 -22.5 6.5
c-10.667 0 -18 -2.66699 -22 -8s-6 -13.333 -6 -24h-38c0 26.667 4.33301 46.834 13 60.501s25.334 20.5 50.001 20.5c12.667 0 22.834 -2.16699 30.501 -6.5s14.667 -9.16602 21 -14.499s12.5 -10.166 18.5 -14.499s13.667 -6.5 23 -6.5c10.667 0 18 2.66699 22 8
s6 13.333 6 24h38c0 -27.333 -4.66699 -47.666 -14 -60.999s-25.666 -20 -48.999 -20z" />
    <glyph glyph-name="odieresis.smcp" horiz-adv-x="331" 
d="M165 45c20.667 0 34.667 5.83301 42 17.5s11 25.5 11 41.5v386c0 16 -3.66699 29.833 -11 41.5s-21.333 17.5 -42 17.5s-34.667 -5.83301 -42 -17.5s-11 -25.5 -11 -41.5v-386c0 -16 3.66699 -29.833 11 -41.5s21.333 -17.5 42 -17.5zM165 603c22 0 40.333 -3 55 -9
s26.167 -14.167 34.5 -24.5s14.333 -22.333 18 -36s5.5 -28.167 5.5 -43.5v-386c0 -15.333 -1.83301 -29.833 -5.5 -43.5s-9.66699 -25.667 -18 -36s-19.833 -18.5 -34.5 -24.5s-33 -9 -55 -9s-40.333 3 -55 9s-26.167 14.167 -34.5 24.5s-14.333 22.333 -18 36
s-5.5 28.167 -5.5 43.5v386c0 15.333 1.83301 29.833 5.5 43.5s9.66699 25.667 18 36s19.833 18.5 34.5 24.5s33 9 55 9zM141 734v-74h-61v74h61zM249 734v-74h-61v74h61z" />
    <glyph glyph-name="ocircumflex.smcp" horiz-adv-x="331" 
d="M165 45c20.667 0 34.667 5.83301 42 17.5s11 25.5 11 41.5v386c0 16 -3.66699 29.833 -11 41.5s-21.333 17.5 -42 17.5s-34.667 -5.83301 -42 -17.5s-11 -25.5 -11 -41.5v-386c0 -16 3.66699 -29.833 11 -41.5s21.333 -17.5 42 -17.5zM165 603c22 0 40.333 -3 55 -9
s26.167 -14.167 34.5 -24.5s14.333 -22.333 18 -36s5.5 -28.167 5.5 -43.5v-386c0 -15.333 -1.83301 -29.833 -5.5 -43.5s-9.66699 -25.667 -18 -36s-19.833 -18.5 -34.5 -24.5s-33 -9 -55 -9s-40.333 3 -55 9s-26.167 14.167 -34.5 24.5s-14.333 22.333 -18 36
s-5.5 28.167 -5.5 43.5v386c0 15.333 1.83301 29.833 5.5 43.5s9.66699 25.667 18 36s19.833 18.5 34.5 24.5s33 9 55 9zM190 767l56 -127h-44l-38 74l-37 -74h-44l55 127h52z" />
    <glyph glyph-name="ograve.smcp" horiz-adv-x="331" 
d="M165 45c20.667 0 34.667 5.83301 42 17.5s11 25.5 11 41.5v386c0 16 -3.66699 29.833 -11 41.5s-21.333 17.5 -42 17.5s-34.667 -5.83301 -42 -17.5s-11 -25.5 -11 -41.5v-386c0 -16 3.66699 -29.833 11 -41.5s21.333 -17.5 42 -17.5zM165 603c22 0 40.333 -3 55 -9
s26.167 -14.167 34.5 -24.5s14.333 -22.333 18 -36s5.5 -28.167 5.5 -43.5v-386c0 -15.333 -1.83301 -29.833 -5.5 -43.5s-9.66699 -25.667 -18 -36s-19.833 -18.5 -34.5 -24.5s-33 -9 -55 -9s-40.333 3 -55 9s-26.167 14.167 -34.5 24.5s-14.333 22.333 -18 36
s-5.5 28.167 -5.5 43.5v386c0 15.333 1.83301 29.833 5.5 43.5s9.66699 25.667 18 36s19.833 18.5 34.5 24.5s33 9 55 9zM150 767l37 -127h-42l-55 127h60z" />
    <glyph glyph-name="oacute.smcp" horiz-adv-x="331" 
d="M165 45c20.667 0 34.667 5.83301 42 17.5s11 25.5 11 41.5v386c0 16 -3.66699 29.833 -11 41.5s-21.333 17.5 -42 17.5s-34.667 -5.83301 -42 -17.5s-11 -25.5 -11 -41.5v-386c0 -16 3.66699 -29.833 11 -41.5s21.333 -17.5 42 -17.5zM165 603c22 0 40.333 -3 55 -9
s26.167 -14.167 34.5 -24.5s14.333 -22.333 18 -36s5.5 -28.167 5.5 -43.5v-386c0 -15.333 -1.83301 -29.833 -5.5 -43.5s-9.66699 -25.667 -18 -36s-19.833 -18.5 -34.5 -24.5s-33 -9 -55 -9s-40.333 3 -55 9s-26.167 14.167 -34.5 24.5s-14.333 22.333 -18 36
s-5.5 28.167 -5.5 43.5v386c0 15.333 1.83301 29.833 5.5 43.5s9.66699 25.667 18 36s19.833 18.5 34.5 24.5s33 9 55 9zM240 767l-54 -127h-43l38 127h59z" />
    <glyph glyph-name="eng.smcp" horiz-adv-x="379" 
d="M258 0l-72.001 231.5l-71 231.5l4 -127c1.33301 -40.667 2 -84 2 -130v-206h-59v595h60l141 -463c-2 44 -3.5 86.667 -4.5 128s-1.5 84 -1.5 128v207h59v-638c0 -15.333 -1.5 -29.333 -4.5 -42s-8.5 -23.5 -16.5 -32.5s-18.667 -15.833 -32 -20.5s-30 -7 -50 -7
c-6 0 -12.333 0.5 -19 1.5s-12.667 2.5 -18 4.5v51c4.66699 -2.66699 9.83398 -4.33398 15.501 -5.00098s12.167 -1 19.5 -1c18 0 30.333 3.83301 37 11.5s10 20.834 10 39.501v43z" />
    <glyph glyph-name="ncaron.smcp" horiz-adv-x="379" 
d="M115 464l4 -134.501c1.33301 -43.667 2 -89.5 2 -137.5v-192h-59v595h60l141 -465l-4 136.5c-1.33301 43.667 -2 88.834 -2 135.501v193h59v-595h-60zM162 639.999l-55 127h44l37 -74l38 74h44l-56 -127h-52z" />
    <glyph glyph-name="ncommaaccent.smcp" horiz-adv-x="379" 
d="M115 464l4 -134.501c1.33301 -43.667 2 -89.5 2 -137.5v-192h-59v595h60l141 -465l-4 136.5c-1.33301 43.667 -2 88.834 -2 135.501v193h59v-595h-60zM220 -48.001l-26 -122h-37v122h63z" />
    <glyph glyph-name="nacute.smcp" horiz-adv-x="379" 
d="M115 464l4 -134.501c1.33301 -43.667 2 -89.5 2 -137.5v-192h-59v595h60l141 -465l-4 136.5c-1.33301 43.667 -2 88.834 -2 135.501v193h59v-595h-60zM261 766.999l-54 -127h-43l38 127h59z" />
    <glyph glyph-name="ntilde.smcp" horiz-adv-x="379" 
d="M115 464l4 -134.501c1.33301 -43.667 2 -89.5 2 -137.5v-192h-59v595h60l141 -465l-4 136.5c-1.33301 43.667 -2 88.834 -2 135.501v193h59v-595h-60zM237 654.999c-12.667 0 -23.0029 2.16504 -31.0029 6.49805s-15 9.16602 -21 14.499s-12.167 10.166 -18.5 14.499
s-13.833 6.5 -22.5 6.5c-10.667 0 -18 -2.66699 -22 -8s-6 -13.333 -6 -24h-38c0 26.667 4.33301 46.834 13 60.501s25.334 20.5 50.001 20.5c12.667 0 22.834 -2.16699 30.501 -6.5s14.667 -9.16602 21 -14.499s12.5 -10.166 18.5 -14.499s13.667 -6.5 23 -6.5
c10.667 0 18 2.66699 22 8s6 13.333 6 24h38c0 -27.333 -4.66699 -47.666 -14 -60.999s-25.666 -20 -48.999 -20z" />
    <glyph glyph-name="mdotaccent.smcp" horiz-adv-x="466" 
d="M139 595l92.998 -506.003l94 506h77v-595h-57v203c0 14.667 0.333008 34.834 1 60.501l2 81l2 84.5c0.666992 28 1.33398 51.667 2.00098 71l-91 -500h-58l-92 500c0.666992 -20 1.33398 -43.833 2.00098 -71.5s1.5 -55.667 2.5 -84s1.83301 -55.166 2.5 -80.499
s1 -45.666 1 -60.999v-203h-58v595h77zM261.998 713.997v-74h-61v74h61z" />
    <glyph glyph-name="lslash.smcp" horiz-adv-x="251" 
d="M123 267v-210h105v-57h-166v242l-55 -22v40l55 22v313h61v-288l67 27v-40z" />
    <glyph glyph-name="ldot.smcp" horiz-adv-x="251" 
d="M62 595h61v-538h105v-57h-166v595zM213 318v-77h-67v77h67z" />
    <glyph glyph-name="obreve.smcp" horiz-adv-x="331" 
d="M165 45c20.667 0 34.667 5.83301 42 17.5s11 25.5 11 41.5v386c0 16 -3.66699 29.833 -11 41.5s-21.333 17.5 -42 17.5s-34.667 -5.83301 -42 -17.5s-11 -25.5 -11 -41.5v-386c0 -16 3.66699 -29.833 11 -41.5s21.333 -17.5 42 -17.5zM165 603c22 0 40.333 -3 55 -9
s26.167 -14.167 34.5 -24.5s14.333 -22.333 18 -36s5.5 -28.167 5.5 -43.5v-386c0 -15.333 -1.83301 -29.833 -5.5 -43.5s-9.66699 -25.667 -18 -36s-19.833 -18.5 -34.5 -24.5s-33 -9 -55 -9s-40.333 3 -55 9s-26.167 14.167 -34.5 24.5s-14.333 22.333 -18 36
s-5.5 28.167 -5.5 43.5v386c0 15.333 1.83301 29.833 5.5 43.5s9.66699 25.667 18 36s19.833 18.5 34.5 24.5s33 9 55 9zM243 741c0 -33.333 -6.16699 -58.5 -18.5 -75.5s-32.5 -25.5 -60.5 -25.5s-48 8.5 -60 25.5s-18 42.167 -18 75.5h38c0 -18.667 3 -32.5 9 -41.5
s16.333 -13.5 31 -13.5s25 4.5 31 13.5s9 22.833 9 41.5h39z" />
    <glyph glyph-name="ohungarumlaut.smcp" horiz-adv-x="331" 
d="M165 45c20.667 0 34.667 5.83301 42 17.5s11 25.5 11 41.5v386c0 16 -3.66699 29.833 -11 41.5s-21.333 17.5 -42 17.5s-34.667 -5.83301 -42 -17.5s-11 -25.5 -11 -41.5v-386c0 -16 3.66699 -29.833 11 -41.5s21.333 -17.5 42 -17.5zM165 603c22 0 40.333 -3 55 -9
s26.167 -14.167 34.5 -24.5s14.333 -22.333 18 -36s5.5 -28.167 5.5 -43.5v-386c0 -15.333 -1.83301 -29.833 -5.5 -43.5s-9.66699 -25.667 -18 -36s-19.833 -18.5 -34.5 -24.5s-33 -9 -55 -9s-40.333 3 -55 9s-26.167 14.167 -34.5 24.5s-14.333 22.333 -18 36
s-5.5 28.167 -5.5 43.5v386c0 15.333 1.83301 29.833 5.5 43.5s9.66699 25.667 18 36s19.833 18.5 34.5 24.5s33 9 55 9zM177 767l-39 -127h-43l23 127h59zM282 767l-49 -127h-43l33 127h59z" />
    <glyph glyph-name="oe.smcp" horiz-adv-x="452" 
d="M279 57h130v-57h-195c-14 -6 -30.333 -9 -49 -9c-22 0 -40.333 3 -55 9s-26.167 14.167 -34.5 24.5s-14.333 22.333 -18 36s-5.5 28.167 -5.5 43.5v386c0 15.333 1.83301 29.833 5.5 43.5s9.66699 25.667 18 36s19.833 18.5 34.5 24.5s33 9 55 9
c17.333 0 32.333 -2.66699 45 -8h199v-58h-130v-210h112v-54h-112v-216zM165 45c20.667 0 34.667 5.83301 42 17.5s11 25.5 11 41.5v386c0 16 -3.66699 29.833 -11 41.5s-21.333 17.5 -42 17.5s-34.667 -5.83301 -42 -17.5s-11 -25.5 -11 -41.5v-386
c0 -16 3.66699 -29.833 11 -41.5s21.333 -17.5 42 -17.5z" />
    <glyph glyph-name="pdotaccent.smcp" horiz-adv-x="325" 
d="M62 595h109.999c22.667 0 41.5 -3 56.5 -9s26.833 -14 35.5 -24s14.667 -21.833 18 -35.5s5 -28.167 5 -43.5v-125c0 -14.667 -2.16699 -28.667 -6.5 -42s-11.166 -25 -20.499 -35s-21.333 -18 -36 -24s-32.667 -9 -54 -9h-47v-248h-61v595zM168.999 301
c22.667 0 38 5.5 46 16.5s12 24.5 12 40.5v125c0 16 -4.33301 29 -13 39s-23.667 15 -45 15h-46v-236h46zM191.999 714v-74h-61v74h61z" />
    <glyph glyph-name="racute.smcp" horiz-adv-x="338" 
d="M62 595l111.001 -0.00292969c22.667 0 41.5 -3 56.5 -9s26.667 -14 35 -24s14.166 -21.667 17.499 -35s5 -27.666 5 -42.999v-122c0 -25.333 -5.33301 -47.666 -16 -66.999s-30 -31.666 -58 -36.999l106 -258h-67l-98 255h-31v-255h-61v595zM169.001 307.997
c22.667 0 38 5 46 15s12 23 12 39v122c0 16 -4.33301 28.833 -13 38.5s-23.667 14.5 -45 14.5h-46v-229h46zM236.001 766.997l-54 -127h-43l38 127h59z" />
    <glyph glyph-name="rcommaaccent.smcp" horiz-adv-x="338" 
d="M62 595l111.001 -0.00292969c22.667 0 41.5 -3 56.5 -9s26.667 -14 35 -24s14.166 -21.667 17.499 -35s5 -27.666 5 -42.999v-122c0 -25.333 -5.33301 -47.666 -16 -66.999s-30 -31.666 -58 -36.999l106 -258h-67l-98 255h-31v-255h-61v595zM169.001 307.997
c22.667 0 38 5 46 15s12 23 12 39v122c0 16 -4.33301 28.833 -13 38.5s-23.667 14.5 -45 14.5h-46v-229h46zM200.001 -48.0029l-26 -122h-37v122h63z" />
    <glyph glyph-name="rcaron.smcp" horiz-adv-x="338" 
d="M62 595l111.001 -0.00292969c22.667 0 41.5 -3 56.5 -9s26.667 -14 35 -24s14.166 -21.667 17.499 -35s5 -27.666 5 -42.999v-122c0 -25.333 -5.33301 -47.666 -16 -66.999s-30 -31.666 -58 -36.999l106 -258h-67l-98 255h-31v-255h-61v595zM169.001 307.997
c22.667 0 38 5 46 15s12 23 12 39v122c0 16 -4.33301 28.833 -13 38.5s-23.667 14.5 -45 14.5h-46v-229h46zM131.001 639.997l-55 127h44l37 -74l38 74h44l-56 -127h-52z" />
    <glyph glyph-name="sacute.smcp" horiz-adv-x="320" 
d="M211 168c0 27.333 -3.99805 49.165 -11.998 65.498s-18.167 30 -30.5 41s-25.5 20.833 -39.5 29.5s-27.167 18.834 -39.5 30.501s-22.5 26.167 -30.5 43.5s-12 40.666 -12 69.999v42c0 15.333 1.66699 29.833 5 43.5s9.16602 25.667 17.499 36s19.666 18.5 33.999 24.5
s32.833 9 55.5 9s41.334 -3 56.001 -9s26.167 -14.167 34.5 -24.5s14.166 -22.333 17.499 -36s5 -28.167 5 -43.5v-57h-61v57c0 15.333 -3.5 29 -10.5 41s-20.833 18 -41.5 18c-21.333 0 -35.333 -5.83301 -42 -17.5s-10 -25.5 -10 -41.5v-41c0 -23.333 4 -41.833 12 -55.5
s18.167 -25.334 30.5 -35.001s25.666 -18.667 39.999 -27s27.666 -19 39.999 -32s22.5 -29.667 30.5 -50s12 -47.166 12 -80.499v-64c0 -15.333 -1.66699 -29.833 -5 -43.5s-9.16602 -25.834 -17.499 -36.501s-19.833 -19 -34.5 -25s-33.334 -9 -56.001 -9
s-41.167 3 -55.5 9s-25.666 14.333 -33.999 25s-14.166 22.834 -17.499 36.501s-5 28.167 -5 43.5v65h60v-65c0 -15.333 3.83301 -29.166 11.5 -41.499s21.167 -18.5 40.5 -18.5c21.333 0 35.333 5.83301 42 17.5s10 25.834 10 42.501v63zM236.002 766.999l-54 -127h-43
l38 127h59z" />
    <glyph glyph-name="scircumflex.smcp" horiz-adv-x="320" 
d="M211 168c0 27.333 -3.99805 49.165 -11.998 65.498s-18.167 30 -30.5 41s-25.5 20.833 -39.5 29.5s-27.167 18.834 -39.5 30.501s-22.5 26.167 -30.5 43.5s-12 40.666 -12 69.999v42c0 15.333 1.66699 29.833 5 43.5s9.16602 25.667 17.499 36s19.666 18.5 33.999 24.5
s32.833 9 55.5 9s41.334 -3 56.001 -9s26.167 -14.167 34.5 -24.5s14.166 -22.333 17.499 -36s5 -28.167 5 -43.5v-57h-61v57c0 15.333 -3.5 29 -10.5 41s-20.833 18 -41.5 18c-21.333 0 -35.333 -5.83301 -42 -17.5s-10 -25.5 -10 -41.5v-41c0 -23.333 4 -41.833 12 -55.5
s18.167 -25.334 30.5 -35.001s25.666 -18.667 39.999 -27s27.666 -19 39.999 -32s22.5 -29.667 30.5 -50s12 -47.166 12 -80.499v-64c0 -15.333 -1.66699 -29.833 -5 -43.5s-9.16602 -25.834 -17.499 -36.501s-19.833 -19 -34.5 -25s-33.334 -9 -56.001 -9
s-41.167 3 -55.5 9s-25.666 14.333 -33.999 25s-14.166 22.834 -17.499 36.501s-5 28.167 -5 43.5v65h60v-65c0 -15.333 3.83301 -29.166 11.5 -41.499s21.167 -18.5 40.5 -18.5c21.333 0 35.333 5.83301 42 17.5s10 25.834 10 42.501v63zM185.002 766.999l56 -127h-44
l-38 74l-37 -74h-44l55 127h52z" />
    </font>
</defs>
</svg>
